<svg xmlns="http://www.w3.org/2000/svg" width="192" height="192" viewBox="0 0 192 192"><path d="M24.714 19v34.631h106.34V19zm14.314 17.018 9.818 2.643v10.196c-.02 1.24-1.366 2.237-3.02 2.237-1.652 0-3-.996-3.02-2.236 0-.753.499-1.458 1.331-1.879.833-.421 1.89-.505 2.82-.223v-5.074l-6.04-1.51v7.176c.014.816-.56 1.573-1.5 1.984s-2.101.412-3.041 0c-.94-.41-1.514-1.168-1.5-1.984 0-.753.499-1.46 1.332-1.88.832-.422 1.889-.504 2.82-.222zm21.283 4.738h52.709v6.729H60.311zM24.713 80.592V173h106.34v-63.312l-8.521 14.45-.057.081-19.5 17.386H60.311v-6.728h44.215l3.649-16.8H60.311v-6.73h50.985l17.754-30.755H24.711zm17.336 1.62c4.643 0 8.422 3.778 8.422 8.421s-3.779 8.422-8.422 8.422-8.422-3.779-8.422-8.422 3.779-8.422 8.422-8.422m-.152 2.536q-.708 0-1.47.153-.76.151-1.68.47v2.391a7 7 0 0 1 1.49-.754q.714-.259 1.331-.26.656 0 1.022.305.365.297.365.83 0 .35-.207.7-.198.35-.63.746l-.489.441q-.807.747-1.057 1.234-.25.479-.25 1.102v.375h2.747v-.344q0-.342.16-.623.158-.29.675-.762l.489-.433q.715-.678 1.011-1.264.297-.594.297-1.34 0-1.453-.974-2.207-.974-.76-2.83-.76m18.414 3.073h52.709v6.728H60.31zm-19.988 5.785v2.709h2.746v-2.709zm4.369 13.006 3.937 2.643c-1.11 3.64-4.071 5.932-6.203 7.173l-1.51-.754c.711-3.909 1.497-7.338 3.776-9.062m-4.153 9.816 1.51.756c.552 3.399-1.51 4.53-5.664 4.153 3.02-1.51 1.134-4.153 4.154-4.909m.378 14.466h2.266c2.514 0 3.32 1.367 3.392 3.776h.778c1.027 0 1.857.827 1.857 1.855v6.108c0 1.027-.83 1.853-1.857 1.853H36.732a1.85 1.85 0 0 1-1.856-1.853v-6.108c0-1.028.828-1.855 1.856-1.855h.793c.074-2.353.881-3.776 3.392-3.776m.754 1.668c-2.263 0-2.31 1.269-2.277 2.108h5.312c.033-.839-.016-2.108-2.28-2.108zm-4.907 3.994v.758h-1.135v.754h1.135v1.51h1.51v-1.51h7.55v1.51h1.512v-1.51h1.133v-.754h-1.133v-.757h-1.511v.757h-7.551v-.757z"/><path d="M24.714 53.631v26.961h104.34l2.002-3.467V53.631zM41.3 59.869l3.635.475-.356 2.174c.672.395 1.304.948 1.739 1.58l2.214-.631.948 3.2-2.213.632q0 .77-.238 1.422l1.779 1.385-2.252 2.726-1.7-1.304c-.395.237-.83.475-1.304.593-.119.04-.278.078-.397.118l-.314 2.095-3.637-.474.356-2.174c-.672-.395-1.304-.948-1.739-1.58l-2.212.633-.95-3.202 2.213-.633q0-.77.237-1.423l-1.776-1.383 2.25-2.725 1.701 1.303c.396-.237.829-.473 1.303-.592.119-.04.278-.08.397-.119zm19.012 4.414h52.709v6.73H60.312zm-18.35.565a2.1 2.1 0 0 0-.625.08c-1.107.356-1.778 1.542-1.422 2.648A2.175 2.175 0 0 0 42.563 69a2.174 2.174 0 0 0 1.422-2.648 2.18 2.18 0 0 0-2.023-1.504" opacity=".8"/><path d="M60.312 40.756v6.729h52.709v-6.729zm0 47.064v6.729h52.709V87.82zm0 23.527v6.729h47.859l.393-1.807.045-.004.091-.42 2.598-4.498zm0 23.529v6.729h42.664l1.55-6.728z" opacity=".6"/><path d="M158.11 38.135c-3.985-.133-6.35 2.838-6.35 2.838l-6.814 11.803s4.09-2.295 9.287.705c5.199 3.002 4.887 8.602 4.887 8.602l7.697-13.06s2.552-5.59-4.21-9.496c-1.662-.959-3.168-1.348-4.497-1.392m-13.195 21.516c-2.3.028-4.083.918-4.396 1.084l-31.816 55.111-.092.42q1.192-.12 2.33-.084c5.38.173 9.728 2.96 11.553 8.014l.04-.059 32.448-55.021c-.112-.527-1.293-5.624-5.574-8.244a8.27 8.27 0 0 0-4.49-1.22z" opacity=".4"/><path d="M149.84 51.503c-2.885-.096-4.948 1.326-4.948 1.326l-4.43 7.932c.074-.042 4.586-2.552 8.935.11 4.518 2.764 5.583 8.288 5.583 8.288l4.232-7.4s-.267-5.95-5.045-8.905c-1.535-.949-3.016-1.307-4.327-1.351m-38.91 64.679q-1.156-.037-2.37.088l-3.572 16.46a9 9 0 0 1 1.668-.178c1.488-.004 2.947.59 3.599 2.567l12.234-10.917c-1.82-5.069-6.17-7.847-11.56-8.02z" opacity=".8"/><path d="M60.312 64.284h52.709v6.729H60.312z" opacity=".6"/></svg>