<svg xmlns="http://www.w3.org/2000/svg" width="192" height="192" viewBox="0 0 192 192"><path d="M36.194 85.806a11.3 11.3 0 0 0-5.383 1.5c-2.519 1.428-4.406 3.724-5.247 6.394-.84 2.661-.34 5.879.981 8.221v.008l.008.008a76.8 76.8 0 0 0 22.375 23.675l7.815-21.458a55 55 0 0 1-11.42-13.372l-.087-.143a9.83 9.83 0 0 0-6.235-4.545 11.3 11.3 0 0 0-2.807-.287zm75.648 28.068a55.16 55.16 0 0 1-32.957 1.714l-7.495 20.59c15.303 4.384 32.043 4.079 47.963-1.81l-7.504-20.494h-.008zm34.463 45.779a12.22 12.22 0 0 1-7.838 3.022l6.339 11.762a2.984 2.984 0 0 0 5.47-2.32zm-101.21.032-3.963 12.43a2.984 2.984 0 0 0 5.47 2.321l6.347-11.8a12.36 12.36 0 0 1-7.854-2.951" opacity=".5"/><path d="M95.179 16.018a7.775 7.775 0 0 0-7.248 7.759v11.73a19.14 19.14 0 0 1 15.557.175V23.777a7.775 7.775 0 0 0-8.31-7.759zm-18.38 33.036L41.538 145.93a12.36 12.36 0 1 0 23.228 8.452l29.918-82.188A19.14 19.14 0 0 1 76.368 53.08a19 19 0 0 1 .43-4.026zm37.533.59a19 19 0 0 1 .311 3.437 19.14 19.14 0 0 1-18.069 19.106l30.142 82.267a12.219 12.219 0 1 0 22.941-8.413z" opacity=".75"/><path d="M94.193 33.975a19.14 19.14 0 0 0-17.826 19.232 19.138 19.138 0 0 0 38.275 0 19.14 19.14 0 0 0-20.449-19.232m1.315 8.066a11.166 11.166 0 0 1 0 22.332 11.166 11.166 0 0 1 0-22.332m58.36 33.662a2 2 0 0 0-.31.008 2.34 2.34 0 0 0-1.586.838l-1.38 1.65-1.913 2.297-1.97 2.352-.016.023a25.7 25.7 0 0 0-15.262-5.437 25.5 25.5 0 0 0-6.643.734l17.48 47.691a27 27 0 0 0 2.919-1.683 25.3 25.3 0 0 0 6.816-6.762 25.5 25.5 0 0 0 3.948-9.217l.049.008 3.029.541 5.072.887a2.37 2.37 0 0 0 1.992-.582 2.315 2.315 0 0 0 .328-3.055 2.33 2.33 0 0 0-1.507-.957l-2.121-.375-2.952-.518-3.029-.535-.326-.054.008-.256a25.4 25.4 0 0 0-1.563-9.098l-.095-.248a25.5 25.5 0 0 0-4.731-7.87c.068-.082.123-.173.191-.247l1.971-2.361 1.922-2.288 1.371-1.658a2.36 2.36 0 0 0 .535-1.707 2.4 2.4 0 0 0-.209-.773 2.32 2.32 0 0 0-2.015-1.348zm-16.648 8.948q.454-.004.924.111c1.679.401 2.769 1.822 2.442 3.182-.327 1.363-1.943 2.143-3.621 1.738-1.68-.401-2.775-1.838-2.448-3.197.266-1.108 1.392-1.822 2.703-1.834m9.473 23.129c.464.013.913.156 1.291.433 1.153.848 1.261 2.651.24 4.043-1.02 1.388-2.786 1.833-3.939.989-1.157-.848-1.269-2.66-.248-4.051.638-.868 1.568-1.367 2.457-1.412q.1-.005.2-.002"/></svg>