<svg width="192" height="192" version="1.1" viewBox="0 0 192 192" xmlns="http://www.w3.org/2000/svg"><path d="m36.194 85.806a11.333 11.333 0 0 0-5.3826 1.4991c-2.519 1.4289-4.406 3.7251-5.247 6.3951-0.83948 2.6611-0.34068 5.8786 0.98082 8.2213v8e-3l8e-3 8e-3c5.8117 9.6155 13.496 17.598 22.375 23.675l7.8146-21.458c-4.4211-3.7488-8.2944-8.2339-11.419-13.372-0.02893-0.04758-0.05891-0.09584-0.08772-0.14354a9.8311 9.8311 0 0 0-6.2355-4.5453 11.333 11.333 0 0 0-2.8068-0.28706zm75.648 28.068c-10.914 4.046-22.374 4.4289-32.957 1.7144l-7.4954 20.589c15.303 4.3844 32.043 4.0795 47.963-1.8101l-7.5036-20.493h-8e-3zm34.463 45.779a12.219 12.219 0 0 1-7.8383 3.0222l6.3392 11.762a2.9844 2.9844 0 0 0 5.47-2.3204l-3.971-12.463zm-101.21 0.0319-3.963 12.431a2.9844 2.9844 0 0 0 5.47 2.3204l6.3473-11.801a12.36 12.36 0 0 1-7.8542-2.9504z" opacity=".5"/><path d="m95.179 16.018a7.7754 7.7754 0 0 0-7.2483 7.7587v11.73a19.138 19.138 0 0 1 15.557 0.17543v-11.905a7.7754 7.7754 0 0 0-8.3089-7.7587zm-18.38 33.036-35.261 96.876a12.36 12.36 0 1 0 23.228 8.4524l29.918-82.188a19.138 19.138 0 0 1-18.316-19.114 19.138 19.138 0 0 1 0.4306-4.0269zm37.533 0.59007a19.138 19.138 0 0 1 0.31098 3.4368 19.138 19.138 0 0 1-18.069 19.106l30.142 82.267a12.219 12.219 0 1 0 22.941-8.4125z" opacity=".75"/><path d="m94.193 33.975a19.138 19.138 0 0 0-17.826 19.232 19.138 19.138 0 0 0 38.275 0 19.138 19.138 0 0 0-20.449-19.232zm1.3145 8.0664a11.166 11.166 0 0 1 0 22.332 11.166 11.166 0 0 1 0-22.332zm58.361 33.662a2.323 2.323 0 0 0-0.31055 0.007813 2.3394 2.3394 0 0 0-1.5859 0.83789l-1.3809 1.6504-1.9121 2.2969-1.9707 2.3516-0.01562 0.023438a25.713 25.713 0 0 0-15.262-5.4375 25.5 25.5 0 0 0-6.6426 0.73438l17.479 47.691c1.0027-0.5016 1.984-1.0603 2.9199-1.6836a25.329 25.329 0 0 0 6.8164-6.7617 25.525 25.525 0 0 0 3.9473-9.2168l0.04883 0.00781 3.0293 0.54101a7469.2 7469.2 0 0 0 5.0723 0.88672 2.3679 2.3679 0 0 0 1.9922-0.58203 2.3149 2.3149 0 0 0 0.32813-3.0547 2.3271 2.3271 0 0 0-1.5078-0.95703 1468.1 1468.1 0 0 0-2.1211-0.375l-2.9512-0.51758-3.0293-0.53515-0.32617-0.05469 0.00781-0.25586a25.443 25.443 0 0 0-1.5625-9.0977l-0.0957-0.24805a25.48 25.48 0 0 0-4.7305-7.8691c0.0684-0.082431 0.12289-0.17379 0.19141-0.24805l1.9707-2.3613 1.9219-2.2871 1.3711-1.6582a2.3598 2.3598 0 0 0 0.53515-1.707 2.4333 2.4333 0 0 0-0.20898-0.77344 2.323 2.323 0 0 0-2.0156-1.3477h-0.00195zm-16.648 8.9473c0.30273-0.0028 0.60906 0.035518 0.92383 0.11133 1.6787 0.40104 2.7686 1.8223 2.4414 3.1816-0.32711 1.3634-1.9424 2.1434-3.6211 1.7383-1.6787-0.40108-2.7745-1.8379-2.4473-3.1973 0.26578-1.1078 1.3912-1.8217 2.7031-1.834zm9.4727 23.129c0.46375 0.01329 0.91266 0.15666 1.291 0.43359 1.1531 0.84814 1.2611 2.6511 0.24023 4.043-1.021 1.3878-2.7864 1.8323-3.9394 0.98828-1.1572-0.84806-1.269-2.6589-0.24805-4.0508 0.63808-0.86736 1.5681-1.367 2.457-1.4121 0.06667-0.00336 0.13297-0.00385 0.19922-0.00195z"/></svg>
