<svg xmlns="http://www.w3.org/2000/svg" width="192" height="192" viewBox="0 0 192 192"><path d="M136.58 56.973c-2 0-4.047.113-6.047.46-16.88 2.447-28.2 14.927-34.533 24.493-6.333-9.567-17.653-22.047-34.533-24.493a43 43 0 0 0-6.046-.46C33.654 56.973 16 74.466 16 96c0 21.533 17.707 39.027 39.42 39.027 2 0 4.046-.113 6.106-.46 16.873-2.507 28.2-14.98 34.533-24.553 6.327 9.573 17.647 22.047 34.533 24.553 1.994.287 4.047.46 6.1.46 21.6 0 39.307-17.493 39.307-39.027 0-21.533-17.707-39.027-39.42-39.027zm-77.047 63.92a25.6 25.6 0 0 1-4.167.287c-14.32 0-25.927-11.333-25.927-25.18 0-13.9 11.66-25.18 25.987-25.18 1.387 0 2.774.113 4.16.286C75.52 73.44 85.233 89.56 88.566 96c-3.386 6.494-13.16 22.56-29.033 24.893m77.053.287c-1.387 0-2.773-.114-4.16-.287-15.933-2.333-25.707-18.453-28.98-24.893 3.273-6.44 13.047-22.56 28.98-24.893 1.387-.173 2.773-.287 4.16-.287 14.327 0 25.933 11.333 25.933 25.18 0 13.9-11.667 25.18-25.933 25.18m11-29.36v7.56h-8.033v7.88h-7.707v-7.88h-8.047v-7.56h8.04v-7.887h7.707v7.887zm-103.28 7.5h23.827v-7.5H44.3v7.5z"/></svg>