<svg xmlns="http://www.w3.org/2000/svg" width="192" height="192" viewBox="0 0 192 192"><path d="M86.957 77.223a4.82 4.82 0 0 0-4.719 3.83l-12.113 57.721-.004.02-.017.082h.004q-.105.488-.108.988v31.318A4.82 4.82 0 0 0 74.82 176h96.363a4.82 4.82 0 0 0 4.818-4.818v-31.318q0-.495-.1-.979l-11.998-57.822a4.82 4.82 0 0 0-4.718-3.84zm-7.32 67.459h86.727v21.682H79.637zm71.068 4.818a6.022 6.022 0 1 0 0 12.045 6.022 6.022 0 1 0 0-12.045m-61.432 1.206a4.82 4.82 0 0 0-4.819 4.818 4.82 4.82 0 0 0 4.819 4.818h40.955a4.82 4.82 0 0 0 4.818-4.818 4.82 4.82 0 0 0-4.818-4.819z" opacity=".6"/><path d="m75.631 77.832 8.222 9.328 6.34 6.142 7.06 4.71 8.49 4.446 9.833 3.633 6.159 1.431.265.796-.356 2.136-1.43 3.558-3.034 5.866-2.951 4.35-5.718 5.959-2.59 2.574-2.322.808-10.537-.096 6.247 4.263.093 1.074-3.753 2.931-5.091 2.932c-6.582 3.65-12.515-3.564-12.515-3.564s3.193 5.469 2.998 7.393h-6.258l-3.306-.53-3.753-1.871 1.256 1.954-6.801.086c-7.175-.169-11.919-4.293-16.165-8.709l-4.465-5.247-3.488-5.24-2.587-4.803-4.115-9.51-3.127-7.732-1.52-4.095h1.484l11.296-1.301c9.07-2.554 13.959-9.216 22.366-14.31l6.966-4.27 5.539-3.286.801-1.16.163-.45z"/><path d="m24.912 19.467 6.57 12.321 5.68 12.568 6.952 13.708 4.803 11.276 5.338-2.232 7.686-3.297h1.881l1.604.447 2.588 3.381 7.505 9.861-.353.979-.802 1.159-5.538 3.287-6.97 4.265c-8.408 5.095-13.294 11.755-22.365 14.312l-11.294 1.306h-1.9l-.124-.494-1.642-10.06-1.347-8.131-.133-1.739.983-1.824 6.617-3.02 3.839-1.644 2.349-1.501.267-.114-.315-.504-3.924-9.68-3.533-8.55-4.42-11.56-3.42-8.18-2.902-7.286-2.384-7.061c-1.428-5.274 4.847-8.127 8.705-1.993z" opacity=".8"/></svg>