<svg xmlns="http://www.w3.org/2000/svg" width="192" height="192" viewBox="0 0 192 192"><path d="M96.01 16c-36.841 0-66.814 29.976-66.826 66.816v61.24c0 8.405 3.26 16.364 9.18 22.412 6.013 6.142 13.99 9.531 22.5 9.531h.185c6.271-.047 12.227-1.874 17.373-5.332A31.8 31.8 0 0 0 96.01 176a31.76 31.76 0 0 0 17.578-5.332 31.73 31.73 0 0 0 19.346 5.283c16.762-.914 29.883-14.904 29.883-31.865v-61.27C162.817 45.975 132.85 16 96.01 16m0 7.031c32.961 0 59.775 26.824 59.775 59.785v61.27c0 13.222-10.208 24.13-23.242 24.844-.457.024-.92.04-1.377.04a24.66 24.66 0 0 1-15.4-5.42c-.75-.61-1.56-.723-2.1-.723-.855 0-1.716.305-2.431.879a24.7 24.7 0 0 1-15.225 5.273 24.7 24.7 0 0 1-15.234-5.273 3.75 3.75 0 0 0-2.354-.83 3.8 3.8 0 0 0-2.353.83c-4.325 3.41-9.528 5.226-15.05 5.273h-.165c-6.576 0-12.774-2.63-17.451-7.412-4.619-4.724-7.178-10.928-7.178-17.48v-61.25c0-32.984 26.824-59.805 59.785-59.805zm0 7.031c-29.128 0-52.754 23.626-52.754 52.754v61.24c0 9.74 7.964 17.951 17.705 17.881a17.47 17.47 0 0 0 10.742-3.77c3.974-3.129 9.454-3.129 13.428 0a17.45 17.45 0 0 0 10.859 3.77c4.115 0 7.89-1.413 10.879-3.77 3.927-3.094 9.4-3.226 13.291-.097 3.247 2.614 7.444 4.084 11.992 3.838 9.366-.516 16.602-8.445 16.602-17.822V82.817c0-29.128-23.616-52.754-52.744-52.754zM63.412 66.117a5.3 5.3 0 0 1 2.53.723l19.657 11.348v.01c3.564 2.063 3.564 7.204 0 9.267L65.941 98.813a5.357 5.357 0 0 1-7.314-1.953c-1.477-2.567-.602-5.838 1.953-7.314l11.63-6.719-11.63-6.719a5.36 5.36 0 0 1-1.953-7.314 5.37 5.37 0 0 1 4.785-2.676zm40.869 11.338h25.82c2.966 0 5.361 2.396 5.361 5.362s-2.407 5.351-5.361 5.351h-25.82c-2.965 0-5.352-2.386-5.352-5.351s2.398-5.362 5.352-5.362"/></svg>