<svg width="192" height="192" version="1.1" viewBox="0 0 192 192" xmlns="http://www.w3.org/2000/svg"><path d="m96.01 16c-36.841 0-66.814 29.976-66.826 66.816v61.24c0 8.4045 3.2603 16.364 9.1797 22.412 6.0132 6.142 13.99 9.5312 22.5 9.5312h0.18555c6.271-0.047 12.227-1.874 17.373-5.332 5.1807 3.458 11.34 5.332 17.588 5.332 6.248 0 12.397-1.874 17.578-5.332 5.181 3.458 11.319 5.332 17.578 5.332 0.586 0 1.1811-0.0133 1.7676-0.0488 16.762-0.914 29.883-14.904 29.883-31.865v-61.27c0-36.841-29.966-66.816-66.807-66.816zm0 7.0312c32.961 0 59.775 26.824 59.775 59.785v61.27c0 13.222-10.208 24.129-23.242 24.844-0.457 0.0235-0.91995 0.0391-1.377 0.0391-5.591 0-11.052-1.9269-15.4-5.4199-0.7505-0.61-1.5601-0.72266-2.0996-0.72266-0.8555 0-1.7166 0.30491-2.4316 0.87891-4.3135 3.3995-9.7151 5.2734-15.225 5.2734-5.509 0-10.921-1.8739-15.234-5.2734-0.692-0.551-1.5098-0.83008-2.3535-0.83008-0.84395 0-1.662 0.29108-2.3535 0.83008-4.3253 3.411-9.528 5.2264-15.049 5.2734h-0.16602c-6.5758 0-12.774-2.6301-17.451-7.4121-4.6183-4.724-7.1777-10.928-7.1777-17.48v-61.25c0-32.984 26.824-59.805 59.785-59.805zm0 7.0312c-29.128 0-52.754 23.626-52.754 52.754v61.24c0 9.7405 7.9644 17.951 17.705 17.881 4.0557-0.0235 7.7766-1.4365 10.742-3.7695 3.9736-3.1295 9.4542-3.1295 13.428 0 2.989 2.356 6.7449 3.7695 10.859 3.7695 4.1145 0 7.8899-1.4135 10.879-3.7695 3.927-3.0945 9.3995-3.2272 13.291-0.0977 3.247 2.614 7.4442 4.0839 11.992 3.8379 9.3655-0.51599 16.602-8.4453 16.602-17.822v-61.269c0-29.128-23.616-52.754-52.744-52.754zm-32.598 36.055c0.86322 0.02213 1.7308 0.26112 2.5293 0.72266l19.658 11.348v0.0098c3.5635 2.0635 3.5635 7.2046 0 9.2676l-19.658 11.348c-2.567 1.477-5.8376 0.60238-7.3145-1.9531-1.477-2.567-0.60218-5.838 1.9531-7.3145l11.631-6.7188-11.631-6.7188c-2.5553-1.477-3.4301-4.759-1.9531-7.3144 1.0154-1.7569 2.8861-2.7245 4.7852-2.6758zm40.869 11.338h25.82c2.9655 0 5.3613 2.3958 5.3613 5.3613s-2.4073 5.3516-5.3613 5.3516h-25.82c-2.9655 0-5.3516-2.3861-5.3516-5.3516s2.3981-5.3613 5.3516-5.3613z"/></svg>
