<svg xmlns="http://www.w3.org/2000/svg" width="192" height="192" viewBox="0 0 192 192"><path d="M30.001 141.22v9.777c0 5.4 4.378 9.778 9.777 9.778H51.78c-.84-2.117-1.842-4.175-3.091-6.176-.598-.957-1.228-2.231-1.81-3.602h-7.1c-5.4 0-9.778-4.377-9.778-9.777m136.88 0c0 5.4-4.378 9.777-9.777 9.777h-90.21c-.58 1.37-1.21 2.645-1.806 3.602-1.25 2.001-2.252 4.06-3.092 6.176h95.107c5.4 0 9.778-4.378 9.778-9.778z" opacity=".6"/><path d="m157.11 53.221-83.109.002v7.332q-.002 1.246-.174 2.445h11.174a3.67 3.67 0 0 1 3.623 3.098A17.03 17.03 0 0 1 98.446 63c9.449 0 17.11 7.663 17.11 17.111s-7.662 17.111-17.11 17.111-17.11-7.663-17.11-17.11q.001-1.247.173-2.446H30.001v63.555c0 5.4 4.38 9.777 9.78 9.777h7.1c-1.217-2.87-2.214-6.16-2.214-7.818v-36.285c.478-.501 1.07-1.145 1.682-1.603.878-.683 1.771-1.118 2.621-1.123 4.34-.034 7.175 5.862 9.897 0 1.432-3.027 2.568-6.407 6.154-6.89 1.365-.066 2.649.007 4.086.48l.006 45.421c0 1.658-.997 4.948-2.213 7.819h90.21c5.4 0 9.778-4.378 9.778-9.778v-78.22c0-5.4-4.378-9.78-9.777-9.78zm-117.33.002c-5.4 0-9.78 4.378-9.78 9.777h9.954a17 17 0 0 1-.174-2.445zM140 63c9.448 0 17.109 7.663 17.109 17.111S149.448 97.222 140 97.222s-17.111-7.663-17.111-17.11S130.552 63 140 63m-41.557 44c9.448 0 17.111 7.663 17.111 17.111s-7.663 17.111-17.111 17.111-17.109-7.663-17.109-17.11c0-9.449 7.661-17.112 17.109-17.112M140 107c9.448 0 17.109 7.663 17.109 17.111s-7.661 17.111-17.109 17.111-17.111-7.663-17.111-17.11c0-9.449 7.663-17.112 17.111-17.112" opacity=".8"/><path d="M140 63c-9.448 0-17.111 7.663-17.111 17.111S130.552 97.222 140 97.222s17.111-7.663 17.111-17.111S149.448 63 140 63M66.029 97.26q-.5-.006-1.012.02c-3.585.482-4.722 3.861-6.154 6.888-2.721 5.863-5.557-.033-9.897 0-.85.005-1.742.44-2.62 1.123-.612.459-1.205 1.102-1.682 1.604v36.285c0 2.449 2.173 8.46 4.021 11.42 2.65 4.244 4.187 8.746 5.428 13.512h5.547c1.241-4.765 2.78-9.267 5.43-13.512 1.847-2.96 4.02-8.971 4.02-11.42l-.007-45.422a10 10 0 0 0-3.074-.498" opacity=".6"/><path d="M98.445 63c-3.654 0-7.04 1.146-9.82 3.099q.042.277.042.568V74a3.67 3.67 0 0 1-3.666 3.667h-3.493a17 17 0 0 0-.174 2.444c0 9.448 7.663 17.11 17.111 17.11s17.111-7.662 17.111-17.11S107.893 63 98.445 63"/><path d="M140 107c9.448 0 17.111 7.663 17.111 17.111s-7.663 17.111-17.111 17.111-17.111-7.663-17.111-17.111S130.552 107 140 107" opacity=".4"/><path d="M98.445 107c9.448 0 17.111 7.663 17.111 17.111s-7.663 17.111-17.111 17.111-17.111-7.663-17.111-17.111S88.997 107 98.445 107" opacity=".2"/><path d="M140 63c-9.448 0-17.111 7.663-17.111 17.111.038.616.105 1.227.21 1.833.931-8.65 8.202-15.22 16.901-15.278 8.575.005 15.822 6.35 16.953 14.848q.108-.702.158-1.403C157.11 70.662 149.448 63 140 63m-41.555 44c-9.448 0-17.111 7.663-17.111 17.111.038.616.105 1.227.21 1.833.931-8.65 8.202-15.22 16.901-15.278 8.575.004 15.822 6.35 16.953 14.848q.108-.702.158-1.403c0-9.449-7.663-17.111-17.111-17.111M140 107c-9.448 0-17.111 7.663-17.111 17.111.038.616.105 1.227.21 1.833.931-8.65 8.202-15.22 16.901-15.278 8.575.004 15.822 6.35 16.953 14.848q.108-.702.158-1.403c0-9.449-7.663-17.111-17.111-17.111" opacity=".3"/><path d="M39.78 77.666v65.514c0 4.316 2.478 10.351 4.76 14.008 2.979 4.774 4.578 9.749 5.857 15.812h12.986c1.28-6.063 2.878-11.038 5.858-15.812 2.282-3.657 4.76-9.692 4.76-14.008V77.666H56.888zM66.032 97.26a10 10 0 0 1 3.074.498l.006 45.422c0 2.45-2.172 8.46-4.02 11.42-2.65 4.245-4.188 8.747-5.43 13.512h-5.546c-1.241-4.766-2.778-9.267-5.428-13.512-1.847-2.96-4.021-8.97-4.021-11.42v-36.285c.477-.501 1.07-1.145 1.681-1.603.879-.683 1.772-1.118 2.622-1.123 4.34-.034 7.175 5.862 9.896 0 1.432-3.027 2.569-6.407 6.154-6.89q.511-.025 1.012-.019"/><path d="M56.89 19c-9.448 0-17.111 7.663-17.111 17.111v24.444q.002 1.246.174 2.444H28.78a3.67 3.67 0 0 0-3.666 3.667v7.333a3.67 3.67 0 0 0 3.666 3.667h56.222a3.67 3.67 0 0 0 3.667-3.667v-7.333A3.67 3.67 0 0 0 85 62.999H73.827q.174-1.198.175-2.444V36.111C74.002 26.663 66.339 19 56.89 19" opacity=".4"/></svg>