<svg xmlns="http://www.w3.org/2000/svg" width="192" height="192" viewBox="0 0 192 192"><path d="m75.252 115.45-20.748 20.748v2.594l20.748 20.748 10.374-23.342z" opacity=".3"/><path d="m54.534 94.672 20.718 20.779L96 94.703zm62.214 20.779-41.496 41.496v2.594l13.413 13.413a10.353 10.353 0 0 0 14.67 0l34.182-34.177-.005-2.594z" opacity=".8"/><path d="M96 16a10.33 10.33 0 0 0-7.335 3.044l-34.16 34.161H96l20.733-20.763-13.398-13.398A10.33 10.33 0 0 0 96 16m41.496 78.702-20.748 20.748 20.763 20.733z" opacity=".9"/><path d="m116.75 115.45-41.496 41.496V115.45l20.748-20.748z"/><path d="m54.504 53.206 20.748 20.748L96 53.206zm82.992 0L96 94.702l20.748 20.748 20.748-20.748z" opacity=".5"/><path d="M96 53.236 75.252 73.984 96 94.732z" opacity=".2"/><path d="M96 53.236v41.496l20.748-20.748z" opacity=".6"/><path d="M54.544 53.196 37.169 70.571 19.941 87.844a10.27 10.27 0 0 0-2.634 6.889h-.005v2.593h.005a10.3 10.3 0 0 0 3.034 7.335l13.413 13.413v-2.593L75.25 73.985zm82.956.04v41.496l20.748 20.773v2.528l.02.02 13.393-13.393a10.33 10.33 0 0 0 3.04-7.335v-2.593c0-2.655-1.009-5.304-3.04-7.335z" opacity=".2"/><path d="m137.5 94.732.02 44.075 20.728-20.733v-2.568z" opacity=".6"/><path d="m96 53.236 20.748-20.748 20.748 20.748-20.748 20.748z" opacity=".7"/><path d="m54.534 94.702-20.778 20.779v2.594l20.748 20.748v-2.594l20.748-20.748z" opacity=".4"/><path d="M96 94.732 75.252 73.984 54.504 94.732z" opacity=".1"/><path d="M17.303 94.702v2.594h.005a10.3 10.3 0 0 0 3.034 7.334l68.323 68.323a10.353 10.353 0 0 0 14.67 0l68.323-68.323a10.33 10.33 0 0 0 3.04-7.334v-2.594c0 2.654-1.008 5.304-3.04 7.335l-68.323 68.323a10.353 10.353 0 0 1-14.67 0l-68.323-68.323a10.3 10.3 0 0 1-3.034-7.335z" opacity=".6"/></svg>