<svg xmlns="http://www.w3.org/2000/svg" width="192" height="192" viewBox="0 0 192 192"><path d="M69.008 176c14.361 0 26.016-11.655 26.016-26.016v-26.016H69.008c-14.361 0-26.016 11.655-26.016 26.016S54.647 176 69.008 176M42.992 96c0-14.361 11.655-26.016 26.016-26.016h26.016v52.033H69.008c-14.361 0-26.016-11.655-26.016-26.016zm0-53.984C42.992 27.655 54.647 16 69.008 16h26.016v52.033H69.008c-14.361 0-26.016-11.655-26.016-26.016zM96.976 16h26.016c14.361 0 26.016 11.655 26.016 26.016s-11.655 26.016-26.016 26.016H96.976zm52.034 80c0 14.361-11.655 26.016-26.016 26.016S96.978 110.361 96.978 96s11.655-26.016 26.016-26.016S149.01 81.639 149.01 96"/></svg>