<svg width="192" height="192" version="1.1" viewBox="0 0 192 192" xmlns="http://www.w3.org/2000/svg"><path d="m69.008 176c14.361 0 26.016-11.655 26.016-26.016v-26.016h-26.016c-14.361 0-26.016 11.655-26.016 26.016 0 14.361 11.655 26.016 26.016 26.016z"/><path d="m42.992 96c0-14.361 11.655-26.016 26.016-26.016h26.016v52.033h-26.016c-14.361 0-26.016-11.655-26.016-26.016z"/><path d="m42.992 42.016c0-14.361 11.655-26.016 26.016-26.016h26.016v52.033h-26.016c-14.361 0-26.016-11.655-26.016-26.016z"/><path d="m96.976 16h26.016c14.361 0 26.016 11.655 26.016 26.016 0 14.361-11.655 26.016-26.016 26.016h-26.016z"/><path d="m149.01 96c0 14.361-11.655 26.016-26.016 26.016-14.361 0-26.016-11.655-26.016-26.016 0-14.361 11.655-26.016 26.016-26.016 14.361 0 26.016 11.655 26.016 26.016z"/></svg>
