<svg xmlns="http://www.w3.org/2000/svg" width="192" height="192" viewBox="0 0 192 192"><path d="M119.31 73.386a14.5 15.9 0 0 0-14.5 15.894 14.5 15.9 0 0 0 14.5 15.9 14.5 15.9 0 0 0 14.5-15.9 14.5 15.9 0 0 0-14.5-15.894m0 1a6.227 6.227 0 0 1 6.22 6.234 6.227 6.227 0 0 1-6.22 6.226 6.227 6.227 0 0 1-6.227-6.227 6.227 6.227 0 0 1 6.227-6.226zm32.688 62.888a2.1 2.1 0 0 0-.627.093c-1.853.534-4.28 4.9-3.753 6.754s2.373 1.013 3.493 1.633c.994.554 1.307 2.2 2.667 2.194-.22 2.973.833 6.02 2.653 8.206 3.094 3.76 7.82 3.84 10.847 4.534 3.02.687 5.26 2.533 6.367 4.554h-.066c.933 1.686 2.753-6.434 2.086-12.068-1.326-11.28-12.18-15.294-17.714-12.374-.633-1.453-2.326-.746-3.38-1.333-.98-.547-1.3-2.153-2.6-2.193zm-122.6-66.562a19.587 15.194 78.561 0 0-1.973.24A19.587 15.194 78.561 0 0 16.51 93.239a19.587 15.194 78.561 0 0 18.827 16.08 19.587 15.194 78.561 0 0 10.914-22.287 19.587 15.194 78.561 0 0-16.854-16.32zm.133 1.213a8.267 8.267 0 0 1 8.267 8.267 8.267 8.267 0 0 1-8.267 8.274 8.267 8.267 0 0 1-8.267-8.267 8.267 8.267 0 0 1 8.267-8.267zm48.641 4.127A10.734 13.047 0 0 0 67.438 89.1a10.734 13.047 0 0 0 10.734 13.047A10.734 13.047 0 0 0 88.906 89.1a10.734 13.047 0 0 0-10.734-13.047m.067.947a4.894 4.894 0 0 1 4.887 4.887 4.894 4.894 0 0 1-4.887 4.893 4.894 4.894 0 0 1-4.893-4.893A4.894 4.894 0 0 1 78.239 77m91.903-50.468c-.547.067-1.187.373-1.853 1.227-15.034 22.567-36.934 32.68-52.908 36.808a23.421 23.907 0 0 1 21.667 23.84 23.421 23.907 0 0 1-23.421 23.908 23.421 23.907 0 0 1-22.501-17.3 17.84 19.987 0 0 1-16.8 13.334 17.84 19.987 0 0 1-17.84-19.987A17.84 19.987 0 0 1 74.32 68.367a17.84 19.987 0 0 1 16.78 13.58 23.421 23.907 0 0 1 12.52-15.134c-12.58 1.64-19.267-.167-28.901-4.327-6.827-3.734-11.48-7.82-16.534-15.727-.24-.367-.734-.574-1.067-.167-1.2 1.607-6.467 38.154-6.534 41.514-.22 10.88-4.706 23.954-18.2 24.407 12.426 25.327 39.46 36.434 70.574 35.981 9.36.067 22.194-2.213 34.474-8.287a1426 1426 0 0 1-10.454-6.64c-8.98 5.254-19.567 7.267-31.16 6.794-14.78-.6-12.315-4.88-9.067-4.447 23.827 3.373 38.8-4.16 48.768-16.98a231 231 0 0 1-3.707-2.514c-1.094-.76.213-1.94 2.566-2.026h.267c1.367-.014 3.053.373 4.814 1.373 5.046 2.887 5.22 6.434 3.566 7.207-.533.247-1.753-.32-2.926-1.007a48 48 0 0 1-5.454 5.914h.067c4.453 1.933 10.454 4.56 13.367 5.933a64.2 64.2 0 0 0 20.114-23.827c14.534-29.66 4.347-81.176 4.093-81.936-.26-.746-1-1.406-1.613-1.506h-.507z"/></svg>