<svg xmlns="http://www.w3.org/2000/svg" width="192" height="192" viewBox="0 0 192 192"><path d="M96 20.907c-42.542 0-77 34.477-77 77 0 34.028 22.06 62.883 52.649 73.054 3.85.725 5.262-1.655 5.262-3.702 0-1.83-.064-6.674-.097-13.09-21.419 4.645-25.936-10.331-25.936-10.331-3.503-8.887-8.566-11.261-8.566-11.261-6.975-4.774.54-4.678.54-4.678 7.731.539 11.793 7.93 11.793 7.93 6.866 11.776 18.024 8.375 22.426 6.405.693-4.98 2.676-8.374 4.877-10.3-17.1-1.924-35.074-8.546-35.074-38.05 0-8.406 2.984-15.272 7.925-20.662-.867-1.945-3.465-9.773.673-20.38 0 0 6.45-2.066 21.175 7.893 6.16-1.713 12.705-2.56 19.25-2.599 6.545.039 13.09.886 19.25 2.6 14.63-9.96 21.08-7.893 21.08-7.893 4.138 10.607 1.54 18.435.77 20.379 4.908 5.39 7.892 12.256 7.892 20.662 0 29.58-18 36.094-35.131 37.987 2.695 2.31 5.197 7.032 5.197 14.245 0 10.305-.096 18.583-.096 21.085 0 2.02 1.348 4.427 5.294 3.657 30.806-10.1 52.848-38.975 52.848-72.95 0-42.524-34.477-77-77-77"/></svg>