<svg xmlns="http://www.w3.org/2000/svg" width="192" height="192" viewBox="0 0 192 192"><path d="M95.986 19.013a76.82 76.82 0 0 0-60.1 28.878l25.363 43.933a34.986 34.986 0 0 1 34.729-30.82h68.603A76.99 76.99 0 0 0 95.97 19.013M31.405 54.11a76.64 76.64 0 0 0-12.403 41.889 76.986 76.986 0 0 0 65.37 76.113l25.354-43.925a34.986 34.986 0 0 1-44.036-14.696zm85.583 13.892a34.943 34.943 0 0 1 9.307 45.49h.009-.01l-34.283 59.39a76.986 76.986 0 0 0 75.72-104.88zm-21 55.994a27.997 27.997 0 1 1 0-55.994 27.997 27.997 0 0 1 0 55.994"/></svg>