<svg xmlns="http://www.w3.org/2000/svg" width="192" height="192" viewBox="0 0 192 192"><path d="M176 95.907h-.18L147.033 67.12l28.687-29.427V25.74l-4.327-4.32H116.74l-4.4 4.033v6.967L96.1 16.18V16l-.1.093-.093-.093v.18l-8.6 8.607-3.587-3.594H29.567l-4.253 4.614v12.567l4.107 4.106h4.8v35.4L16.18 95.913H16l.093.087-.093.093h.18l18.04 18.04v43.113l6.046 3.487h15.48l12.38-12.693L95.9 175.813V176l.1-.094.094.094v-.187l16.733-16.727h3.233c.74 0 1.407-.467 1.667-1.193l.973-2.84a1.75 1.75 0 0 0-.247-1.593l9.747-9.747-4.08 13.08a1.77 1.77 0 0 0 1.18 2.213c.167.053.347.08.52.08h12.16A1.77 1.77 0 0 0 139.6 158l1.1-2.626c.167-.434.16-.92-.027-1.354a1.74 1.74 0 0 0-.973-.946 1.8 1.8 0 0 0-.647-.134h-.5l5.6-17.627h8.214l-6.774 21.473a1.77 1.77 0 0 0 1.7 2.294h13.347c.734 0 1.38-.44 1.654-1.134l1.093-2.853c.34-.92-.14-1.933-1.053-2.273a1.7 1.7 0 0 0-.607-.114h-.967l7.54-24.487c.18-.546.08-1.153-.26-1.6l-2.5-3.36-.02-.033a1.78 1.78 0 0 0-1.393-.68h-9.573c-.474 0-.94.2-1.267.54l-2.667 2.927h-4.16l-.28-.307 29.633-29.633H176l-.093-.073zm-94.413 61.02 10.527-30.06h-3.34l1.98-2.027h11.06l-10.42 30.367h4.153l-.526 1.72zm24.633-50.107 1 1.007-1.793 6.146-1.5 1.507h-6.46l-1.207-1.207 2.073-5.806 1.92-1.647zm-52.953 48.04h-11.42l-1.747-1V36.61h-8.24l-.666-.667v-7.84l.953-1.026h49.14l1.42 1.426v7.387l-.947 1.153h-7.193v57.92l58.713-57.92h-13.907l-1.167-1.253v-7.753l.807-.74h49.933l.88.886v7.134l-67.3 69.02h-2.487c-.1-.007-.186 0-.28.007l-.133.02c-.3.066-.573.2-.793.4l-2.287 1.966-.027.02c-.22.207-.393.46-.486.74l-1.974 5.533zm98.453-26.347 3.16-3.46h8.893l2.06 2.767-8.433 27.38h3.287l-.534 1.393h-11.887l7.494-23.76h-13.433l-7.18 22.607h2.826l-.486 1.16h-10.7l7.38-23.653h-13.973l-7.08 22.26h2.906l-.48 1.393h-11.073l10.093-29.733h-3.906l.606-1.806h11l3.46 3.58h6.04l3.274-3.694h7.073l3.26 3.567z"/></svg>