<svg xmlns="http://www.w3.org/2000/svg" width="192" height="192" viewBox="0 0 192 192"><path d="M35.455 19.184v46.411h9.074V19.184zm14.001 0v46.411h9.074V19.184zm13.997 0v46.411h9.074V19.184zm55.988 0v46.411h9.074V19.184zm14.033 0v46.411h9.074V19.184zm13.981 0v46.411h9.074V19.184zm-114.55.081-13.902.071.128 46.06 13.86-.053v-8.067h-5.304V26.834h5.219zm126.2.014v7.568h5.219V57.29h-5.304v8.067l13.86.055.128-46.06zM35.465 72.94v46.41h9.074V72.94zm14.001 0v46.41h9.074V72.94zm13.997 0v46.41h9.074V72.94zm14.003 0v46.41h9.074V72.94zm13.997 0v46.41h9.074V72.94zm14.001 0v46.41h9.074V72.94zm13.987 0v46.41h9.074V72.94zm14.033 0v46.41h9.074V72.94zm13.981 0v46.41h9.074V72.94zm-114.55.08-13.902.072.128 46.06 13.86-.053v-8.067h-5.304v-30.44h5.219zm126.2.019v7.568h5.219v30.442h-5.304v8.067l13.86.055.128-46.06zm-123.64 53.363v46.413h9.074v-46.413zm14.001 0v46.413h9.074v-46.413zm13.997 0v46.413h9.074v-46.413zm55.988 0v46.413h9.074v-46.413zm14.033 0v46.413h9.074v-46.413zm13.981 0v46.413h9.074v-46.413zm-114.55.083-13.902.07.128 46.06 13.86-.053v-8.066h-5.304v-30.442h5.219zm126.2.055v7.569h5.219v30.442h-5.304v8.066l13.86.055.128-46.06z"/></svg>