<svg xmlns="http://www.w3.org/2000/svg" width="192" height="192" viewBox="0 0 192 192"><path d="M19 149.39v9.656c0 5.328 5.129 9.65 11.456 9.65h125.97c6.327 0 11.456-4.322 11.456-9.65v-9.656c0 5.333-5.129 9.656-11.456 9.656H30.456c-6.327 0-11.456-4.323-11.456-9.656" opacity=".6"/><path d="M30.456 43.19C24.129 43.19 19 47.513 19 52.846v96.54c0 5.333 5.129 9.656 11.456 9.656h125.97c6.327 0 11.456-4.323 11.456-9.656v-96.54c0-5.333-5.129-9.656-11.456-9.656zm0 2.413h125.97c4.747 0 8.594 3.245 8.594 7.243v96.54c0 3.999-3.847 7.238-8.594 7.238H30.456c-4.742 0-8.594-3.24-8.594-7.238v-96.54c0-3.999 3.852-7.243 8.594-7.243" opacity=".8"/><path d="M30.456 45.603c-4.742 0-8.594 3.245-8.594 7.243v96.54c0 3.999 3.852 7.238 8.594 7.238h125.97c4.747 0 8.594-3.24 8.594-7.238v-96.54c0-3.998-3.847-7.243-8.594-7.243zm62.987 22.871c10.912 0 19.752 8.845 19.752 19.757 0 10.907-8.84 19.752-19.752 19.752s-19.752-8.845-19.752-19.752c0-10.912 8.84-19.757 19.752-19.757m0 4.407a5.774 5.774 0 0 0 0 11.545 5.774 5.774 0 0 0 0-11.545m-2.884 13.47a8.64 8.64 0 0 0-8.661 8.657v.963a3.837 3.837 0 0 0 3.852 3.847h15.387a3.837 3.837 0 0 0 3.852-3.847v-.963a8.64 8.64 0 0 0-8.662-8.656zM60.685 118.45H126.2a3.086 3.086 0 0 1 3.093 3.093v9.122a3.085 3.085 0 0 1-3.093 3.088H60.685a3.08 3.08 0 0 1-3.093-3.088v-9.122a3.08 3.08 0 0 1 3.093-3.093" opacity=".6"/><path d="M106.64 23.308c-.853 0-1.57.633-1.675 1.476l-.591 4.747c-1.02.178-2.01.44-2.968.77l-2.868-3.795a1.73 1.73 0 0 0-1.015-.634 1.68 1.68 0 0 0-1.178.194l-2.187 1.267a1.68 1.68 0 0 0-.712 2.114l1.795 4.26a20 20 0 0 0-2.34 2.204l-4.165-1.759a1.7 1.7 0 0 0-.796-.125 1.68 1.68 0 0 0-1.319.837l-1.266 2.193a1.685 1.685 0 0 0 .445 2.187l3.38 2.56q-.283.683-.515 1.387h11.252c1.842-2.359 4.718-3.858 7.99-3.858 3.267 0 6.143 1.5 7.986 3.858h11.252q-.232-.705-.513-1.387l3.38-2.56c.681-.512.87-1.45.445-2.187l-1.266-2.193a1.7 1.7 0 0 0-1.324-.837 1.7 1.7 0 0 0-.796.125l-4.16 1.759a21 21 0 0 0-2.34-2.204l1.795-4.26c.33-.785.027-1.69-.711-2.114l-2.188-1.267a1.7 1.7 0 0 0-1.183-.194 1.72 1.72 0 0 0-1.01.634l-2.868 3.794a19.6 19.6 0 0 0-2.967-.77l-.592-4.746a1.69 1.69 0 0 0-1.675-1.476zm-47.992 6.935a1.69 1.69 0 0 0-1.675 1.476l-.591 4.746c-1.015.184-2.01.44-2.968.77l-2.868-3.79a1.7 1.7 0 0 0-1.01-.638 1.66 1.66 0 0 0-1.178.194l-2.192 1.266a1.68 1.68 0 0 0-.712 2.115l1.795 4.26a21 21 0 0 0-2.34 2.208l-4.16-1.758a1.7 1.7 0 0 0-.796-.126 1.68 1.68 0 0 0-1.324.837l-.803 1.388h44.177l-.803-1.387a1.7 1.7 0 0 0-.921-.76 1.8 1.8 0 0 0-.398-.078 1.66 1.66 0 0 0-.796.126L74.92 42.85a21 21 0 0 0-2.34-2.208l1.796-4.26c.33-.78.026-1.69-.712-2.115l-2.188-1.266a1.7 1.7 0 0 0-1.177-.194 1.7 1.7 0 0 0-1.015.639l-2.868 3.789a20 20 0 0 0-2.968-.77l-.591-4.747a1.69 1.69 0 0 0-1.675-1.475zm84.439 33.97a21.8 21.8 0 0 0-4.464 2.419q-.918.645-1.764 1.376c-4.59 3.978-7.505 9.834-7.542 16.38-.052 8.087 4.302 15.173 10.807 18.989 0 .063-.005.126-.005.188l-.308 51.881a10.894 10.894 0 0 0 10.855 10.991 10.895 10.895 0 0 0 10.985-10.855l.314-51.88v-.194c6.552-3.737 10.99-10.771 11.038-18.857.057-9.164-5.543-17.046-13.53-20.333l-.12 20.254-8.216 4.045-8.17-4.15zm7.673 85.838a4.1 4.1 0 0 1 4.071 4.124 4.097 4.097 0 0 1-4.119 4.071 4.104 4.104 0 0 1-4.071-4.124 4.1 4.1 0 0 1 1.36-3.02 4.08 4.08 0 0 1 2.759-1.051"/></svg>