<svg xmlns="http://www.w3.org/2000/svg" width="192" height="192" viewBox="0 0 192 192"><path d="M95.433 16 94 17.433C79.433 32 65.8 58.6 56.307 85.886c-7.094 6.827-24.22 18.733-24.74 23.673-.62 5.8 11.64 17.407 10.333 21.567-1.32 4.167-8.694 9.387-6.76 12.927.666 1.254 5.486.074 8.513-3.273a89 89 0 0 0-.113 14.267c.506 6.04 1.8 11.12 4.286 14.88C50.306 173.68 54.2 176 58.94 176c2.647 0 4.847-.76 6.827-1.76 1.987-.993 3.807-2.2 6.067-3.333 4.533-2.267 10.893-4.44 23.533-4.027 12.687.414 19.147 2.6 23.727 4.694S126.759 176 131.926 176c5.113 0 9.3-2.24 12.047-6 2.746-3.753 4.206-8.866 4.8-14.933.4-4.153.366-8.8 0-13.773 3.026 3 7.446 4.027 8.086 2.827 1.934-3.533-5.44-8.76-6.753-12.913-1.32-4.16 10.947-15.773 10.327-21.573-.533-4.987-18.047-17.12-24.987-23.907-9.927-27.233-24.06-53.767-38.58-68.293zM96.6 56.253a19.667 19.667 0 0 1 19.62 19.613 19.667 19.667 0 0 1-19.62 19.62 19.667 19.667 0 0 1-19.613-19.62A19.667 19.667 0 0 1 96.6 56.253M73.9 69.22a23.4 23.4 0 0 0-.967 6.647c0 13.007 10.667 23.667 23.667 23.667s23.667-10.653 23.667-23.667c0-2.194-.307-4.32-.88-6.34 2.227.633 4.267 1.386 6.1 2.24a285 285 0 0 1 13.613 38.86c4.52 16.967 6.733 32.8 5.64 44.047-.547 5.626-1.933 10.067-4.04 12.933-2.1 2.873-4.753 4.34-8.767 4.34-3.953 0-6.213-1.8-11.153-4.067-4.94-2.253-12.167-4.627-25.28-5.053-13.16-.427-20.487 1.953-25.473 4.46-2.5 1.253-4.393 2.486-6.073 3.333s-3.107 1.333-5.013 1.333c-3.534 0-5.84-1.393-7.734-4.266-1.9-2.867-3.16-7.34-3.633-12.987-.94-11.287 1.173-27.127 5.487-44.093a288 288 0 0 1 12.893-38.553c2.32-1.114 4.993-2.067 7.947-2.834zM51.353 98.3a1.44 1.44 0 0 1 .866.207 300 300 0 0 0-3.086 11.1 226 226 0 0 0-3.647 17.033 26 26 0 0 0-1.333-2.6c-3.867-6.747-6.094-10.947-7.734-13.867 2.1-1.6 11.193-11.7 14.933-11.873zm89.293.067c3.746.18 12.84 10.287 14.933 11.887-1.64 2.92-3.867 7.12-7.734 13.867a30 30 0 0 0-1.086 2.06 216 216 0 0 0-3.747-16.6 271 271 0 0 0-3.213-11.013 1.44 1.44 0 0 1 .846-.2z"/></svg>