<svg xmlns="http://www.w3.org/2000/svg" width="192" height="192" viewBox="0 0 192 192"><path d="M85.63 158.48c-.006 5.656-6.842 8.485-10.843 4.488-4-3.997-1.18-10.836 4.477-10.848 3.493 0 6.34 2.867 6.34 6.367m39.487-.006c-.006 5.65-6.833 8.481-10.836 4.494s-1.202-10.825 4.45-10.855c3.506 0 6.36 2.867 6.36 6.367m30.292-61.067c-4.607-6.025-15.066-18.386-33.773-25.16l-1.533-.52.233-.553a27.4 27.4 0 0 0-.8-21.7 27.4 27.4 0 0 0-16.253-14.4c-4.373-1.44-8.2-2.127-11.413-2.033-.22-.7-.667-3.847 3.307-12.32L87.078 16l-1.913 2.66c-2.2 3.034-4.32 5.967-6.3 8.854a12.38 12.38 0 0 0-8.3-3.867c-3.356-.227-6.717-.404-10.073-.593-6.6 0-12.067 5.14-12.467 11.7l-.587 9.346v.02c-.395 6.87 4.833 12.768 11.7 13.2l6.68.4c-.433 5.6.487 10.8 2.7 15.373a75.2 75.2 0 0 0-24.4 16.56c-22.04 22.293-22.04 46.693-22.04 66.313V167.8l8.7-9.246a70.8 70.8 0 0 0 7.633 17.433h11.32a61.3 61.3 0 0 1-11.2-25.653L51.284 136.8l-6.566 20.6 11.6-8.447c20.5-14.893 44.967-18.333 72.733-10.2 12.04 3.553 23.733.267 29.827-8.373l.693-1.1c.6 3.32.933 6.653.933 9.973 0 10.42-1.693 24.58-9.2 36.747h10.747c5.174-10.42 7.874-22.88 7.874-36.747-.006-14.667-5.24-29.473-14.56-41.827zM75.29 57.28c.813-6.68 3.847-12.993 8.2-19.8a9.07 9.07 0 0 0 8.553 4.993c1.44-.053 4.027.167 8.22 1.547a18.04 18.04 0 0 1 10.72 9.5c2.147 4.54 2.327 9.613.527 14.333a17.93 17.93 0 0 1-5.373 7.387l-2.72-3.347-.014-.02c-3.422-4.155-9.558-4.766-13.733-1.366-2.226 1.8-3.426 4.4-3.56 7.053-8-3.6-12-10.953-10.853-20.267zm28.693 34.067-3.467 2.833a1.52 1.52 0 0 1-2.153-.213l-.733-.9a1.587 1.587 0 0 1 .226-2.227l3.4-2.8-7.04-8.66c-.732-.88-.6-2.19.294-2.906a2.02 2.02 0 0 1 2.9.273l19.753 24.307c.983 1.18.377 2.982-1.12 3.327a2.1 2.1 0 0 1-2.067-.694l-1.967-2.433-6.966 5.693c-.29.237-.653.367-1.027.367-.483 0-.94-.22-1.24-.6l-3.18-3.867a1.6 1.6 0 0 1 .233-2.233l7-5.72-2.833-3.553zM67.676 48.44l-7.973-.5a3.087 3.087 0 0 1-2.9-3.253l.6-9.333a3.08 3.08 0 0 1 3.073-2.914c3.167.182 6.334.401 9.5.607a3.06 3.06 0 0 1 2.887 3.253l-.047.674a61.8 61.8 0 0 0-5.153 11.467zm83.5 76.547c-3.767 5.367-11.247 7.2-19.493 4.787-25.907-7.607-49.313-6.02-69.793 4.667l10.907-34.147-35.267 37.393c.653-25.08 16.347-46.447 38.38-55.413 3.14 2.486 6.893 4.4 11.153 5.606 1.067.294 2.147.494 3.2.68a9.4 9.4 0 0 0 1.4 9.387l.5.6c-1.147 3-.7 6.5 1.473 9.16l3.174 3.88a9.27 9.27 0 0 0 7.193 3.42c2.133 0 4.233-.74 5.907-2.093l1.9-1.547a9.7 9.7 0 0 0 3.773.753 9.67 9.67 0 0 0 6.187-2.173c4.153-3.4 4.8-9.567 1.393-13.733L112.03 82.501a27 27 0 0 0 2.72-2.533c.9.24 1.8.513 2.667.8 1.773.64 3.553 1.313 5.3 2.093 12.753 5.753 21.02 14.571 25.753 21.047 5.586 7.66 6.58 15.527 2.693 21.047v.033zM67.45 43.434l-5.567-.333.354-5.573 5.56.34z"/></svg>