<svg xmlns="http://www.w3.org/2000/svg" width="192" height="192"><path d="M33.475 40.687v7.67l10.192.776c1.895.144 1.898 1.012 1.65 2.33l-16.406 87.369c-.333 1.774-.696 2.29-2.523 2.427L16 142.036v7.96h45.432v-7.96l-10.097-.68c-1.52-.086-2.135-.408-1.748-2.525l6.698-36.598h10.29l14.756 31.065c6.031 12.388 10.262 17.7 23.3 17.863 3.748.049 5.256.324 15.37 0 34.878-29.12 52.683-51.318 55.496-61.354 1.704-6.078-1.001-9.806-6.797-9.806-2.827 0-6.064 1.19-9.706 3.594l-2.621 20.87c-7.139 9.329-16.655 19.492-28.25 30.094l7.669-40.094c2.077-10.862.878-15.276-6.183-13.693l-20.805 4.665-1.26 4.465 8.32 1.29c4.136.799 3.62 3.924.9 18.903l-5.339 29.414c-.084.302-.137.634-.194.97-3.462-1.86-5.644-5.172-8.154-10.191l-20.87-41.744 37.398-37.89c.623-.632 1.018-.83 1.636-.888l12.126-1.12v-7.961h-40.77v7.961l10.094.776c2.038.157 2.802.733.97 2.621l-40.87 42.131h-4.853l8.057-42.714c.195-1.551.849-2.237 2.136-2.33l10.775-.776v-7.67z"/></svg>