<svg xmlns="http://www.w3.org/2000/svg" width="192" height="192" viewBox="0 0 192 192"><path d="M162.67 16v46.667L116.003 16zm-60 0 60 60v80c0 11.08-8.92 20-20 20H49.337c-11.08 0-20-8.92-20-20V36c0-11.08 8.92-20 20-20zM69.337 129.33H56.004v6.667h13.333zm33.333 0H89.337v6.667h13.333zm15.287-8.62a6.667 6.667 0 0 0 9.427-9.427l-5.287-5.286 5.287-5.287a6.667 6.667 0 0 0-9.427-9.427l-5.287 5.287-5.286-5.287a6.667 6.667 0 1 0-9.427 9.427l5.287 5.287-5.287 5.286a6.667 6.667 0 0 0 9.427 9.427l5.286-5.287zm18.047 8.62h-13.333v6.667h13.333zm0-53.333H81.751l-12.413 31.02-4.413-11.02h-8.92v6.667h4.413l8.92 22.313 16.927-42.313h49.74z"/></svg>