<svg xmlns="http://www.w3.org/2000/svg" width="192" height="192" viewBox="0 0 192 192"><path d="M129.33 102.67h-6.667v-6.667h6.667zm0 6.667h-6.667v6.666h6.667zm0 13.333h-6.667v6.666h6.667zm-4-106.67h-9.333l46.667 46.667V16zm-22.667 0 60 60v80c0 11.08-8.92 20-20 20H49.33c-11.08 0-20-8.92-20-20V36c0-11.08 8.92-20 20-20zM55.996 89.333c0 3.68 8.953 6.666 20 6.666s20-2.986 20-6.666v-6.667c0-3.68-8.953-6.667-20-6.667s-20 2.987-20 6.667zm0 13.333c0 3.68 8.953 6.666 20 6.666s20-2.986 20-6.666v-6.667c0 3.68-8.953 6.667-20 6.667s-20-2.987-20-6.667zm0 13.333c0 3.68 8.953 6.666 20 6.666s20-2.986 20-6.666v-6.667c0 3.68-8.953 6.667-20 6.667s-20-2.987-20-6.667zm0 13.333c0 3.68 8.953 6.666 20 6.666s20-2.986 20-6.666v-6.667c0 3.68-8.953 6.667-20 6.667s-20-2.987-20-6.667zm80-40h-33.333v46.667h33.333zm-20 6.666h-6.667v6.667h6.667zm0 26.667h-6.667v6.667h6.667zm0-13.333h-6.667V116h6.667z"/></svg>