<svg xmlns="http://www.w3.org/2000/svg" width="192" height="192" viewBox="0 0 192 192"><path d="M125.1 16.001a3.98 3.98 0 0 0-3.7 2.347 3.88 3.88 0 0 0 .853 4.233l33.233 33.307a4.03 4.03 0 0 0 4.234.887 3.93 3.93 0 0 0 2.42-3.534V19.848a4.033 4.033 0 0 0-3.907-3.846zm-91.36 0a3.933 3.933 0 0 0-3.88 3.933v152.13a3.933 3.933 0 0 0 3.88 3.934h124.47a3.933 3.933 0 0 0 3.933-3.934v-97.96a3.93 3.93 0 0 0-1.133-2.8l-53.846-54.093a3.93 3.93 0 0 0-2.8-1.206zm3.933 7.893H102.7l51.553 51.8v92.42H37.672z"/></svg>