<svg xmlns="http://www.w3.org/2000/svg" width="192" height="192" viewBox="0 0 192 192"><path d="M76 102.67H62.667v-6.667H76zm40-20h-13.333v6.667H116zm-40 0H62.667v6.667H76zm20 0H82.667v6.667H96zm20-66.667 46.667 46.667V16.003zm-40 93.333H62.667v6.667H76zm33.333 20H116v-20h-6.667zm13.333 0h6.667v-6.667h-6.667zm-26.667 0h6.667v-13.333h-6.667zm6.667-113.33 60 60v80c0 11.08-8.92 20-20 20H49.333c-11.08 0-20-8.92-20-20v-120c0-11.08 8.92-20 20-20zm33.333 86.667H89.332v33.333h46.667zm-13.333-26.667H55.999v46.667h30v-6.667h-3.334v-6.666H86v-6.667h-3.334v-6.667h13.333v3.333h6.667v-3.333h13.333v3.333h6.667z"/></svg>