<svg xmlns="http://www.w3.org/2000/svg" width="192" height="192" viewBox="0 0 192 192"><path d="M162.67 16v46.667L116.003 16zm-60 0 60 60v80c0 11.08-8.92 20-20 20H49.337c-11.08 0-20-8.92-20-20V36c0-11.08 8.92-20 20-20zm-40 113.33h-6.667v6.667h6.667zm0-13.333h-6.667v6.667h6.667zm0-13.333h-6.667v6.667h6.667zm20 26.667H69.337v6.667H82.67zm0-13.333H69.337v6.667H82.67zm0-13.333H69.337v6.667H82.67zm40-6.667v-6.666H69.337v6.666zm13.333 6.667H89.336v33.333h46.667zm0-26.667h-80v6.667h80zm-26.667 44.713 6.667 6.667 14.713-14.713-4.714-4.714-10 10-6.666-6.666-14.713 14.713 4.713 4.713z"/></svg>