<svg xmlns="http://www.w3.org/2000/svg" width="192" height="192" viewBox="0 0 192 192"><path d="M52.92 96.1A43.053 43.053 0 0 1 96 53.073 43.053 43.053 0 0 1 139.08 96.1 43.053 43.053 0 0 1 96 138.593 43.053 43.053 0 0 1 52.927 96.1zM166.2 57.747a12.313 12.313 0 0 1-16.48-2.8 68 68 0 0 0-12.513-12.5 12.287 12.287 0 0 1-2.807-16.46 80.3 80.3 0 0 1 31.8 31.76m-123.91-2.8a12.313 12.313 0 0 1-16.48 2.8 80.3 80.3 0 0 1 31.8-31.76 12.287 12.287 0 0 1-2.8 16.46 68 68 0 0 0-12.52 12.5M176 96.1a79.8 79.8 0 0 1-3.2 22.467 12.293 12.293 0 0 1-9.68-13.62 68.3 68.3 0 0 0 0-17.693 12.293 12.293 0 0 1 9.673-13.62A79.9 79.9 0 0 1 176 96.101zm-160 0c0-7.6 1.08-15.167 3.213-22.467a12.293 12.293 0 0 1 9.667 13.62 68.3 68.3 0 0 0 0 17.693 12.293 12.293 0 0 1-9.667 13.62A79.8 79.8 0 0 1 16 96.093zm118.4 70.12a12.287 12.287 0 0 1 2.8-16.467 68 68 0 0 0 12.52-12.5 12.313 12.313 0 0 1 16.48-2.8 80.3 80.3 0 0 1-31.8 31.767m-76.793 0a80.3 80.3 0 0 1-31.8-31.76 12.313 12.313 0 0 1 16.48 2.8A68 68 0 0 0 54.8 149.753a12.284 12.284 0 0 1 2.807 16.467m38.4 9.78a80 80 0 0 1-22.5-3.2 12.307 12.307 0 0 1 13.64-9.667c5.88.767 11.833.767 17.713 0a12.307 12.307 0 0 1 13.64 9.66A80 80 0 0 1 96 176zm10.04-147.05c-6.3-.907-12.587-.667-18.893-.087a12.32 12.32 0 0 1-13.647-9.666 80 80 0 0 1 22.487-3.2h.013a80 80 0 0 1 22.487 3.2 12.3 12.3 0 0 1-12.447 9.753"/></svg>