<svg xmlns="http://www.w3.org/2000/svg" width="192" height="192" viewBox="0 0 192 192"><path d="M96.003 42.174c-36.951.001-66.901 28.734-66.901 64.173a61.7 61.7 0 0 0 3.818 21.42c.375 1.02 1.36 1.682 2.448 1.682h121.27c1.088 0 2.072-.661 2.447-1.682a61.7 61.7 0 0 0 3.822-21.42c0-35.434-29.957-64.168-66.905-64.173zm-.75 8.738h.004a58.1 58.1 0 0 1 24.823 5.213 58.2 58.2 0 0 1 14.897 9.762l-17.885 15.381a34.88 34.88 0 0 0-21.538-7.084 34.9 34.9 0 0 0-26.717 12.988 34.85 34.85 0 0 0-6.744 13.65 34.9 34.9 0 0 0-.73 12.58c.182 1.463-.74 2.87-2.182 3.162l-17.576 3.572c-1.448.291-2.86-.64-3.084-2.094a58.1 58.1 0 0 1 .963-22.74 58.1 58.1 0 0 1 11.24-22.744 58.15 58.15 0 0 1 19.848-15.795 58.2 58.2 0 0 1 24.682-5.85zm43.34 18.531a58.2 58.2 0 0 1 12.76 21.701 58.2 58.2 0 0 1 2.353 25.41c-.187 1.459-1.578 2.427-3.03 2.172l-17.665-3.115c-1.448-.255-2.407-1.642-2.262-3.106a34.95 34.95 0 0 0-1.535-14.186 34.9 34.9 0 0 0-5.744-10.785zm-42.59 36.735a2.91 2.91 0 0 1 0 5.823 2.91 2.91 0 0 1-2.912-2.91 2.914 2.914 0 0 1 2.912-2.913" opacity=".3"/><path d="M16.084 112.73a81 81 0 0 0-.08 3.635c0 16.874 5.224 32.525 14.14 45.426a2.6 2.6 0 0 0 2.157 1.119h127.4c.86 0 1.667-.41 2.156-1.12 8.917-12.9 14.141-28.551 14.141-45.425q0-1.828-.08-3.635a79.6 79.6 0 0 1-14.06 41.789 2.61 2.61 0 0 1-2.157 1.121h-127.4c-.86 0-1.672-.413-2.156-1.121a79.6 79.6 0 0 1-14.06-41.789zm21.736 31.268v2.906a5.819 5.819 0 0 0 11.635 0v-2.906a5.817 5.817 0 1 1-11.635 0m14.547 0v2.906a5.817 5.817 0 1 0 11.635 0v-2.906a5.819 5.819 0 0 1-11.635 0" opacity=".6"/><path d="M95.999 36.356c-40.165 0-72.728 32.56-72.728 72.728 0 8.583 1.49 16.823 4.219 24.469a2.605 2.605 0 0 0 2.463 1.713h132.08a2.605 2.605 0 0 0 2.463-1.713c2.734-7.646 4.218-15.885 4.218-24.469 0-40.165-32.556-72.728-72.724-72.728zm.002 5.815c36.951 0 66.911 28.732 66.911 64.17a61.7 61.7 0 0 1-3.822 21.423c-.375 1.02-1.361 1.681-2.45 1.681H35.37c-1.088 0-2.072-.66-2.447-1.681a61.7 61.7 0 0 1-3.818-21.422c0-35.436 29.95-64.171 66.905-64.171z" opacity=".15"/><path d="M95.255 50.913a58.19 58.19 0 0 0-44.53 21.645 58.1 58.1 0 0 0-11.24 22.744 58.1 58.1 0 0 0-.963 22.738c.224 1.453 1.636 2.385 3.084 2.094l17.576-3.573c1.443-.291 2.364-1.698 2.182-3.162a34.93 34.93 0 0 1 19.379-35.704 34.95 34.95 0 0 1 14.812-3.51 34.87 34.87 0 0 1 21.535 7.084l17.885-15.381a58.2 58.2 0 0 0-14.895-9.762 58.1 58.1 0 0 0-24.826-5.213zm.746 1.443c.807 0 1.457.652 1.457 1.46v5.816c0 .802-.65 1.453-1.457 1.453a1.454 1.454 0 0 1-1.453-1.453v-5.817c0-.807.651-1.459 1.453-1.459m-21.137 4.207a1.46 1.46 0 0 1 1.332.903l2.229 5.373a1.453 1.453 0 0 1-2.688 1.11l-2.228-5.374a1.457 1.457 0 0 1 1.355-2.012m42.28 0c.188-.001.381.033.567.11a1.46 1.46 0 0 1 .788 1.902l-2.229 5.373a1.454 1.454 0 0 1-2.687-1.109l2.228-5.373c.23-.559.765-.898 1.332-.903m-60.23 11.98c.37 0 .743.142 1.026.426l4.114 4.113a1.455 1.455 0 1 1-2.057 2.059l-4.113-4.115a1.455 1.455 0 0 1 1.03-2.483M44.928 86.477c.189 0 .382.035.567.112l5.375 2.222a1.455 1.455 0 0 1-1.11 2.688l-5.375-2.223a1.457 1.457 0 0 1-.79-1.902 1.45 1.45 0 0 1 1.333-.897m-4.21 21.152h5.818a1.454 1.454 0 1 1 0 2.907h-5.819a1.454 1.454 0 0 1 0-2.907" opacity=".8"/><path d="m138.59 69.444-15.123 18.092a34.9 34.9 0 0 1 5.744 10.785 34.95 34.95 0 0 1 1.536 14.186c-.146 1.463.813 2.85 2.261 3.106l17.664 3.115c1.453.255 2.844-.714 3.032-2.172a58.2 58.2 0 0 0-2.354-25.41 58.2 58.2 0 0 0-12.76-21.701zm8.48 17.033a1.455 1.455 0 0 1 .547 2.799l-5.374 2.223a1.45 1.45 0 0 1-1.9-.786 1.46 1.46 0 0 1 .786-1.902l5.374-2.223a1.5 1.5 0 0 1 .568-.111zm-1.618 21.152h5.816a1.454 1.454 0 0 1 0 2.906h-5.816c-.802 0-1.46-.65-1.46-1.453s.658-1.453 1.46-1.453" opacity=".7"/><path d="M95.999 29.09C51.819 29.09 16 64.906 16 109.089c0 16.869 5.224 32.519 14.141 45.424a2.6 2.6 0 0 0 2.156 1.121h127.4c.86 0 1.667-.413 2.156-1.121 8.917-12.905 14.141-28.555 14.141-45.424 0-44.18-35.816-79.999-79.999-79.999h-.002zm0 7.266h.002c40.164 0 72.722 32.56 72.722 72.728 0 8.584-1.484 16.823-4.219 24.469a2.605 2.605 0 0 1-2.463 1.713H29.961a2.605 2.605 0 0 1-2.463-1.713 72.7 72.7 0 0 1-4.218-24.47c0-40.163 32.559-72.725 72.726-72.727zm.002 16c-.802 0-1.453.652-1.453 1.459v5.817c0 .802.651 1.453 1.453 1.453.807 0 1.457-.651 1.457-1.453v-5.817c0-.807-.65-1.46-1.457-1.46m-21.137 4.207a1.457 1.457 0 0 0-1.356 2.012l2.229 5.373a1.453 1.453 0 0 0 2.688-1.11l-2.23-5.373a1.46 1.46 0 0 0-1.331-.902m42.279 0a1.45 1.45 0 0 0-1.332.902l-2.228 5.374a1.454 1.454 0 0 0 2.688 1.11l2.228-5.374a1.46 1.46 0 0 0-.788-1.903 1.5 1.5 0 0 0-.568-.11m22.75 5.86a2.17 2.17 0 0 0-1.498.523l-46.033 39.592c-.27.24-.526.49-.75.75a7.27 7.27 0 0 0 4.39 13.067 7.27 7.27 0 0 0 6.099-3.3q.226-.229.437-.48l38.941-46.587a2.171 2.171 0 0 0-1.586-3.565m-82.98 6.121a1.455 1.455 0 0 0-1.03 2.482l4.114 4.116a1.455 1.455 0 1 0 2.057-2.059L57.94 68.97a1.45 1.45 0 0 0-1.027-.426M44.929 86.478a1.45 1.45 0 0 0-1.334.897c-.307.74.046 1.595.791 1.902l5.375 2.223c.74.307 1.588-.04 1.895-.786a1.454 1.454 0 0 0-.785-1.902l-5.376-2.223a1.5 1.5 0 0 0-.566-.111m102.14 0a1.5 1.5 0 0 0-.568.111l-5.373 2.223a1.46 1.46 0 0 0-.788 1.902 1.45 1.45 0 0 0 1.9.786l5.376-2.223a1.455 1.455 0 0 0-.547-2.799m-51.072 19.695a2.913 2.913 0 0 1 0 5.824 2.913 2.913 0 0 1 0-5.824m-55.282 1.457a1.454 1.454 0 0 0 0 2.906h5.819a1.454 1.454 0 1 0 0-2.906zm104.73 0c-.802 0-1.459.651-1.459 1.453s.657 1.453 1.459 1.453h5.817a1.454 1.454 0 0 0 0-2.906zm-101.81 30.539a5.82 5.82 0 0 1 5.819 5.822v2.907a5.817 5.817 0 1 1-11.636 0v-2.907a5.82 5.82 0 0 1 5.817-5.822m14.547 0a5.82 5.82 0 0 1 5.819 5.822v2.907a5.819 5.819 0 0 1-11.636 0v-2.907a5.82 5.82 0 0 1 5.817-5.822"/><path d="M43.637 138.17a5.82 5.82 0 0 0-5.817 5.822 5.817 5.817 0 1 0 11.636 0 5.82 5.82 0 0 0-5.819-5.822m14.547 0a5.82 5.82 0 0 0-5.817 5.822 5.817 5.817 0 1 0 11.636 0 5.82 5.82 0 0 0-5.819-5.822" opacity=".8"/><path d="M96.002 106.18a2.913 2.913 0 0 0-2.911 2.911 2.913 2.913 0 0 0 2.911 2.912 2.912 2.912 0 0 0 0-5.823" opacity=".4"/></svg>