<svg xmlns="http://www.w3.org/2000/svg" width="192" height="192"><path d="m157.65 96-29.125-29.504q-2.08-2.08-2.175-5.201t2.175-5.39q2.08-2.08 5.296-2.08t5.295 2.08l34.799 34.799q1.135 1.135 1.608 2.459.472 1.323.472 2.836t-.472 2.837q-.473 1.324-1.608 2.459l-34.799 34.799q-2.08 2.08-5.201 2.175t-5.39-2.175q-2.08-2.08-2.08-5.296t2.08-5.295zM34.34 96l29.125 29.504q2.08 2.08 2.175 5.201t-2.175 5.39q-2.08 2.08-5.296 2.08-3.215 0-5.295-2.08l-34.799-34.799q-1.135-1.135-1.608-2.459-.472-1.323-.472-2.836t.472-2.837q.473-1.324 1.608-2.459l34.799-34.799q2.08-2.08 5.2-2.175 3.122-.094 5.391 2.175 2.08 2.08 2.08 5.296t-2.08 5.295zm26.005 5.39Q58.17 99.215 58.17 96t2.175-5.39 5.39-2.175 5.39 2.175T73.3 96t-2.175 5.39-5.39 2.175-5.39-2.175m30.26 0Q88.43 99.215 88.43 96t2.175-5.39 5.39-2.175 5.39 2.175T103.56 96t-2.175 5.39-5.39 2.175-5.39-2.175m30.26 0q-2.175-2.175-2.175-5.39t2.175-5.39 5.39-2.175 5.39 2.175T133.82 96t-2.175 5.39-5.39 2.175-5.39-2.175"/></svg>