<svg xmlns="http://www.w3.org/2000/svg" width="192" height="192" viewBox="0 0 192 192"><path d="m162.17 96-32.71-33.084q-1.495-1.682-1.589-3.925t1.589-3.925 3.925-1.683 3.925 1.683l37.01 37.009q.934.934 1.308 1.869t.374 2.056-.374 2.056-1.309 1.87l-37.009 37.008q-1.682 1.682-3.925 1.682t-3.925-1.682-1.589-3.925 1.589-3.925zM29.83 96l32.71 33.084q1.495 1.682 1.589 3.925t-1.589 3.925q-1.682 1.683-3.925 1.683t-3.925-1.683L17.68 99.925q-.934-.934-1.308-1.869T15.998 96t.374-2.056 1.309-1.87L54.69 55.067q1.682-1.682 3.925-1.682t3.925 1.682 1.589 3.925-1.589 3.925zm31.682 4.58q-1.963-1.963-1.963-4.58t1.963-4.58 4.58-1.962 4.579 1.963T72.633 96t-1.962 4.58-4.58 1.962-4.579-1.963m29.907 0q-1.963-1.963-1.963-4.58t1.963-4.58 4.58-1.962 4.579 1.963T102.54 96t-1.962 4.58-4.58 1.962-4.579-1.963m29.907 0q-1.963-1.963-1.963-4.58t1.963-4.58 4.58-1.962 4.579 1.963 1.962 4.58-1.962 4.58-4.58 1.962-4.579-1.963"/></svg>