<svg xmlns="http://www.w3.org/2000/svg" width="192" height="192" viewBox="0 0 192 192"><path d="M75.653 74.653V65.12A45 45 0 0 1 78.48 65c26.147-.827 43.287 22.493 43.287 22.493s-18.493 25.673-38.333 25.673a24.5 24.5 0 0 1-7.72-1.234V82.96c10.187 1.234 12.247 5.714 18.313 15.9l13.6-11.427S97.68 74.42 80.96 74.42a40 40 0 0 0-5.307.234m0-31.567V57.34l2.827-.18c36.333-1.234 60.067 29.8 60.067 29.8s-27.2 33.093-55.533 33.093c-2.467 0-4.887-.234-7.3-.647v8.833c2 .234 4.066.414 6.066.414 26.38 0 45.467-13.487 63.953-29.387 3.06 2.473 15.6 8.42 18.2 11.013-17.553 14.72-58.48 26.56-81.687 26.56-2.233 0-4.353-.12-6.473-.354v12.427h100.23V43.081zm0 68.84v7.54C51.273 115.106 44.5 89.733 44.5 89.733s11.72-12.96 31.153-15.08v8.246H75.6c-10.187-1.24-18.2 8.3-18.2 8.3s4.533 16.08 18.26 20.733M32.373 88.665S46.8 67.352 75.706 65.112V57.34c-32.02 2.593-59.707 29.68-59.707 29.68s15.667 45.347 59.653 49.467v-8.247c-32.267-4-43.28-39.573-43.28-39.573z"/></svg>