<svg xmlns="http://www.w3.org/2000/svg" width="192" height="192" viewBox="0 0 192 192"><path d="M41 153.75V162c0 6.075 4.925 11 11 11h88c6.075 0 11-4.925 11-11v-8.25c0 6.075-4.925 11-11 11H52c-6.075 0-11-4.925-11-11" opacity=".6"/><path d="M52 19c-6.075 0-11 4.925-11 11v123.75c0 6.075 4.925 11 11 11h88c6.075 0 11-4.925 11-11V30c0-6.075-4.925-11-11-11zm8.25 13.75h71.554c3.04 0 5.5 2.46 5.5 5.5V52c0 3.04-2.46 5.5-5.5 5.5H60.25c-3.04 0-5.5-2.46-5.5-5.5V38.25c0-3.04 2.46-5.5 5.5-5.5m4.125 35.75c5.317 0 9.625 4.308 9.625 9.625s-4.308 9.625-9.625 9.625-9.625-4.308-9.625-9.625 4.308-9.625 9.625-9.625M96 68.5c5.317 0 9.625 4.308 9.625 9.625S101.317 87.75 96 87.75s-9.625-4.308-9.625-9.625S90.683 68.5 96 68.5m31.625 0c5.317 0 9.625 4.308 9.625 9.625s-4.308 9.625-9.625 9.625S118 83.442 118 78.125s4.308-9.625 9.625-9.625m-63.25 30.25c5.317 0 9.625 4.308 9.625 9.625S69.692 118 64.375 118s-9.625-4.308-9.625-9.625 4.308-9.625 9.625-9.625m31.625 0c5.317 0 9.625 4.308 9.625 9.625S101.317 118 96 118s-9.625-4.308-9.625-9.625S90.683 98.75 96 98.75m31.625 0a9.623 9.623 0 0 1 9.625 9.625v30.25c0 5.317-4.308 9.625-9.625 9.625S118 143.942 118 138.625v-30.25a9.623 9.623 0 0 1 9.625-9.625M64.375 129c5.317 0 9.625 4.308 9.625 9.625s-4.308 9.625-9.625 9.625-9.625-4.308-9.625-9.625S59.058 129 64.375 129M96 129c5.317 0 9.625 4.308 9.625 9.625s-4.308 9.625-9.625 9.625-9.625-4.308-9.625-9.625S90.683 129 96 129"/><path d="M60.25 32.75c-3.04 0-5.5 2.46-5.5 5.5V52c0 3.04 2.46 5.5 5.5 5.5h71.554c3.04 0 5.5-2.46 5.5-5.5V38.25c0-3.04-2.46-5.5-5.5-5.5z" opacity=".6"/><path d="M64.375 68.5c-5.317 0-9.625 4.308-9.625 9.625s4.308 9.625 9.625 9.625S74 83.442 74 78.125 69.692 68.5 64.375 68.5M96 68.5c-5.317 0-9.625 4.308-9.625 9.625S90.683 87.75 96 87.75s9.625-4.308 9.625-9.625S101.317 68.5 96 68.5m31.625 0c-5.317 0-9.625 4.308-9.625 9.625s4.308 9.625 9.625 9.625 9.625-4.308 9.625-9.625-4.308-9.625-9.625-9.625" opacity=".4"/><path d="M64.375 98.75c-5.317 0-9.625 4.308-9.625 9.625S59.058 118 64.375 118 74 113.692 74 108.375s-4.308-9.625-9.625-9.625m31.625 0c-5.317 0-9.625 4.308-9.625 9.625S90.683 118 96 118s9.625-4.308 9.625-9.625S101.317 98.75 96 98.75M64.375 129c-5.317 0-9.625 4.308-9.625 9.625s4.308 9.625 9.625 9.625S74 143.942 74 138.625 69.692 129 64.375 129M96 129c-5.317 0-9.625 4.308-9.625 9.625s4.308 9.625 9.625 9.625 9.625-4.308 9.625-9.625S101.317 129 96 129" opacity=".2"/><path d="M127.62 98.75a9.623 9.623 0 0 1 9.625 9.625v30.25c0 5.317-4.308 9.625-9.625 9.625s-9.625-4.308-9.625-9.625v-30.25a9.623 9.623 0 0 1 9.625-9.625" opacity=".8"/></svg>