<svg xmlns="http://www.w3.org/2000/svg" width="192" height="192" viewBox="0 0 192 192"><path d="M38.856 156v2.857a5.703 5.703 0 0 0 5.714 5.717h102.86a5.703 5.703 0 0 0 5.715-5.717V156a5.703 5.703 0 0 1-5.715 5.717H44.57A5.703 5.703 0 0 1 38.856 156m-5.714 2.83v5.714c0 6.345 5.59 11.454 12.534 11.454h100.65c6.943 0 12.534-5.108 12.534-11.454v-5.715c0 6.346-5.591 11.454-12.534 11.454H45.676c-6.943 0-12.534-5.108-12.534-11.454" opacity=".6"/><rect width="114.29" height="140" x="38.856" y="21.714" opacity=".4" rx="5.714" ry="5.718"/><path d="M83.143 44.572a4.276 4.276 0 0 0-4.286 4.286v1.428h5.715V47.43h22.858v2.857h5.714v-1.428a4.276 4.276 0 0 0-4.286-4.286zM38.857 67.43v2.857h114.29V67.43zm44.286 22.858a4.276 4.276 0 0 0-4.286 4.286v1.428h5.715v-2.857h22.858v2.857h5.714v-1.428a4.276 4.276 0 0 0-4.286-4.286zm-44.286 22.858v2.857h114.29v-2.857zm44.286 22.858a4.276 4.276 0 0 0-4.286 4.286v1.428h5.715v-2.857h22.858v2.857h5.714v-1.428a4.276 4.276 0 0 0-4.286-4.286z" opacity=".5"/><path d="M45.675 16c-6.943 0-12.534 5.108-12.534 11.454v131.38c0 6.346 5.59 11.454 12.534 11.454h100.65c6.943 0 12.534-5.108 12.534-11.454V27.454c0-6.346-5.59-11.454-12.534-11.454zm-1.105 5.714h102.86a5.703 5.703 0 0 1 5.714 5.718v131.43a5.703 5.703 0 0 1-5.714 5.717H44.57a5.703 5.703 0 0 1-5.714-5.717V27.432a5.703 5.703 0 0 1 5.714-5.718m38.572 17.143a4.276 4.276 0 0 0-4.286 4.286v5.715a4.276 4.276 0 0 1 4.286-4.286h25.715a4.276 4.276 0 0 1 4.286 4.286v-5.715c0-2.857-1.912-4.286-4.286-4.286zm1.429 8.572v2.857h.044l-.022-2.857zm-1.429 37.144a4.276 4.276 0 0 0-4.286 4.286v5.714a4.276 4.276 0 0 1 4.286-4.286h25.715a4.276 4.276 0 0 1 4.286 4.286V88.86c0-2.857-1.912-4.286-4.286-4.286zm1.429 8.572v2.857h.044l-.022-2.857zm-1.429 37.144a4.276 4.276 0 0 0-4.286 4.285v5.715a4.276 4.276 0 0 1 4.286-4.286h25.715a4.276 4.276 0 0 1 4.286 4.286v-5.715c0-2.857-1.912-4.285-4.286-4.285zm1.429 8.571v2.857h.044l-.022-2.857z"/></svg>