<svg width="192" height="192" version="1.1" viewBox="0 0 192 192" xmlns="http://www.w3.org/2000/svg"><path d="m38.856 156v2.8572c0 3.1675 2.5486 5.7172 5.7144 5.7172h102.86c3.1658 0 5.7144-2.5497 5.7144-5.7172v-2.8572c0 3.1675-2.5486 5.7172-5.7144 5.7172h-102.86c-3.1658 0-5.7144-2.5497-5.7144-5.7172zm-5.7144 2.8293v5.7144c0 6.3457 5.5907 11.454 12.534 11.454h100.65c6.943 0 12.534-5.1082 12.534-11.454v-5.7144c0 6.3457-5.5907 11.454-12.534 11.454h-100.65c-6.943 0-12.534-5.1082-12.534-11.454z" opacity=".6"/><rect x="38.856" y="21.714" width="114.29" height="140" rx="5.7144" ry="5.7175" opacity=".4"/><path d="m83.143 44.572c-2.3743 0-4.2858 1.9115-4.2858 4.2858v1.4286h5.7144v-2.8572h22.858v2.8572h5.7144v-1.4286c0-2.3743-1.9115-4.2858-4.2858-4.2858zm-44.286 22.858v2.8572h114.29v-2.8572zm44.286 22.858c-2.3743 0-4.2858 1.9115-4.2858 4.2858v1.4286h5.7144v-2.8572h22.858v2.8572h5.7144v-1.4286c0-2.3743-1.9115-4.2858-4.2858-4.2858zm-44.286 22.858v2.8572h114.29v-2.8572zm44.286 22.858c-2.3743 0-4.2858 1.9115-4.2858 4.2858v1.4286h5.7144v-2.8572h22.858v2.8572h5.7144v-1.4286c0-2.3743-1.9115-4.2858-4.2858-4.2858z" opacity=".5"/><path d="m45.675 16c-6.943 0-12.534 5.1082-12.534 11.454v131.38c0 6.3457 5.5907 11.454 12.534 11.454h100.65c6.943 0 12.534-5.1082 12.534-11.454v-131.38c0-6.3457-5.5907-11.454-12.534-11.454zm-1.1049 5.7144h102.86c3.1658 0 5.7144 2.5497 5.7144 5.7172v131.43c0 3.1675-2.5486 5.7172-5.7144 5.7172h-102.86c-3.1658 0-5.7144-2.5497-5.7144-5.7172v-131.43c0-3.1675 2.5486-5.7172 5.7144-5.7172zm38.572 17.143c-2.3743 0-4.2858 1.9115-4.2858 4.2858v5.7144c0-2.3743 1.9115-4.2858 4.2858-4.2858h25.715c2.3743 0 4.2858 1.9115 4.2858 4.2858v-5.7144c0-2.8572-1.9115-4.2858-4.2858-4.2858zm1.4286 8.5716v2.8572h0.04464l-0.02232-2.8572zm-1.4286 37.144c-2.3743 0-4.2858 1.9115-4.2858 4.2858v5.7144c0-2.3743 1.9115-4.2858 4.2858-4.2858h25.715c2.3743 0 4.2858 1.9115 4.2858 4.2858v-5.7144c0-2.8572-1.9115-4.2858-4.2858-4.2858zm1.4286 8.5716v2.8572h0.04464l-0.02232-2.8572zm-1.4286 37.144c-2.3743 0-4.2858 1.9115-4.2858 4.2858v5.7144c0-2.3743 1.9115-4.2858 4.2858-4.2858h25.715c2.3743 0 4.2858 1.9115 4.2858 4.2858v-5.7144c0-2.8572-1.9115-4.2858-4.2858-4.2858zm1.4286 8.5716v2.8572h0.04464l-0.02232-2.8572z"/></svg>
