<svg width="192" height="192" version="1.1" viewBox="0 0 192 192" xmlns="http://www.w3.org/2000/svg"><path d="m27.43 33.145c-6.3314 0-11.43 5.0978-11.43 11.43v97.143c0 6.3314 5.0978 11.43 11.43 11.43h137.14c6.3314 0 11.43-5.0978 11.43-11.43v-97.143c0-6.3314-5.0978-11.43-11.43-11.43zm0 5.7148h120c3.1657 0 5.7129 2.5491 5.7129 5.7148v97.143c0 3.1657-2.5472 5.7148-5.7129 5.7148h-120c-3.1657 0-5.7148-2.5492-5.7148-5.7148v-97.143c0-3.1657 2.5491-5.7148 5.7148-5.7148zm137.14 0.0098c3.1562-1.1e-4 5.7149 2.5586 5.7148 5.7148v8.5703h-5.7148c-3.1659 0-5.7148-2.547-5.7148-5.7129v-2.8574c-1.1e-4 -3.1562 2.5586-5.7149 5.7148-5.7148zm-5.7149 20h5.7148c3.1562-1.1e-4 5.7149 2.5586 5.7148 5.7148v2.8575c0 3.156-2.5588 5.7148-5.7148 5.7148s-5.7148-2.5588-5.7148-5.7148v-8.5722zm11.43 20v8.5742c0 3.156-2.5588 5.7148-5.7148 5.7148s-5.7148-2.5588-5.7148-5.7148v-2.8574c-1e-3 -3.157 2.5578-5.7169 5.7148-5.7168zm-5.7149 20.004c3.1555-1.11e-4 5.7139 2.5574 5.7148 5.7129v8.5722h-5.7148c-3.1659 0-5.7148-2.549-5.7148-5.7148v-2.8574c9.4e-4 -3.1555 2.5593-5.713 5.7148-5.7129z"/><path d="m80.178 55.799-17.479 40.203h-35.27v5.7148h39.014l11.094-25.512 8.4316 54.818 14.654-29.307h6.8047a2.8571 2.8571 0 0 0 2.8574-2.8574 2.8571 2.8571 0 0 0-2.8574-2.8574h-10.338l-8.2031 16.406-8.709-56.609z"/><path d="m16 141.71v5.7143c0 6.3314 5.0971 11.429 11.429 11.429h137.14c6.3314 0 11.429-5.0972 11.429-11.429v-5.7143c0 6.3314-5.0971 11.429-11.429 11.429h-137.14c-6.3314 0-11.429-5.0971-11.429-11.429z" opacity=".6"/><rect x="27.429" y="44.574" width="120" height="97.143" opacity=".15"/><path d="m107.43 96.002c1.5782-1.82e-4 2.8576 1.2792 2.8574 2.8574 4.8e-4 1.5563-1.2448 2.8267-2.8008 2.8574h39.943v-5.7148z" opacity=".3"/><path d="m27.429 38.859c-3.1657 0-5.7143 2.5486-5.7143 5.7143v97.143c0 3.1657 2.5486 5.7143 5.7143 5.7143h120c3.1657 0 5.7143-2.5486 5.7143-5.7143v-97.143c0-3.1657-2.5486-5.7143-5.7143-5.7143zm0 5.7143h120v97.143h-120z" opacity=".5"/><path d="m158.86 44.584v2.8574c0 3.1659 2.549 5.7129 5.7148 5.7129h5.7148v-2.8555h-5.7148a5.7146 5.7146 0 0 1-5.7148-5.7148zm0 20.002v2.8555c0 3.156 2.5588 5.7148 5.7148 5.7148s5.7148-2.5588 5.7148-5.7148v-2.8555a5.7146 5.7146 0 0 1-5.7148 5.7129 5.7146 5.7146 0 0 1-5.7148-5.7129zm0 20v2.8574c0 3.156 2.5588 5.7148 5.7148 5.7148s5.7148-2.5588 5.7148-5.7148v-2.8574a5.7146 5.7146 0 0 1-5.7148 5.7148 5.7146 5.7146 0 0 1-5.7148-5.7148zm0 20v2.8574c0 3.1659 2.549 5.7148 5.7148 5.7148h5.7148v-2.8574h-5.7148a5.7146 5.7146 0 0 1-5.7148-5.7148z" opacity=".6"/><path d="m164.57 38.869a5.7146 5.7146 0 0 0-5.7148 5.7148 5.7146 5.7146 0 0 0 5.7148 5.7148h5.7148v-5.7148a5.7146 5.7146 0 0 0-5.7148-5.7148zm2.8594 7.1426a1.4286 1.4286 0 0 1 1.4297 1.4297 1.4286 1.4286 0 0 1-1.4297 1.4277 1.4286 1.4286 0 0 1-1.4277-1.4277 1.4286 1.4286 0 0 1 1.4277-1.4297zm-8.5742 12.857v5.7148a5.7146 5.7146 0 0 0 5.7148 5.7168 5.7146 5.7146 0 0 0 5.7148-5.7168 5.7146 5.7146 0 0 0-5.7148-5.7148zm2.8594 1.4297a1.4286 1.4286 0 0 1 1.4297 1.4277 1.4286 1.4286 0 0 1-1.4297 1.4297 1.4286 1.4286 0 0 1-1.4277-1.4297 1.4286 1.4286 0 0 1 1.4277-1.4277zm2.8555 18.572a5.7146 5.7146 0 0 0-5.7148 5.7148 5.7146 5.7146 0 0 0 5.7148 5.7148 5.7146 5.7146 0 0 0 5.7148-5.7148v-5.7148zm2.8594 1.4277a1.4286 1.4286 0 0 1 1.4297 1.4277 1.4286 1.4286 0 0 1-1.4297 1.4277 1.4286 1.4286 0 0 1-1.4277-1.4277 1.4286 1.4286 0 0 1 1.4277-1.4277zm-2.8594 18.574a5.7146 5.7146 0 0 0-5.7148 5.7148 5.7146 5.7146 0 0 0 5.7148 5.7148h5.7148v-5.7148a5.7146 5.7146 0 0 0-5.7148-5.7148zm2.8594 7.1387a1.4286 1.4286 0 0 1 1.4297 1.4277 1.4286 1.4286 0 0 1-1.4297 1.4297 1.4286 1.4286 0 0 1-1.4277-1.4297 1.4286 1.4286 0 0 1 1.4277-1.4277z" opacity=".8"/><path d="m167.43 46.012a1.4286 1.4286 0 0 0-1.4277 1.4296 1.4286 1.4286 0 0 0 1.4277 1.4277 1.4286 1.4286 0 0 0 1.4296-1.4277 1.4286 1.4286 0 0 0-1.4296-1.4296zm-5.7147 14.287a1.4286 1.4286 0 0 0-1.4277 1.4277 1.4286 1.4286 0 0 0 1.4277 1.4296 1.4286 1.4286 0 0 0 1.4296-1.4296 1.4286 1.4286 0 0 0-1.4296-1.4277zm5.7147 19.999a1.4286 1.4286 0 0 0-1.4277 1.4277 1.4286 1.4286 0 0 0 1.4277 1.4296 1.4286 1.4286 0 0 0 1.4296-1.4296 1.4286 1.4286 0 0 0-1.4296-1.4277zm0 25.714a1.4286 1.4286 0 0 0-1.4277 1.4277 1.4286 1.4286 0 0 0 1.4277 1.4296 1.4286 1.4286 0 0 0 1.4296-1.4296 1.4286 1.4286 0 0 0-1.4296-1.4277z" opacity=".4"/></svg>
