<svg xmlns="http://www.w3.org/2000/svg" width="192" height="192"><path d="M86.6 176q-5.4 0-9.3-3.6t-4.7-8.8l-1.8-13.2q-2.6-1-4.9-2.4t-4.5-3L49 150.2q-5 2.2-10 .4t-7.8-6.4l-9.4-16.4q-2.8-4.6-1.6-9.8t5.4-8.6l10.6-8q-.2-1.4-.2-2.7v-5.4q0-1.3.2-2.7l-10.6-8q-4.2-3.4-5.4-8.6t1.6-9.8l9.4-16.4q2.8-4.6 7.8-6.4t10 .4L61.4 47q2.2-1.6 4.6-3t4.8-2.4l1.8-13.2q.8-5.2 4.7-8.8t9.3-3.6h18.8q5.4 0 9.3 3.6t4.7 8.8l1.8 13.2q2.6 1 4.9 2.4t4.5 3l12.4-5.2q5-2.2 10-.4t7.8 6.4l9.4 16.4q2.8 4.6 1.6 9.8t-5.4 8.6l-10.6 8q.2 1.4.2 2.7v5.4q0 1.3-.4 2.7l10.6 8q4.2 3.4 5.4 8.6t-1.6 9.8l-9.6 16.4q-2.8 4.6-7.8 6.4t-10-.4l-12-5.2q-2.2 1.6-4.6 3t-4.8 2.4l-1.8 13.2q-.8 5.2-4.7 8.8t-9.3 3.6zm1.4-16h15.8l2.8-21.2q6.2-1.6 11.5-4.7t9.7-7.5l19.8 8.2 7.8-13.6-17.2-13q1-2.8 1.4-5.9t.4-6.3-.4-6.3-1.4-5.9l17.2-13-7.8-13.6-19.8 8.4q-4.4-4.6-9.7-7.7t-11.5-4.7L104 32H88.2l-2.8 21.2q-6.2 1.6-11.5 4.7t-9.7 7.5l-19.8-8.2-7.8 13.6 17.2 12.8q-1 3-1.4 6T52 96q0 3.2.4 6.2t1.4 6l-17.2 13 7.8 13.6 19.8-8.4q4.4 4.6 9.7 7.7t11.5 4.7zm8.4-36q11.6 0 19.8-8.2t8.2-19.8-8.2-19.8T96.4 68q-11.8 0-19.9 8.2T68.4 96t8.1 19.8 19.9 8.2"/></svg>