<svg xmlns="http://www.w3.org/2000/svg" width="192" height="192" viewBox="0 0 192 192"><path d="M124.59 22.681a10.3 10.3 0 0 0-3.066.343l-11.188 2.998h21.426a10.3 10.3 0 0 0-7.171-3.341zM41.403 44.494l-9 2.413c-5.472 1.467-8.716 7.089-7.255 12.555l11.58 43.215 4.675-17.446zm112.78 60.781v46.981l1.842-.493c5.472-1.467 8.716-7.088 7.249-12.555zm-14.107 19.887c.17.203.319.422.478.633-.16-.211-.309-.43-.478-.633m1.8 2.64c.142.26.261.532.39.8-.129-.268-.248-.54-.39-.8m1.952 6.203c.029.268.034.542.05.813-.016-.271-.021-.545-.05-.813m-48.423 17.08a17 17 0 0 1-1.917.678 17 17 0 0 0 1.73-.608c.06-.026.126-.044.187-.07m37.304.43c-.098.035-.192.078-.29.11q.024-.005.047-.012c.084-.027.16-.069.243-.097m-.298.113a17 17 0 0 1-1.572.426c.35-.077.69-.175 1.031-.273.18-.052.364-.095.541-.153m-38.932.138q-.324.092-.653.173c.138-.035.283-.053.42-.09.08-.023.154-.06.233-.083m30.394.328q.251.054.506.1c.24.042.485.063.728.095-.415-.055-.829-.11-1.234-.195m-38.09.055c.3.056.597.12.903.16.055.007.114.003.17.01-.362-.043-.72-.104-1.074-.17m44.457.012q-.455.086-.918.145c.062-.008.127-.004.19-.012.246-.033.486-.089.728-.133m-38.494.008q-.336.06-.676.108c.089-.012.182-.007.27-.02.138-.021.27-.063.406-.088m-4.886.15.003.002h.002zm38.814.046c.045.004.088.013.133.017q.725.065 1.464.065c-.538 0-1.07-.032-1.597-.082m-70.95 17.19c1.9 4.758 7.103 7.453 12.172 6.093l22.734-6.092z" opacity=".2"/><path d="M67.411 16.008c-4.366.175-8.302 3.15-9.494 7.592l-.648 2.422h49.294l-36.091-9.671a10.2 10.2 0 0 0-3.061-.343m86.767 22.777v61.306l12.675-47.299c1.462-5.467-1.782-11.088-7.254-12.555zM41.398 85.231l-12.675 47.304c-1.462 5.467 1.782 11.088 7.254 12.555l5.421 1.452zm101.24 16.402q-.21 0-.413.023-.012.001-.022.004.215-.025.438-.025h.003v-.002zm-.436.028q-.036.003-.072.01-.156.02-.308.052l-.04.01q.206-.047.42-.072m-.42.072-.068.018zm-2.966 3.355a4 4 0 0 0-.023.39v6.407h.003v-6.405q0-.198.02-.393zm5.101.31q.003.038.002.08v30.137l.003.172v-30.303q-.001-.043-.005-.085zm-86.113.595c-.05.002-.1.014-.15.018q.183-.011.365-.01c-.071 0-.143-.01-.215-.007zm.6.02q.145.008.289.023c-.033-.004-.065-.015-.098-.018h-.002c-.063-.006-.126 0-.188-.005m.289.023q.311.034.618.1a6 6 0 0 0-.536-.095h-.007zm-1.642.045c-.033.005-.065.004-.098.01v.002c.033-.006.065-.007.098-.012m-1.542.49a6 6 0 0 0-.72.403v.003c.232-.155.474-.287.72-.406m33.307 12.555c-.034 0-.066.007-.1.008.034 0 .066-.005.1-.005.435 0 .854.033 1.274.063-.42-.03-.839-.065-1.274-.065zm38.444 0c-.045 0-.085.01-.13.01.045 0 .087-.008.133-.008zm12.808 6.035c.17.204.319.422.478.633-.16-.21-.309-.43-.478-.633m-25.78.288c-.038.048-.08.092-.116.14q-.158.204-.31.413c-.106.148-.193.305-.293.456.228-.343.464-.682.718-1.009m-1.235 1.81c-.057.096-.128.185-.183.283-.16.282-.29.578-.433.868.193-.39.394-.775.616-1.151m28.814.543c.142.259.262.532.39.798-.128-.267-.247-.539-.39-.798m-68.237 1.181c-.028.062-.068.118-.095.18l-.025.068c.036-.084.082-.164.12-.248m-.123.253c-.145.337-.267.686-.39 1.034-.06.167-.129.328-.183.498q.25-.783.573-1.532m69.636 1.55c.076.237.13.483.196.725-.065-.242-.12-.488-.196-.726m.676 3.218c.029.268.034.542.05.814-.015-.272-.02-.546-.05-.814m-33.916 2.278q-.056.059-.115.113.06-.055.115-.113m-2.383.74q.075.016.15.026l-.03-.005-.09-.015zm.826.036q-.12.011-.242.01h-.133l-.098-.005c.035 0 .068.008.103.008h.12q.127 0 .25-.013M71.3 139.63v.002h1.31v-.002z" opacity=".4"/><path d="M154.18 149.1a10.227 10.227 0 0 1-10.252 10.2H46.531c-3.004 0-5.126 2.503-5.126 4.81v.632a4.81 4.81 0 0 0 4.81 4.81h97.713c5.661 0 10.252-4.59 10.252-10.252z" opacity=".6"/><path d="m117.97 26.023.32.318v25.313c0 5.682 4.57 10.252 10.252 10.252h20.244c1.763 0 3.604 1.254 4.626 2.66l.002.003.71 1.502q.043.478.048.961V36.275c0-5.682-4.57-10.252-10.252-10.252zM46.6 92.662c-2.693 0-5.201 2.559-5.201 5.127v66.324c0-2.308 2.123-4.81 5.127-4.81h97.396c5.682 0 10.252-4.57 10.252-10.253V92.661zm12.74 7.69h76.893c1.417 0 2.563 1.147 2.563 2.564s-1.146 2.562-2.563 2.562H59.34c-1.417 0-2.562-1.145-2.562-2.562s1.145-2.565 2.562-2.565m83.295 1.28h.008a3.846 3.846 0 0 1 3.844 3.846v41.842h-7.229c-3.033 3.16-7.293 5.127-11.994 5.127s-8.96-1.968-11.994-5.127h-14.455c-3.033 3.159-7.293 5.127-11.994 5.127s-8.96-1.968-11.994-5.127H69.6v-5.593l-1.83-2.93Q60.392 127 53.019 115.2c-1.721-2.759-.938-6.423 1.771-8.227a5.8 5.8 0 0 1 2.166-.883c2.26-.425 4.67.497 6.02 2.52l2.562 3.844-1.066.71h71.762c1.416 0 2.562 1.149 2.562 2.565s-1.146 2.563-2.562 2.563H59.34c-.748 0-1.42-.32-1.889-.83l5.324 8.519h12.592c3.036-4.15 7.94-6.855 13.451-6.855 6.062 0 10.691 2.976 13.514 7.033-.04-.058-.074-.12-.115-.178h11.646c2.832-3.968 7.422-6.855 13.396-6.855 9.17 0 16.66 7.494 16.66 16.66v-30.31a1.283 1.283 0 0 0-2.564 0v6.409h-2.563v-6.408a3.846 3.846 0 0 1 3.842-3.846zm-84.551 6.907a3.33 3.33 0 0 0-1.871.568 3.463 3.463 0 0 0-1.022 4.739l1.766 2.828a2.56 2.56 0 0 1 2.383-3.506h3.59c.988 1.478-1.765-2.65-2.088-3.135a3.32 3.32 0 0 0-2.758-1.494m30.732 15.715c-1.278 0-3.152.215-5.115 1.181.771.209 1.583.369 2.412.479 1.992.16 3.763.135 4.955-.336q.72-.375 1.416-.726a11.7 11.7 0 0 0-3.668-.598m38.447 0c-.526 0-1.037.046-1.543.113 1.196.198 2.5.229 3.834.117-.74-.147-1.505-.23-2.291-.23m-67.924 1.73h.414l3.203 5.125H59.34a2.56 2.56 0 0 1-2.563-2.562 2.56 2.56 0 0 1 2.563-2.563m59.861 1.54a11.5 11.5 0 0 0-2.246 3.08c1.673.945 3.588 1.679 5.584 2.253 2.818.711 5.833.835 8.797.46 2.338-.314 4.604-.91 6.615-1.874a11.5 11.5 0 0 0-2.186-3.472q-.086-.092-.175-.182.17.176.334.36c-1.503.659-3.244 1.092-5.078 1.359-2.524.305-5.068.21-7.375-.38-1.517-.493-2.966-1.018-4.27-1.604m-21.85.5c-1.38.876-3.007 1.687-4.703 2.43-2.053.715-4.55.81-7.139.55-2.192-.273-4.322-.844-6.215-1.734a11.4 11.4 0 0 0-1.613 3.484c2.289 1.072 4.806 1.756 7.379 2.07 3.039.336 6.082.185 8.775-.717 2.022-.765 3.948-1.772 5.518-3.013a11.5 11.5 0 0 0-2.002-3.07m7.227 2.638a17 17 0 0 1 .824 3.854c.125 1.407 1.166 2.552 2.578 2.552h.12c1.41 0 2.45-1.146 2.575-2.552.102-1.14.326-2.284.666-3.406h-6.607c-.046-.151-.106-.298-.156-.448m-38.602.447 4.804 7.69h1.653a16.55 16.55 0 0 1 .393-7.69zm49.76 4.5c-.001.06-.01.119-.01.178 0 2.348.689 4.524 1.879 6.34h.001q1.22.44 2.448.678a34.1 34.1 0 0 0 12.586.685 32 32 0 0 0 3.781-.693 11.47 11.47 0 0 0 2.326-6.117c-2.17.871-4.458 1.43-6.758 1.724-3.549.456-7.199.3-10.693-.572-1.928-.463-3.828-1.188-5.56-2.223m-15.416.877c.005-.003-3.152 1.956-4.905 2.498-3.549 1.147-7.323 1.368-10.963.932a29.6 29.6 0 0 1-6.91-1.666 11.48 11.48 0 0 0 3.836 6.379c.818.16 1.644.27 2.47.373 4.241.54 8.743.25 13.149-1.143q.049-.01.097-.023h.006a11.48 11.48 0 0 0 3.22-7.35M59.337 138.8h8.425l1.83 2.928v2.199H59.338a2.56 2.56 0 0 1-2.563-2.565 2.56 2.56 0 0 1 2.563-2.562z" opacity=".9"/><path d="M51.654 26.023c-5.662 0-10.252 3.945-10.252 8.81V97.79c0-2.568 2.508-5.127 5.201-5.127h107.57v-25.63q-.006-.484-.047-.962l-.711-1.502-.002-.002c-1.023-1.407-2.863-2.66-4.626-2.66h-20.244a10.227 10.227 0 0 1-10.252-10.253V26.341l-.32-.318H51.65zm8.976 35.883h41.009a3.84 3.84 0 0 1 3.844 3.845 3.84 3.84 0 0 1-3.844 3.844h-41.01a3.846 3.846 0 0 1 0-7.689m-1.282 15.378h17.936a2.56 2.56 0 0 1 2.563 2.563 2.56 2.56 0 0 1-2.563 2.563H59.348a2.565 2.565 0 0 1-2.563-2.563 2.565 2.565 0 0 1 2.563-2.563" opacity=".6"/><path d="m150.33 58.061-32.038-32.038v25.631c0 5.682 4.57 10.252 10.252 10.252h20.244c2.823 0 5.847 3.219 5.386 5.126a12.74 12.74 0 0 0-3.844-8.97z"/><path d="M59.349 77.284h17.936a2.56 2.56 0 0 1 2.563 2.563 2.56 2.56 0 0 1-2.563 2.563H59.349a2.565 2.565 0 0 1-2.563-2.563 2.565 2.565 0 0 1 2.563-2.563" opacity=".75"/><path d="M59.344 100.35c-1.417 0-2.563 1.146-2.563 2.563s1.146 2.563 2.563 2.563h76.892c1.417 0 2.563-1.146 2.563-2.563s-1.146-2.563-2.563-2.563zm0 12.815a2.562 2.562 0 0 0-2.38 3.514l.48.771.003.003a2.56 2.56 0 0 0 1.897.839h76.892c1.417 0 2.563-1.147 2.563-2.563s-1.146-2.564-2.563-2.564H64.472l-1.066.711-.473-.71zm66.327 11.193a11.47 11.47 0 0 0-6.47 3.159c1.306.587 2.756 1.114 4.275 1.607 2.308.59 4.85.685 7.374.38 1.834-.267 3.576-.7 5.078-1.359a11.47 11.47 0 0 0-6.345-3.664c-1.362.115-2.695.084-3.912-.123m-33.173.486q-.7.354-1.427.73c-1.191.471-2.963.496-4.956.336-.83-.11-1.64-.27-2.413-.478a11.5 11.5 0 0 0-4.412 3.83c1.895.893 4.028 1.465 6.224 1.739 2.589.26 5.087.165 7.14-.55 1.698-.744 3.328-1.557 4.71-2.436a11.47 11.47 0 0 0-4.866-3.171m-33.155 1.136a2.56 2.56 0 0 0-2.563 2.563 2.56 2.56 0 0 0 2.563 2.563h3.617l-3.204-5.126zm3.432 0 3.203 5.126h6.854a16.6 16.6 0 0 1 2.535-5.126zm39.444 0a17.7 17.7 0 0 1 2.518 5.126h6.608a17.7 17.7 0 0 1 2.52-5.126zm14.73 4.616a11.54 11.54 0 0 0-1.217 5.005c1.735 1.038 3.638 1.765 5.57 2.228 3.493.871 7.143 1.026 10.692.57 2.305-.293 4.597-.854 6.77-1.729q.034-.438.033-.886c0-1.54-.297-3.007-.838-4.348-2.012.965-4.281 1.564-6.62 1.878-2.964.375-5.978.25-8.796-.461-2-.576-3.919-1.31-5.594-2.258zm-17.584.49c-1.572 1.243-3.503 2.252-5.527 3.019-2.693.9-5.737 1.051-8.776.716-2.575-.314-5.091-.997-7.381-2.07a11.7 11.7 0 0 0-.398 3.034c0 .846.09 1.67.26 2.463a29.6 29.6 0 0 0 6.914 1.664c3.639.436 7.414.215 10.963-.931a15.8 15.8 0 0 0 4.91-2.506q.02-.342.02-.69c0-1.676-.351-3.266-.986-4.699zm-40.022 7.71a2.562 2.562 0 1 0 0 5.126h10.255v-2.198l-1.83-2.929zm11.44 0 .521.833h1.31a17 17 0 0 1-.176-.834zm46.827 3.328a11.49 11.49 0 0 0 9.654 5.194c3.76 0 7.082-1.77 9.183-4.528a32 32 0 0 1-3.802.696 34.1 34.1 0 0 1-12.585-.686 16.4 16.4 0 0 1-2.45-.676m-20.507 1.707q-.05.014-.1.025c-4.406 1.392-8.909 1.682-13.15 1.142a34 34 0 0 1-2.473-.373 11.5 11.5 0 0 0 7.434 2.693c3.264 0 6.196-1.332 8.288-3.487z" opacity=".4"/><path d="M60.63 61.906h41.009a3.84 3.84 0 0 1 3.845 3.845 3.84 3.84 0 0 1-3.845 3.844H60.63a3.846 3.846 0 0 1 0-7.689"/></svg>