<svg xmlns="http://www.w3.org/2000/svg" width="192" height="192" viewBox="0 0 192 192"><path d="M19 144.09v2.787a11 11 0 0 0 11 11h2.754v-2.748h-2.768c-6.084 0-10.984-4.927-10.984-11.039zm154 0c0 6.112-4.9 11.039-10.984 11.039h-11.012v2.748H162a11 11 0 0 0 11-11zM41 155.129v2.748h5.5v-2.748zm13.75 0v2.748h5.5v-2.748zm13.75 0v2.748H74v-2.748zm13.75 0v2.748h5.5v-2.748zm13.75 0v2.748h5.5v-2.748zm13.75 0v2.748h5.496v-2.748zm13.746 0v2.748H129v-2.748zm13.754 0v2.748h5.5v-2.748z" opacity=".6"/><path d="M29.984 34.125C23.9 34.125 19 39.05 19 45.162v98.926c0 6.112 4.9 11.039 10.984 11.039h132.03c6.084 0 10.984-4.927 10.984-11.039V45.162c0-6.112-4.9-11.037-10.984-11.037h-5.516c0 6.075-4.924 11-11 11s-11-4.925-11-11H29.988zm71.516 5.5h5.5v11h-5.5zm8.25 0h5.5v11h-5.5zm8.25 0h5.5v11H118zm-53.625 8.25c.993 0 2.004.323 2.803 1.033a3.93 3.93 0 0 1 1.103 1.717h14.537l4.932 4.93v14.32h1.375A4.125 4.125 0 0 1 93.25 74v27.5a4.125 4.125 0 0 1-4.125 4.125H87.75v4.125c0 .73-.56 1.32-1.276 1.37a1.37 1.37 0 0 0 1.282-1.37v4.93l19.25 19.25v3.386a4.11 4.11 0 0 1 2.75 3.887v13.922h-8.25v-13.922c0-1.8 1.146-3.324 2.75-3.887v-2.248l-19.25-19.25v-5.94a1 1 0 0 1-.006-.128v-4.125h-2.75v4.125c0 .73-.56 1.32-1.276 1.37a1.37 1.37 0 0 0 1.282-1.37v13.18l11 11v3.386a4.11 4.11 0 0 1 2.75 3.887v13.922h-8.25v-13.922c0-1.8 1.146-3.323 2.75-3.887v-2.248l-11-11V109.88a1 1 0 0 1-.006-.129v-4.125h-2.75v4.125c0 .73-.56 1.321-1.276 1.372a1.37 1.37 0 0 0 1.281-1.372v18.68l2.75 2.75v6.137a4.11 4.11 0 0 1 2.75 3.887v13.922h-8.25v-13.922c0-1.8 1.146-3.323 2.75-3.887v-4.998l-2.75-2.75v-19.69a1 1 0 0 1-.005-.129v-4.125h-2.75v4.125c0 .73-.56 1.321-1.276 1.371a1.37 1.37 0 0 0 1.281-1.37v14.32l-5.5 5.5v7.747a4.11 4.11 0 0 1 2.75 3.885v13.922h-8.25v-13.922a4.11 4.11 0 0 1 2.75-3.885v-8.886l5.5-5.5V109.88a1 1 0 0 1-.005-.13v-4.124h-2.75v4.125c0 .73-.56 1.32-1.276 1.37a1.37 1.37 0 0 0 1.281-1.37v11.566l-13.75 13.75v2.252a4.11 4.11 0 0 1 2.75 3.884v13.922h-8.25v-13.922a4.11 4.11 0 0 1 2.75-3.884v-3.387l13.75-13.75v-10.303a1 1 0 0 1-.005-.129v-4.125h-2.75v4.125c0 .73-.56 1.32-1.276 1.371a1.37 1.37 0 0 0 1.281-1.371v7.441l-7.68 7.682h-6.874l-7.446 7.445v4.998a4.11 4.11 0 0 1 2.75 3.887v13.922h-8.25v-13.922c0-1.8 1.146-3.323 2.75-3.887v-6.136l9.055-9.055h6.875l6.07-6.07v-6.176a1 1 0 0 1-.006-.13v-4.124h-1.375A4.125 4.125 0 0 1 52 101.5V74a4.125 4.125 0 0 1 4.125-4.125H57.5v-8.25h-4.341a3.94 3.94 0 0 1-1.106 1.717c-.799.71-1.81 1.033-2.803 1.033s-2.003-.323-2.802-1.033c-.8-.71-1.323-1.832-1.323-3.092s.524-2.382 1.323-3.092 1.81-1.033 2.802-1.033c.993 0 2.004.323 2.803 1.033a3.95 3.95 0 0 1 1.106 1.717h14.535l3.556 3.555v7.445H74V59.443l-5.81-5.81a3.9 3.9 0 0 1-1.012 1.459c-.8.71-1.81 1.033-2.803 1.033s-2.003-.323-2.802-1.033c-.8-.71-1.323-1.831-1.323-3.092s.524-2.381 1.323-3.092c.799-.71 1.81-1.033 2.802-1.033m0 2.75c-.382 0-.746.136-.979.342S63 51.427 63 52s.164.827.396 1.033c.233.206.597.342.979.342s.746-.136.979-.342.396-.46.396-1.033-.164-.827-.396-1.033c-.233-.206-.597-.342-.979-.342m7.443 2.75 4.932 4.93v11.57h2.75V58.07l-4.695-4.694zm6.875 0 3.557 3.555v12.945H85V56.693l-3.32-3.319zm48.932 2.744c1.26 0 2.382.523 3.092 1.322.71.8 1.033 1.81 1.033 2.803s-.322 2.006-1.033 2.805-1.831 1.32-3.092 1.32c-2.26 0-4.125-1.862-4.125-4.125s1.863-4.125 4.125-4.125m11 0c1.26 0 2.382.521 3.092 1.32.38.428.648.917.817 1.43h2.162l3.554 3.555v12.14l-3.554 3.556h-2.162a4 4 0 0 1-.817 1.43c-.71.798-1.831 1.32-3.092 1.32-2.26 0-4.125-1.863-4.125-4.126 0-2.261 1.864-4.124 4.125-4.124 1.26 0 2.382.523 3.092 1.322.38.427.648.914.817 1.428h1.023l1.943-1.944v-9.861l-1.943-1.945h-1.023a4 4 0 0 1-.817 1.43c-.71.798-1.831 1.32-3.092 1.32-2.26 0-4.125-1.863-4.125-4.126 0-2.261 1.864-4.124 4.125-4.124zm-11 2.75c-.776 0-1.375.598-1.375 1.375 0 .779.598 1.375 1.375 1.375.573 0 .827-.164 1.034-.396.206-.232.341-.597.341-.979s-.135-.744-.341-.976c-.207-.233-.46-.399-1.034-.399m11 0c-.776 0-1.375.598-1.375 1.375 0 .779.598 1.375 1.375 1.375.573 0 .827-.164 1.034-.396.206-.232.341-.597.341-.979s-.135-.744-.341-.976c-.207-.233-.46-.399-1.034-.399m-89.375.006c-.382 0-.746.136-.978.342s-.397.46-.397 1.033.165.827.397 1.033.596.342.978.342.747-.136.979-.342.396-.46.396-1.033-.164-.827-.396-1.033-.597-.342-.979-.342m11 2.75v8.25H63v-8.25zm5.5 0v8.25h2.75v-6.306l-1.945-1.944zm-30.25 8.25h11v2.75h-11zM113.875 74a1.37 1.37 0 0 1 1.375 1.375H118c0-.763.612-1.375 1.375-1.375s1.375.612 1.375 1.375h2.75c0-.763.612-1.375 1.375-1.375s1.375.612 1.375 1.375a2.75 2.75 0 0 1 2.75 2.75v13.75a2.75 2.75 0 0 1-2.75 2.75v2.75c0 .763-.611 1.375-1.375 1.375s-1.375-.612-1.375-1.375v-2.75h-2.75v2.75c0 .763-.611 1.375-1.375 1.375S118 98.138 118 97.375v-2.75h-2.75v2.75c0 .763-.611 1.375-1.375 1.375s-1.375-.612-1.375-1.375v-2.75a2.75 2.75 0 0 1-2.75-2.75v-13.75a2.75 2.75 0 0 1 2.75-2.75A1.37 1.37 0 0 1 113.875 74m24.744 1.37c-.776 0-1.375.597-1.375 1.374 0 .78.598 1.375 1.375 1.375.573 0 .83-.164 1.036-.396s.34-.597.34-.979-.134-.744-.34-.976c-.207-.233-.463-.399-1.036-.399m-103.12.005h11v8.25h-11zm0 11h11v2.75h-11zm103.12 5.5c.993 0 2.006.323 2.805 1.033s1.32 1.831 1.32 3.092-.52 2.381-1.32 3.092c-.799.71-1.812 1.033-2.805 1.033s-2.003-.323-2.802-1.033c-.8-.71-1.323-1.832-1.323-3.092s.524-2.382 1.323-3.092 1.81-1.033 2.802-1.033m0 2.75c-.382 0-.744.136-.976.342s-.399.46-.399 1.033.167.827.399 1.033.594.342.976.342.747-.136.979-.342.396-.46.396-1.033-.164-.827-.396-1.033-.597-.342-.979-.342m-114.12 8.25h11v2.75h-11zm86.625 0c.993 0 2.004.325 2.803 1.035.8.71 1.322 1.83 1.322 3.09s-.523 2.381-1.322 3.092a4 4 0 0 1-1.428.816v1.024l8.25 8.25v17.135a4.11 4.11 0 0 1 2.75 3.886v13.922h-8.25v-13.922c0-1.8 1.146-3.323 2.75-3.886v-15.998l-8.25-8.25v-2.16c-.513-.169-1-.437-1.427-.817-.8-.71-1.323-1.831-1.323-3.092s.524-2.381 1.323-3.092c.799-.71 1.81-1.033 2.802-1.033m11 0c.993 0 2.006.323 2.805 1.033s1.32 1.831 1.32 3.092-.52 2.381-1.32 3.092c-.427.38-.916.648-1.43.816v1.022l1.946 1.945h9.861l1.943-1.945v-1.022c-.513-.168-1-.436-1.427-.816-.8-.71-1.323-1.832-1.323-3.092s.524-2.382 1.323-3.092 1.81-1.033 2.802-1.033 2.006.323 2.805 1.033 1.32 1.831 1.32 3.092-.52 2.381-1.32 3.092c-.427.38-.916.648-1.43.816v2.16l-3.554 3.557h-12.14l-3.556-3.557v-2.16c-.513-.168-1-.436-1.428-.816-.799-.71-1.322-1.832-1.322-3.092s.523-2.382 1.322-3.092c.8-.71 1.81-1.033 2.803-1.033m28.875 0h11v24.75h-11zm-39.875 2.75c-.382 0-.746.136-.978.342s-.397.46-.397 1.033.165.827.397 1.033.596.342.978.342.747-.136.979-.342.396-.46.396-1.033-.164-.827-.396-1.033-.597-.342-.979-.342m11 0c-.382 0-.746.136-.978.342s-.397.46-.397 1.033.165.827.397 1.033.596.342.978.342.747-.136.979-.342.396-.46.396-1.033-.164-.827-.396-1.033-.597-.342-.979-.342m16.5 0c-.382 0-.746.136-.978.342s-.397.46-.397 1.033.165.827.397 1.033.596.342.978.342.747-.136.979-.342.396-.46.396-1.033-.164-.827-.396-1.033-.597-.342-.979-.342m-114.12 2.75h11v8.25h-11zm108.63 28.709a4.114 4.114 0 0 1 4.125 4.12v13.921h-8.25v-13.922a4.114 4.114 0 0 1 4.125-4.119m13.75 0a4.114 4.114 0 0 1 4.125 4.12v13.921h-8.25v-13.922a4.114 4.114 0 0 1 4.125-4.119"/><path d="M109.75 89.125v2.75a2.75 2.75 0 0 0 2.75 2.75h13.75a2.75 2.75 0 0 0 2.75-2.75v-2.75a2.75 2.75 0 0 1-2.75 2.75H112.5a2.75 2.75 0 0 1-2.75-2.75M52 98.75v2.75a4.125 4.125 0 0 0 4.125 4.125h33a4.125 4.125 0 0 0 4.125-4.125v-2.75a4.125 4.125 0 0 1-4.125 4.125h-33A4.125 4.125 0 0 1 52 98.75" opacity=".6"/><path d="M58.875 65.745A1.37 1.37 0 0 0 57.5 67.12v2.755h2.75V67.12a1.37 1.37 0 0 0-1.375-1.375m5.5 0A1.37 1.37 0 0 0 63 67.12v2.755h2.75V67.12a1.37 1.37 0 0 0-1.375-1.375m5.5 0A1.37 1.37 0 0 0 68.5 67.12v2.755h2.75V67.12a1.37 1.37 0 0 0-1.375-1.375m5.5 0A1.37 1.37 0 0 0 74 67.12v2.755h2.75V67.12a1.37 1.37 0 0 0-1.375-1.375m5.5 0A1.37 1.37 0 0 0 79.5 67.12v2.755h2.75V67.12a1.37 1.37 0 0 0-1.375-1.375m5.5 0A1.37 1.37 0 0 0 85 67.12v2.755h2.75V67.12a1.37 1.37 0 0 0-1.375-1.375m27.5 8.255a1.37 1.37 0 0 0-1.375 1.375h2.75A1.37 1.37 0 0 0 113.875 74m5.5 0A1.37 1.37 0 0 0 118 75.375h2.75A1.37 1.37 0 0 0 119.375 74m5.5 0a1.37 1.37 0 0 0-1.375 1.375h2.75A1.37 1.37 0 0 0 124.875 74M112.5 94.625v2.75c0 .764.612 1.375 1.375 1.375s1.375-.611 1.375-1.375v-2.75zm5.5 0v2.75c0 .764.612 1.375 1.375 1.375s1.375-.611 1.375-1.375v-2.75zm5.5 0v2.75c0 .764.612 1.375 1.375 1.375s1.375-.611 1.375-1.375v-2.75zm-66 11v4.125c0 .764.612 1.375 1.375 1.375s1.375-.611 1.375-1.375v-4.125zm5.5 0v4.125c0 .764.612 1.375 1.375 1.375s1.375-.611 1.375-1.375v-4.125zm5.5 0v4.125c0 .764.612 1.375 1.375 1.375s1.375-.611 1.375-1.375v-4.125zm5.5 0v4.125c0 .764.612 1.375 1.375 1.375s1.375-.611 1.375-1.375v-4.125zm5.5 0v4.125c0 .764.612 1.375 1.375 1.375s1.375-.611 1.375-1.375v-4.125zm5.5 0v4.125c0 .764.612 1.375 1.375 1.375s1.375-.611 1.375-1.375v-4.125z" opacity=".4"/><path d="M56.125 69.875A4.125 4.125 0 0 0 52 74v24.75a4.125 4.125 0 0 0 4.125 4.125h33a4.125 4.125 0 0 0 4.125-4.125V74a4.125 4.125 0 0 0-4.125-4.125zm56.375 5.5a2.75 2.75 0 0 0-2.75 2.75v11a2.75 2.75 0 0 0 2.75 2.75h13.75a2.75 2.75 0 0 0 2.75-2.75v-11a2.75 2.75 0 0 0-2.75-2.75zm-55 2.75h20.625v2.75H57.5zm55 0h11v2.75h-11zm-55 5.5h11v5.5h-11zm12.375 0H85v5.5H69.875zm42.625 0h5.5v2.75h-5.5z" opacity=".8"/><path d="M104.25 42.375v5.5H107v-5.5zm8.25 0v5.5h2.75v-5.5zm8.25 0v5.5h2.75v-5.5zm33 66v2.75h5.5v-2.75zm0 8.25v2.75h5.5v-2.75zm0 8.25v2.75h5.5v-2.75zM57.5 78.125v2.75h20.625v-2.75zm55 0v2.75h11v-2.75zm-55 5.5v5.5h11v-5.5zm12.375 0v5.5H85v-5.5zm42.625 0v2.75h5.5v-2.75z" opacity=".4"/><path d="M151 108.38v2.75h2.75v-2.75zm8.25 0v2.75H162v-2.75zm-8.25 8.25v2.75h2.75v-2.75zm8.25 0v2.75H162v-2.75zm-8.25 8.25v2.75h2.75v-2.75zm8.25 0v2.75H162v-2.75zM101.5 42.375v5.5h2.75v-5.5zm8.25 0v5.5h2.75v-5.5zm8.25 0v5.5h2.75v-5.5zm35.75 60.5v5.5h5.5v-5.5zm0 8.25v5.5h5.5v-5.5zm0 8.25v5.5h5.5v-5.5z" opacity=".6"/><path d="M101.5 39.625v2.75h5.5v-2.75zm8.25 0v2.75h5.5v-2.75zm8.25 0v2.75h5.5v-2.75zm-16.5 8.25v2.75h5.5v-2.75zm8.25 0v2.75h5.5v-2.75zm8.25 0v2.75h5.5v-2.75zm33 55v5.5h2.75v-5.5zm8.25 0v5.5H162v-5.5zm-8.25 8.25v5.5h2.75v-5.5zm8.25 0v5.5H162v-5.5zm-8.25 8.25v5.5h2.75v-5.5zm8.25 0v5.5H162v-5.5z" opacity=".8"/></svg>