<svg xmlns="http://www.w3.org/2000/svg" width="192" height="192" viewBox="0 0 192 192"><path d="M27.836 152.23v7.039c0 6.068 4.92 10.988 10.988 10.988h98.89c6.068 0 10.988-4.92 10.988-10.988v-7.039c0 6.921-5.612 12.533-12.533 12.533H40.37c-6.921 0-12.533-5.612-12.533-12.533z" opacity=".6"/><path d="M27.836 41.147v111.08c0 6.921 5.612 12.533 12.533 12.533h95.799c6.921 0 12.533-5.612 12.533-12.533V63.322L137.713 74.31v5.295h-5.295l-16.482 16.482h21.777v16.482h-27.47v8.241h-19.03L76.01 136.015l-.07.07-.048-.048-13.145 2.253-10.183 1.749 1.749-10.183 1.55-9.046h-17.04V96.088h38.27l16.481-16.482H66.291v8.241H38.822v-35.71h82.22L132.03 41.15z" opacity=".9"/><path d="m136.83 36.345-7.769 7.769 19.422 19.422 7.769-7.769zm-80.246 80.249-2.275 13.26 8.434 8.434 13.263-2.275zm75.637 20.696c-6.068 0-10.988 4.92-10.988 10.988v13.343l.188 2.028 25.736-26.243-1.594-.115z"/><path d="M40.369 19a12.507 12.507 0 0 0-12.533 12.533V38.4h106.94l2.055-2.054 3.884-3.885a13.68 13.68 0 0 1 7.64-3.868A12.505 12.505 0 0 0 136.165 19z" opacity=".4"/><path d="M38.824 52.135v35.71h27.469v-8.24h27.282l27.469-27.47zm98.89 22.174-5.295 5.295h5.295zm-98.89 21.777v24.722h17.04l.703-4.099-.048-.048.07-.07 20.504-20.505zm77.113 0-24.722 24.722h19.03v-8.24h27.469V96.084z" opacity=".8"/><path d="m129.06 44.114-72.478 72.478 19.422 19.422 72.478-72.478zm-53.056 91.899-.118.022.048.048zm-19.422-19.422-.07.07.049.048z" opacity=".5"/><path d="M150.43 28.437c-3.515 0-7.03 1.341-9.714 4.024l-3.884 3.884 19.422 19.422 3.874-3.874.01-.01c5.366-5.365 5.366-14.062 0-19.422a13.68 13.68 0 0 0-9.708-4.024" opacity=".6"/><path d="M27.836 38.4v2.747h104.2l2.747-2.747zm0 120.87v2.747c0 6.068 4.92 10.988 10.988 10.988h98.89c6.068 0 10.988-4.92 10.988-10.988v-2.747c0 6.068-4.92 10.988-10.988 10.988h-98.89c-6.068 0-10.988-4.92-10.988-10.988" opacity=".5"/><path d="m52.558 140.04 10.183-1.749-8.434-8.434z" opacity=".2"/></svg>