<svg xmlns="http://www.w3.org/2000/svg" width="192" height="192"><path d="M91.714 172.76q-3.333-3.238-3.333-8 0-2.286.857-4.381t2.571-3.619l5.334-4.952q1.142-.953 2.666-.953t2.667.953l5.333 4.952q1.715 1.524 2.572 3.619t.857 4.381q0 4.762-3.334 8t-8.095 3.238-8.095-3.238m-22.19-12.19q-1.714-1.714-1.714-4t1.714-4L84 138.094q1.714-1.714 4-1.714t4 1.714 1.714 4-1.714 4L77.524 160.57q-1.714 1.714-4 1.714t-4-1.714M120 150.475l-6.095-6.095q-1.143-1.143-1.143-2.667t1.143-2.667l6.095-6.095q1.143-1.143 2.667-1.143t2.666 1.143l6.096 6.095q1.142 1.143 1.142 2.667t-1.142 2.667l-6.096 6.095q-1.143 1.143-2.666 1.143T120 150.475m-57.143-6.095-6.095 6.095q-1.143 1.143-2.667 1.143t-2.667-1.143l-6.095-6.095q-1.143-1.143-1.143-2.667t1.143-2.667l6.095-6.095q1.143-1.143 2.667-1.143t2.667 1.143l6.095 6.095Q64 140.19 64 141.713t-1.143 2.667m-1.143-21.714q-17.333 0-29.619-12.286T19.81 80.76q0-15.81 10.476-27.618 10.476-11.81 25.905-13.905 6.095-10.857 16.667-17.048 10.571-6.19 23.143-6.19 17.143 0 29.81 10.951t15.333 27.333q13.143 1.143 22.095 10.857 8.953 9.715 8.953 23.238 0 14.286-10 24.286t-24.286 10zm0-15.238h76.19q8 0 13.524-5.524t5.524-13.524-5.524-13.524-13.524-5.524h-11.429v-7.619q0-12.57-8.952-21.524-8.953-8.952-21.524-8.952-9.143 0-16.667 4.952T67.999 49.522l-1.905 4.572h-4.762q-10.857.38-18.571 8.095-7.714 7.714-7.714 18.57 0 11.049 7.81 18.858t18.856 7.81z"/></svg>