<svg xmlns="http://www.w3.org/2000/svg" width="192" height="192" viewBox="0 0 192 192"><path d="M173 146.35a11.82 11.82 0 0 1-11.846 11.846h-130.3v-.004l-11.846-.002v14.808H30.85v.006h130.3a11.82 11.82 0 0 0 11.846-11.846v-2.963a11.82 11.82 0 0 1-11.846 11.848H30.85v-.006h-8.885v-8.884h8.881v.006h130.31a11.82 11.82 0 0 0 11.846-11.848v-2.961z" opacity=".6"/><path d="m161.15 19.001-130.3.002v139.18h130.3a11.82 11.82 0 0 0 11.847-11.845v-115.5a11.82 11.82 0 0 0-11.847-11.845zM67.745 40.033h.002c4.856 0 9.818 1.557 11.628 4.506 1.235 1.965 1.645 4.34 1.645 8.599V69.11c0 3.604.577 4.752 2.47 4.752 1.235 0 2.222-.408 3.621-1.555v2.127c-2.88 3.113-4.608 4.096-7.406 4.096-3.374 0-5.616-1.638-6.027-5.979-5.021 4.26-9.06 5.979-12.681 5.979-5.02 0-8.642-3.602-8.642-8.762 0-2.703 1.154-5.488 2.964-7.126 3.538-3.113 6.942-4.003 18.277-7.332v-6.512c0-4.423-2.888-6.798-6.921-6.798-3.292 0-5.924 1.802-5.924 4.013q-.001.86.244 1.967c.083.573.166.983.166 1.31 0 1.802-1.727 3.438-3.703 3.438s-3.538-1.636-3.538-3.52c0-5.16 6.088-9.175 13.826-9.175zm59.32.426c10.999 0 18.479 5.43 18.48 16.363v21.657l-11.103.002-.002-4.445c-1.945 3.286-7.567 4.857-12.865 4.857-8.451 0-13.041-4.522-13.041-10.76 0-6.37 4.495-11.966 15.494-11.915l10.412.05c0-4.493-3.15-7.495-8.783-7.495-3.823 0-7.78 1.274-10.396 3.353l-3.758-7.31c3.957-2.817 9.795-4.357 15.562-4.357m-53.469 16.82c-9.63 3.358-13.913 4.952-13.996 9.867v.33c0 3.522 2.303 6.306 5.183 6.306 1.729 0 4.614-.658 6.672-1.805 1.728-.982 2.14-1.882 2.14-4.34zm51.572 5.603c-4.896-.031-6.437 2.369-6.437 4.783 0 2.616 2.213 4.36 5.902 4.36 3.487 0 9.81-2.23 9.81-5.73l-.004-3.364zm3.34 37.057q.27-.005.525.018 2.382.44 3.883 1.41 1.235.882 1.59 2.648.44 1.676-1.414 4.5a21 21 0 0 1 2.029-.352q.883-.09 1.326-.09.529.001.705.09.09.177.09.795-.001.528-.266 2.027-.264 1.501-.793 4.06a711 711 0 0 1-1.414 6.62q-.177.795-.353 1.502-.088.618-.264 1.324a28 28 0 0 1-.266 1.5l-.439 2.205q-.09.795-.09 1.765a7.7 7.7 0 0 0 .354 1.678q.265.794.795 1.322.617.443 1.677.444.882 0 2.293-1.059 1.413-1.148 3.002-2.826a119 119 0 0 0 3.265-3.795q1.765-2.118 3.264-4.06c1.5-1.942 1.885-2.441 2.65-3.442q1.235-1.5 1.764-2.205.705-.794 1.412-.882.705-.177 1.059.353.353.528.09 1.586-.177 1.06-1.237 2.473a255 255 0 0 1-3.177 4.414 256 256 0 0 1-4.06 5.204 86 86 0 0 1-4.061 4.768q-1.942 2.118-3.266 3.002a9.2 9.2 0 0 1-2.029.88q-1.147.355-2.383.444a6.9 6.9 0 0 1-2.207-.178q-1.06-.177-1.853-.707-.794-.618-1.322-1.765-.442-.971-.885-2.559-.35-1.589-.262-3.97-2.119 3.529-4.68 5.47-2.558 1.854-4.852 2.736-2.648.97-5.295 1.149-1.236-.001-2.648-.885-1.414-.794-2.385-2.559-.97-1.853-1.234-4.677-.264-2.913.707-6.885 1.234-5.383 3.882-9.796 2.737-4.413 5.914-7.502 3.178-3.177 6.267-4.765 2.701-1.39 4.592-1.428m-69.831 2.09H73.58l.097.008s1.648.084 3.344 1.013c1.696.93 3.653 3.124 3.861 6.182v.014l1.48 25.185c.343 4.037-5.779 4.397-5.911.347l-.03-.474-5.023 3.261H60.16s-2.3.02-4.533-1.377c-2.233-1.395-4.351-4.496-4.351-8.988v-3.44l.152-.458s2.316-6.466 8.732-6.466h13.687l.35.087s.456.112 1.138.373l-.363-7.66c-.076-1.112-.341-1.143-.795-1.392-.444-.244-.852-.289-.869-.291h-14.63c-4.004.057-4.004-5.98 0-5.924zm68.148 3.447q-.995.05-2.733 1.539-2.383 2.03-5.56 7.591a23.2 23.2 0 0 0-2.117 4.942q-.795 2.558-1.148 4.853-.266 2.295-.09 4.06.175 1.677.705 2.207.97.971 2.207.971 1.237-.088 2.472-.705a14.2 14.2 0 0 0 2.559-1.768 16.5 16.5 0 0 0 2.295-2.205q1.059-1.146 1.675-2.117.708-.972.797-1.414a497 497 0 0 1 1.059-4.148 84 84 0 0 0 1.059-4.59q.44-2.204.617-3.617.263-1.5-.09-1.412a8 8 0 0 0-.969.264q-.441.177-1.146.266-.707.088-1.412.263.705-1.41.793-2.293.176-.972.09-1.502-.09-.617-.354-.97a.97.97 0 0 0-.578-.215 1 1 0 0 0-.131 0m-66.667 17.283c-2.17 0-2.809 1.673-2.961 2.125v2.316c0 2.912.842 3.514 1.57 3.969s1.39.472 1.39.472h9.489l6.376-4.144-.205-2.018c-.024-.986-.497-1.456-1.324-2.007-.758-.505-1.377-.667-1.535-.713z"/><path d="M19.004 19.003 19 158.183l11.85.002V19.005z" opacity=".8"/></svg>