<svg xmlns="http://www.w3.org/2000/svg" width="192" height="192" viewBox="0 0 192 192"><path d="M67.909 18.701q-2.116-.04-4.225.104c-11.778.8-23.263 5.89-31.914 15.096-10.733 11.424-14.869 26.808-12.383 41.286a79 79 0 0 1 4.85-13.14 42.86 42.86 0 0 1 11.391-24.525 42.87 42.87 0 0 1 26.41-13.281 79 79 0 0 1 13.135-4.852 48.5 48.5 0 0 0-7.264-.688m54.651.053a48 48 0 0 0-5.734.634 79 79 0 0 1 13.13 4.852 42.87 42.87 0 0 1 26.415 13.281 42.86 42.86 0 0 1 11.393 24.533 79 79 0 0 1 4.845 13.133c2.487-14.477-1.648-29.863-12.38-41.287-8.651-9.205-20.137-14.295-31.913-15.096a49 49 0 0 0-5.755-.05zm50.047 98.058a79 79 0 0 1-4.842 13.12 42.85 42.85 0 0 1-11.395 24.556 42.87 42.87 0 0 1-26.46 13.287 79 79 0 0 1-13.124 4.838c15.512 2.673 31.97-2.297 43.442-14.504 10.736-11.427 14.87-26.816 12.38-41.297zm-153.22.002c-2.49 14.48 1.646 29.869 12.381 41.295 11.472 12.207 27.93 17.177 43.442 14.504a79 79 0 0 1-13.127-4.84 42.87 42.87 0 0 1-26.457-13.285 42.86 42.86 0 0 1-11.395-24.551 79 79 0 0 1-4.844-13.123" opacity=".4"/><path d="M95.843 16.003a79.6 79.6 0 0 0-21.01 2.95v38.03a44.96 44.96 0 0 1 21.165-5.327 44.94 44.94 0 0 1 21.165 5.312V18.87a79.3 79.3 0 0 0-20.942-2.868zm-76.97 58.829A79.3 79.3 0 0 0 16 95.924v.124a79.4 79.4 0 0 0 2.96 21.128h38.036a44.96 44.96 0 0 1-5.338-21.18 44.94 44.94 0 0 1 5.312-21.165zm116.13 0a44.9 44.9 0 0 1 5.333 21.165 44.95 44.95 0 0 1-5.323 21.18h38.102A79.5 79.5 0 0 0 176 95.997a79.6 79.6 0 0 0-2.961-21.165zm-17.842 60.172a44.9 44.9 0 0 1-21.165 5.333 44.96 44.96 0 0 1-21.165-5.312v38.097A79.6 79.6 0 0 0 95.996 176a79.6 79.6 0 0 0 21.165-2.96z" opacity=".6"/><path d="M74.833 19.481c-26.821 7.403-47.948 28.529-55.35 55.35h36.821a45.2 45.2 0 0 1 18.529-18.529zm42.33 0v36.821a45.2 45.2 0 0 1 18.529 18.529h36.821c-7.402-26.821-28.53-47.947-55.35-55.35m-97.675 97.696c7.406 26.813 28.528 47.931 55.342 55.333v-36.821a45.2 45.2 0 0 1-18.52-18.512zm116.19 0a45.2 45.2 0 0 1-18.522 18.514v36.821c26.815-7.4 47.94-28.522 55.346-55.335z"/></svg>