<svg xmlns="http://www.w3.org/2000/svg" width="192" height="192" viewBox="0 0 192 192"><path d="M19 50.096v2.962h154v-2.962zm0 108.1v.81c0 7.727 5.304 13.998 11.846 13.998h130.31c6.542 0 11.846-6.27 11.846-13.998v-.81c0 6.542-5.304 11.846-11.846 11.846H30.846c-6.542 0-11.846-5.304-11.846-11.846" opacity=".4"/><path d="M19 149.31v8.885c0 6.542 5.304 11.846 11.846 11.846h130.31c6.542 0 11.846-5.305 11.846-11.846v-8.885c0 6.542-5.304 11.846-11.846 11.846H30.846c-6.542 0-11.846-5.304-11.846-11.846" opacity=".6"/><path d="M19 53.058v96.25c0 6.542 5.304 11.846 11.846 11.846h130.31c6.542 0 11.846-5.304 11.846-11.846v-96.25zm41.462 16.288a4.415 4.415 0 0 1 4.442 4.442 4.415 4.415 0 0 1-4.442 4.443 4.415 4.415 0 0 1-4.442-4.443 4.415 4.415 0 0 1 4.442-4.442m23.692 0a4.415 4.415 0 0 1 4.442 4.442 4.415 4.415 0 0 1-4.442 4.443 4.415 4.415 0 0 1-4.442-4.443 4.415 4.415 0 0 1 4.442-4.442m23.692 0a4.415 4.415 0 0 1 4.442 4.442 4.415 4.415 0 0 1-4.442 4.443 4.415 4.415 0 0 1-4.442-4.443 4.415 4.415 0 0 1 4.442-4.442m23.692 0a4.415 4.415 0 0 1 4.442 4.442 4.415 4.415 0 0 1-4.442 4.443 4.415 4.415 0 0 1-4.442-4.443 4.415 4.415 0 0 1 4.442-4.442m23.692 0a4.415 4.415 0 0 1 4.442 4.442c0 2.475-1.967 4.443-4.442 4.443s-4.442-1.968-4.442-4.443a4.415 4.415 0 0 1 4.442-4.442M84.153 96.04c6.519 0 11.806 5.287 11.806 11.806s-5.287 11.806-11.806 11.806-11.806-5.287-11.806-11.806S77.634 96.04 84.153 96.04m-47.385 7.363a4.415 4.415 0 0 1 4.442 4.443 4.415 4.415 0 0 1-4.442 4.442 4.415 4.415 0 0 1-4.442-4.442 4.415 4.415 0 0 1 4.442-4.443m23.692 0a4.415 4.415 0 0 1 4.442 4.443 4.415 4.415 0 0 1-4.442 4.442 4.415 4.415 0 0 1-4.442-4.442 4.415 4.415 0 0 1 4.442-4.443m47.385 0a4.415 4.415 0 0 1 4.442 4.443 4.415 4.415 0 0 1-4.442 4.442 4.415 4.415 0 0 1-4.442-4.442 4.415 4.415 0 0 1 4.442-4.443m23.692 0a4.415 4.415 0 0 1 4.442 4.443 4.415 4.415 0 0 1-4.442 4.442 4.415 4.415 0 0 1-4.442-4.442 4.415 4.415 0 0 1 4.442-4.443m23.692 0a4.415 4.415 0 0 1 4.442 4.443c0 2.475-1.967 4.442-4.442 4.442s-4.442-1.967-4.442-4.442a4.415 4.415 0 0 1 4.442-4.443m-118.46 34.058a4.415 4.415 0 0 1 4.442 4.443 4.415 4.415 0 0 1-4.442 4.442 4.415 4.415 0 0 1-4.442-4.442 4.415 4.415 0 0 1 4.442-4.443m23.692 0a4.415 4.415 0 0 1 4.442 4.443 4.415 4.415 0 0 1-4.442 4.442 4.415 4.415 0 0 1-4.442-4.442 4.415 4.415 0 0 1 4.442-4.443m23.692 0a4.415 4.415 0 0 1 4.442 4.443 4.415 4.415 0 0 1-4.442 4.442 4.415 4.415 0 0 1-4.442-4.442 4.415 4.415 0 0 1 4.442-4.443"/><path d="M30.846 19A11.817 11.817 0 0 0 19 30.846v19.25h154v-19.25A11.817 11.817 0 0 0 161.154 19zm53.308 77.04c-6.519 0-11.806 5.287-11.806 11.806s5.287 11.806 11.806 11.806 11.806-5.287 11.806-11.806S90.673 96.04 84.154 96.04" opacity=".8"/></svg>