<svg xmlns="http://www.w3.org/2000/svg" width="192" height="192" viewBox="0 0 192 192"><path d="M93.143 173.24q-2.857-2.762-2.857-6.571 0-1.905.667-3.524.666-1.62 2-2.953l4.952-4.571q.952-.762 1.905-.762.952 0 1.905.762l4.952 4.571q1.333 1.334 2 2.953t.667 3.524q0 3.81-2.857 6.571-2.858 2.762-6.667 2.762-3.81 0-6.667-2.762m-23.429-13.048q-1.524-1.524-1.524-3.333t1.524-3.334L84.19 139.05q1.524-1.523 3.333-1.523t3.334 1.523 1.523 3.334q0 1.81-1.523 3.333L76.19 160.383q-1.524 1.524-3.239 1.429-1.714-.096-3.238-1.62zm50.857-9.524-5.905-5.905q-.952-.952-.952-2.095t.952-2.095l5.905-5.905q.952-.952 2.095-.952t2.095.952l5.905 5.905q.953.952.953 2.095t-.953 2.095l-5.905 5.905q-.952.953-2.095.953t-2.095-.953m-58.476-5.905-5.905 5.905q-.952.953-2.095.953T52 150.668l-5.905-5.905q-.952-.952-.952-2.095t.952-2.095L52 134.668q.952-.952 2.095-.952t2.095.952l5.905 5.905q.952.952.952 2.095t-.952 2.095m-2.286-25.905q-16.57 0-28.286-11.714Q19.81 95.43 19.81 78.858q0-15.048 10.762-26.857T57.333 39.05q6.096-10.667 16.095-16.857 10-6.19 22.571-6.19 17.333 0 29.048 10.952t14.381 27.143q15.048.762 23.905 10.19 8.857 9.429 8.857 22.19 0 13.333-9.428 22.857t-22.952 9.524zm0-11.429h80q8.762 0 14.857-6.19 6.096-6.19 6.096-14.762 0-8.762-6.096-14.857t-14.857-6.095H128.38V59.81q0-13.524-9.428-22.952T96 27.43q-9.715 0-17.81 5.238t-11.905 14.19l-1.524 3.429h-5.333q-11.81.38-20 8.666t-8.19 19.905q0 11.81 8.38 20.19t20.19 8.381z"/></svg>