<svg xmlns="http://www.w3.org/2000/svg" width="192" height="192" viewBox="0 0 192 192"><path d="M33.143 16A17.143 17.143 0 0 0 16 33.143a17.14 17.14 0 0 0 11.429 16.164v93.387A17.14 17.14 0 0 0 16 158.858a17.143 17.143 0 0 0 17.143 17.143 17.14 17.14 0 0 0 14.847-8.571h96.021a17.14 17.14 0 0 0 14.847 8.57 17.143 17.143 0 0 0 17.143-17.143 17.14 17.14 0 0 0-11.429-16.164V49.307a17.14 17.14 0 0 0 11.429-16.164A17.143 17.143 0 0 0 158.858 16a17.14 17.14 0 0 0-16.903 14.286H50.047A17.14 17.14 0 0 0 33.144 16zM47.99 41.714h96.021a17 17 0 0 0 .399.653l-14.802 14.802a11.4 11.4 0 0 0-5.036-1.17 11.43 11.43 0 0 0-11.066 8.572H78.495A11.43 11.43 0 0 0 67.429 56a11.4 11.4 0 0 0-5.037 1.169L47.59 42.367a17 17 0 0 0 .4-.653m-9.132 8.08 17.154 17.154a11 11 0 0 0-.011.48 11.43 11.43 0 0 0 5.714 9.897v37.35A11.43 11.43 0 0 0 56 124.57a11.4 11.4 0 0 0 1.169 5.036L42.368 144.41a17 17 0 0 0-3.51-1.716zm114.29 0v92.9a17 17 0 0 0-3.51 1.715l-14.802-14.802a11.4 11.4 0 0 0 1.169-5.036 11.43 11.43 0 0 0-5.714-9.897V77.325a11.43 11.43 0 0 0 5.714-9.896 11 11 0 0 0-.011-.48zM74.992 76h42.026a11.4 11.4 0 0 0 1.844 1.326v37.349a11.43 11.43 0 0 0-5.352 7.04H78.5a11.43 11.43 0 0 0-5.352-7.04v-37.35A11.4 11.4 0 0 0 74.992 76m0 57.143h42.026a11.43 11.43 0 0 0 7.558 2.858 11 11 0 0 0 .48-.012l17.52 17.52a17 17 0 0 0-.616 2.492H50.052a17 17 0 0 0-.617-2.492l17.52-17.52a11 11 0 0 0 .48.012 11.43 11.43 0 0 0 7.558-2.858z"/></svg>