<svg xmlns="http://www.w3.org/2000/svg" width="192" height="192" viewBox="0 0 192 192"><path d="M27.43 33.145A11.406 11.406 0 0 0 16 44.575v97.143c0 6.331 5.098 11.43 11.43 11.43h137.14c6.331 0 11.43-5.098 11.43-11.43V44.575c0-6.331-5.098-11.43-11.43-11.43zm0 5.715h120a5.7 5.7 0 0 1 5.713 5.715v97.143a5.7 5.7 0 0 1-5.713 5.714h-120a5.703 5.703 0 0 1-5.715-5.714V44.575a5.703 5.703 0 0 1 5.715-5.715m137.14.01a5.715 5.715 0 0 1 5.715 5.714v8.57h-5.715a5.7 5.7 0 0 1-5.715-5.712v-2.858a5.715 5.715 0 0 1 5.715-5.714m-5.715 20h5.715a5.715 5.715 0 0 1 5.715 5.714v2.858a5.715 5.715 0 0 1-11.43 0zm11.43 20v8.574a5.715 5.715 0 0 1-11.43 0v-2.858a5.715 5.715 0 0 1 5.715-5.716zm-5.715 20.004a5.715 5.715 0 0 1 5.715 5.713v8.572h-5.715a5.7 5.7 0 0 1-5.715-5.715v-2.857a5.715 5.715 0 0 1 5.715-5.713"/><path d="M80.178 55.799 62.699 96.002h-35.27v5.715h39.014l11.094-25.512 8.432 54.818 14.654-29.307h6.804a2.857 2.857 0 0 0 2.858-2.858 2.857 2.857 0 0 0-2.858-2.857H97.09l-8.203 16.406z"/><path d="M16 141.71v5.714a11.404 11.404 0 0 0 11.429 11.43h137.14a11.404 11.404 0 0 0 11.429-11.43v-5.714a11.404 11.404 0 0 1-11.429 11.429H27.429A11.404 11.404 0 0 1 16 141.71" opacity=".6"/><path d="M27.429 44.574h120v97.143h-120z" opacity=".15"/><path d="M107.43 96.002a2.857 2.857 0 0 1 .057 5.715h39.943v-5.715z" opacity=".3"/><path d="M27.429 38.859a5.7 5.7 0 0 0-5.714 5.714v97.143a5.7 5.7 0 0 0 5.714 5.715h120a5.7 5.7 0 0 0 5.714-5.715V44.573a5.7 5.7 0 0 0-5.714-5.714zm0 5.714h120v97.143h-120z" opacity=".5"/><path d="M158.86 44.584v2.857a5.7 5.7 0 0 0 5.715 5.713h5.715V50.3h-5.715a5.715 5.715 0 0 1-5.715-5.715m0 20.002v2.856a5.715 5.715 0 0 0 11.43 0v-2.856a5.715 5.715 0 0 1-5.715 5.713 5.715 5.715 0 0 1-5.715-5.713m0 20v2.857a5.715 5.715 0 0 0 11.43 0v-2.857a5.715 5.715 0 0 1-5.715 5.715 5.715 5.715 0 0 1-5.715-5.715m0 20v2.857a5.7 5.7 0 0 0 5.715 5.715h5.715v-2.857h-5.715a5.715 5.715 0 0 1-5.715-5.715" opacity=".6"/><path d="M164.57 38.869a5.715 5.715 0 0 0-5.715 5.715 5.715 5.715 0 0 0 5.715 5.715h5.715v-5.715a5.715 5.715 0 0 0-5.715-5.715m2.86 7.143a1.43 1.43 0 0 1 1.43 1.43 1.43 1.43 0 0 1-1.43 1.427 1.43 1.43 0 0 1-1.428-1.428 1.43 1.43 0 0 1 1.427-1.43m-8.575 12.857v5.714a5.715 5.715 0 0 0 5.715 5.717 5.715 5.715 0 0 0 5.715-5.717 5.715 5.715 0 0 0-5.715-5.714zm2.86 1.43a1.43 1.43 0 0 1 1.43 1.427 1.43 1.43 0 0 1-1.43 1.43 1.43 1.43 0 0 1-1.428-1.43 1.43 1.43 0 0 1 1.428-1.428m2.855 18.571a5.715 5.715 0 0 0-5.715 5.715 5.715 5.715 0 0 0 5.715 5.715 5.715 5.715 0 0 0 5.715-5.715V78.87zm2.86 1.428a1.43 1.43 0 0 1 1.43 1.428 1.43 1.43 0 0 1-1.43 1.427 1.43 1.43 0 0 1-1.428-1.427 1.43 1.43 0 0 1 1.427-1.428m-2.86 18.574a5.715 5.715 0 0 0-5.715 5.715 5.715 5.715 0 0 0 5.715 5.715h5.715v-5.715a5.715 5.715 0 0 0-5.715-5.715m2.86 7.139a1.43 1.43 0 0 1 1.43 1.427 1.43 1.43 0 0 1-1.43 1.43 1.43 1.43 0 0 1-1.428-1.43 1.43 1.43 0 0 1 1.427-1.427" opacity=".8"/><path d="M167.43 46.012a1.43 1.43 0 0 0-1.428 1.43 1.43 1.43 0 0 0 1.428 1.427 1.43 1.43 0 0 0 1.43-1.427 1.43 1.43 0 0 0-1.43-1.43m-5.715 14.287a1.43 1.43 0 0 0-1.427 1.428 1.43 1.43 0 0 0 1.427 1.43 1.43 1.43 0 0 0 1.43-1.43 1.43 1.43 0 0 0-1.43-1.428m5.715 19.999a1.43 1.43 0 0 0-1.428 1.428 1.43 1.43 0 0 0 1.428 1.43 1.43 1.43 0 0 0 1.43-1.43 1.43 1.43 0 0 0-1.43-1.428m0 25.714a1.43 1.43 0 0 0-1.428 1.428 1.43 1.43 0 0 0 1.428 1.43 1.43 1.43 0 0 0 1.43-1.43 1.43 1.43 0 0 0-1.43-1.428" opacity=".4"/></svg>