<svg xmlns="http://www.w3.org/2000/svg" width="192" height="192" viewBox="0 0 192 192"><path d="m42.033 36.855 2.617 22.78c.547 4.769 1.49 9.517 1.405 14.311-.045 2.397-.437 4.84-1.59 6.945-.577 1.047-1.345 2.005-2.292 2.738-.948.737-2.076 1.248-3.265 1.399-1.93.25-3.846-.442-5.62-1.234-1.771-.797-3.531-1.725-5.451-1.996-1.881-.27-3.83.121-5.511.998-1.68.883-3.089 2.241-4.117 3.837-2.055 3.188-2.531 7.195-2.02 10.956.385 2.848 1.348 5.69 3.224 7.872.937 1.088 2.096 2 3.41 2.582 1.313.587 2.783.843 4.211.667 1.977-.246 3.756-1.283 5.55-2.151.905-.431 1.826-.827 2.794-1.063s1.991-.305 2.964-.085c1.053.235 2.01.807 2.778 1.564.772.752 1.348 1.686 1.765 2.678.822 1.99.978 4.182 1.078 6.334a158.2 158.2 0 0 1-2.888 38.465 171 171 0 0 0 26.811 7.098c3.02.548 6.153 1.004 9.127.252 1.489-.376 2.914-1.063 4.046-2.096 1.134-1.032 1.962-2.426 2.197-3.946.17-1.129.015-2.297-.321-3.39-.337-1.093-.858-2.126-1.414-3.129-1.114-2.001-2.422-3.961-2.858-6.213-.385-2-.03-4.117.867-5.947.903-1.83 2.332-3.375 4.006-4.538 3.355-2.316 7.573-3.06 11.649-3.094 3.735-.03 7.596.532 10.77 2.507 1.585.989 2.969 2.323 3.902 3.941.937 1.615 1.408 3.521 1.223 5.376-.15 1.429-.672 2.799-1.314 4.082-.642 1.29-1.403 2.512-2.066 3.786-.657 1.278-1.22 2.628-1.424 4.046-.2 1.425-.025 2.94.712 4.172.526.878 1.31 1.579 2.177 2.117.867.541 1.82.927 2.783 1.273a38.8 38.8 0 0 0 19.49 1.71 38.7 38.7 0 0 0 17.817-8.078l-3.32-24.866c-.582-4.372-1.464-8.746-1.345-13.153.055-2.207.437-4.443 1.465-6.393a8.7 8.7 0 0 1 2.025-2.593 6.85 6.85 0 0 1 2.904-1.515c1.027-.235 2.101-.21 3.133-.025 1.039.186 2.041.526 3.02.908 1.96.767 3.88 1.72 5.966 2 1.926.261 3.922-.08 5.682-.897 1.765-.821 3.294-2.115 4.453-3.675 2.32-3.125 3.104-7.22 2.628-11.078-.392-3.143-1.615-6.241-3.791-8.543-1.089-1.149-2.407-2.092-3.872-2.693-1.463-.607-3.074-.878-4.648-.723-2.101.202-4.047 1.123-6.018 1.876-.982.38-1.99.717-3.023.907-1.038.191-2.117.226-3.145-.005-1.558-.346-2.947-1.293-3.955-2.531-1.009-1.24-1.65-2.747-1.986-4.313-.672-3.12-.16-6.359.296-9.518a256 256 0 0 0 2.567-31.98 153 153 0 0 0-28.626-6.248c-2.99-.361-6.098-.616-8.947.351-1.429.486-2.763 1.284-3.765 2.407-1.003 1.117-1.655 2.582-1.684 4.086-.026 1.058.255 2.112.697 3.075.445.962 1.042 1.85 1.684 2.692 1.283 1.69 2.757 3.285 3.56 5.25.883 2.151.867 4.629.105 6.829-.762 2.196-2.242 4.117-4.076 5.545-1.84 1.43-4.027 2.378-6.294 2.905s-4.612.642-6.94.506c-3.745-.22-7.565-1.142-10.565-3.404-1.499-1.13-2.768-2.588-3.581-4.277-.811-1.691-1.163-3.62-.886-5.476.38-2.523 1.845-4.724 3.078-6.956.617-1.118 1.188-2.272 1.54-3.495.355-1.223.486-2.537.215-3.78-.28-1.305-.993-2.492-1.94-3.43-.948-.932-2.121-1.619-3.375-2.076-2.502-.911-5.235-.908-7.892-.752a74.75 74.75 0 0 0-28.566 7.531z"/></svg>