<svg xmlns="http://www.w3.org/2000/svg" width="192" height="192" viewBox="0 0 192 192"><path d="M60.411 20.444A31.037 31.037 0 0 0 29.3 51.555c0 .747.062 1.484.113 2.222 1.14-16.189 14.514-28.889 30.998-28.889h49.34a31.3 31.3 0 0 1 5.742-4.444z" opacity=".6"/><path d="M60.411 24.889C43.233 24.889 29.3 38.822 29.3 56s13.933 31.111 31.111 31.111h55.147c-9.061-5.439-15.147-15.333-15.147-26.666 0 0 .087-11.579 0-13.333 0-8.704 3.576-16.575 9.34-22.222z" opacity=".8"/><path d="M100.41 47.111v13.333c0 11.334 6.086 21.228 15.147 26.666h15.963c15.668 0 28.635-11.594 30.793-26.666v-.004q.159-1.097.239-2.218c.25-3.698.112-7.408.078-11.111 0 17.178-13.933 31.11-31.111 31.11s-31.111-13.932-31.111-31.11z" opacity=".6"/><path d="M100.41 47.111c0 17.178 13.933 31.111 31.111 31.111s31.111-13.933 31.111-31.111S148.699 16 131.521 16 100.41 29.933 100.41 47.111"/><path d="M76.44 109.33a31.3 31.3 0 0 1 5.742 4.444h49.34c16.326-.03 29.88 12.601 30.998 28.89.051-.738.113-1.476.113-2.223a31.037 31.037 0 0 0-31.111-31.11z" opacity=".2"/><path d="M82.182 113.78c5.764 5.647 9.34 13.518 9.34 22.222h.087v13.333h-.087c0 11.335-6.09 21.228-15.152 26.666h55.152c17.178 0 31.111-13.933 31.111-31.111s-13.933-31.111-31.11-31.111z" opacity=".4"/><path d="M91.522 136c0 17.178-13.933 31.111-31.111 31.111-16.575 0-30.129-12.975-31.06-29.318-.059 3.107-.093 6.215.026 9.319q.08 1.12.239 2.217v.004C31.774 164.407 44.742 176 60.409 176h15.959c9.063-5.438 15.152-15.33 15.152-26.666h.087v-13.333h-.087z" opacity=".6"/><path d="M91.522 136c0 17.178-13.933 31.111-31.111 31.111S29.3 153.178 29.3 136s13.933-31.111 31.111-31.111S91.522 118.822 91.522 136"/></svg>