<svg xmlns="http://www.w3.org/2000/svg" width="192" height="192" viewBox="0 0 192 192"><path d="M20.455 109.08v52.301a11.6 11.6 0 0 0 11.623 11.623h127.84a11.6 11.6 0 0 0 11.623-11.623V109.08a11.6 11.6 0 0 1-11.623 11.623H95.999v1.447h-5.81v-1.447H32.074A11.6 11.6 0 0 1 20.45 109.08z" opacity=".6"/><path d="M106.85 21.904c.492.854.771 1.847.771 2.906v17.433a5.8 5.8 0 0 1-5.81 5.812v11.623a2.9 2.9 0 0 1-.387 1.453h.391v5.81h-5.812v2.907h5.812v5.81h-5.812v2.906h5.812v5.81h-5.812v2.907h5.812v5.81h-5.812v2.906h5.812v5.81h-5.812v2.906h5.812v5.81h-5.812v2.907h5.812v5.812h-5.812v1.451h63.919a11.6 11.6 0 0 0 11.623-11.623V33.526a11.6 11.6 0 0 0-11.623-11.623zm-74.773.002a11.6 11.6 0 0 0-11.623 11.623v75.544a11.6 11.6 0 0 0 11.623 11.623h58.111v-4.36h5.81v-2.903h-5.81v-5.813h5.81v-2.904h-5.81v-5.812h5.81v-2.906h-5.81v-5.81h5.81V87.28h-5.81v-5.81h5.81v-2.906h-5.81v-5.81h.004v-.002h5.806v-2.905h-5.81v-5.81h.004v-.002h5.806v-1.451h-2.906a2.9 2.9 0 0 1-2.904-2.906V48.056a5.8 5.8 0 0 1-5.812-5.81V24.813c0-1.06.282-2.053.773-2.906zm61.017 29.056v5.81h5.81v-5.81z"/><path d="M90.188 56.772v2.906a2.9 2.9 0 0 0 2.906 2.905h5.81a2.9 2.9 0 0 0 2.906-2.905v-2.906a2.9 2.9 0 0 1-2.905 2.906h-5.811a2.9 2.9 0 0 1-2.906-2.906" opacity=".4"/><path d="M84.378 39.339v2.906c0 3.22 2.59 5.81 5.81 5.81V45.15c-3.22 0-5.81-2.59-5.81-5.81m23.243 0c0 3.22-2.591 5.81-5.81 5.81v2.906c3.22 0 5.81-2.59 5.81-5.81z" opacity=".2"/><path d="M90.189 19a5.8 5.8 0 0 0-5.812 5.81v14.53a5.8 5.8 0 0 0 5.812 5.81V30.623a2.9 2.9 0 0 1 2.904-2.907V24.81A2.9 2.9 0 0 1 96 21.906a2.9 2.9 0 0 1 2.906 2.904v2.906a2.9 2.9 0 0 1 2.906 2.907V45.15c3.22 0 5.81-2.591 5.81-5.81V24.81c0-3.22-2.59-5.81-5.81-5.81zm8.367 13.009" opacity=".4"/><path d="M93.094 27.717a2.9 2.9 0 0 0-2.906 2.906v26.15a2.9 2.9 0 0 0 2.906 2.905h5.811a2.9 2.9 0 0 0 2.906-2.905v-26.15a2.9 2.9 0 0 0-2.906-2.906v2.906A2.9 2.9 0 0 1 96 33.528a2.9 2.9 0 0 1-2.905-2.905zm0 23.244h5.811v5.811h-5.811z" opacity=".8"/><path d="M90.188 56.772v2.906a2.9 2.9 0 0 0 2.906 2.905h5.81a2.9 2.9 0 0 0 2.906-2.905v-2.906a2.9 2.9 0 0 1-2.905 2.906h-5.811a2.9 2.9 0 0 1-2.906-2.906" opacity=".6"/></svg>