<svg xmlns="http://www.w3.org/2000/svg" width="192" height="192" viewBox="0 0 192 192"><path d="M19.001 90.689v.33c0-.072.013-.144.013-.217 0-.04-.008-.074-.008-.113zm77 0-58.985 44.373-.023-.025c-11.732-12.547-17.869-28.122-17.992-43.881v12.808h.005c-.001 16.229 6.375 31.94 18.01 44.375v-5.311L96 98.655z" opacity=".55"/><path d="M96.001 21.655c-29.923 0-57.139 15.543-69.786 39.858s-8.434 52.997 10.8 73.548L96 90.686v-2.654z" opacity=".6"/><path d="M96 88.033h77v10.62H96z" opacity=".75"/><path d="M96 19a77 69.033 0 0 1 77 69.033H96z" opacity=".8"/><path d="M172.78 103.96c-2.299 26.836-21.886 50.244-50.436 59.559-28.439 9.28-59.949 2.56-80.952-16.5a37.4 37.4 0 0 1-4.166-3.78l-.203-.215v5.31c20.808 22.232 54.903 30.42 85.321 20.494s50.435-35.847 50.436-64.868" opacity=".9"/><path d="M172.99 98.653c0 29.021-20.246 54.944-50.664 64.87s-64.513 1.735-85.321-20.496l58.986-44.374z"/></svg>