<svg xmlns="http://www.w3.org/2000/svg" width="192" height="192" viewBox="0 0 192 192"><path d="m78.29 173-3.85-24.255q-3.657-1.347-7.7-3.657t-7.122-4.813L36.903 150.67 19 119.1l20.79-15.208q-.385-1.732-.482-3.946T39.213 96t.096-3.947.482-3.946L19 72.9l17.902-31.57 22.715 10.395q3.08-2.502 7.122-4.812t7.7-3.465L78.289 19h35.42l3.85 24.255q3.658 1.347 7.796 3.56t7.026 4.91l22.715-10.395L173 72.899 152.21 87.72q.385 1.925.482 4.139.096 2.213.096 4.138t-.096 4.043-.482 4.042L173 119.098l-17.902 31.57-22.715-10.395q-3.08 2.503-7.026 4.91t-7.796 3.56l-3.85 24.255zm9.24-11.55h16.94l2.695-21.56q6.352-1.54 12.031-4.812t10.299-7.893l20.405 8.855 7.7-13.86-18.095-13.282q.77-3.272 1.251-6.449t.481-6.449-.385-6.448-1.347-6.45l18.095-13.28-7.7-13.86-20.405 8.855q-4.428-5.005-10.01-8.374t-12.32-4.331l-2.695-21.56H87.53l-2.695 21.56q-6.545 1.347-12.224 4.62t-10.106 8.085L42.1 55.96l-7.7 13.86 18.095 13.282q-.77 3.272-1.251 6.449T50.763 96t.48 6.45 1.252 6.448L34.4 122.18l7.7 13.86 20.405-8.855q4.62 4.62 10.299 7.892t12.031 4.813zM96 121.025q10.395 0 17.71-7.315T121.025 96t-7.315-17.71T96 70.975 78.29 78.29 70.975 96t7.315 17.71T96 121.025"/></svg>