<svg xmlns="http://www.w3.org/2000/svg" width="192" height="192" viewBox="0 0 192 192"><path d="M55.558 16.065c-4.396.176-8.358 3.172-9.558 7.645l-4.136 15.436H143.49L58.642 16.41a10.3 10.3 0 0 0-3.085-.345zm97.351 25.604v82.653a2.58 2.58 0 0 1-2.581 2.581h-31.24c-6.145 15.208-21.061 25.962-38.45 25.962-10.037 0-19.254-3.584-26.433-9.54l-4.547 4.547c-.183 1.695-.093 3.393-.527 4.943l84.476 22.635c5.505 1.477 11.166-1.795 12.643-7.3l29.395-109.7c1.477-5.505-1.795-11.166-7.3-12.643zm-113.57 6.894-22.736 84.849c-1.477 5.505 1.795 11.166 7.3 12.643l6.755 1.81 5.787-5.788a7.74 7.74 0 0 1 7.479-2.004l3.662-3.662a41.4 41.4 0 0 1-5.399-9.508h-.267a2.58 2.58 0 0 1-2.581-2.58v-9.342a42 42 0 0 1 0-7.129zm11.189 83.115c.36.535.795 1.008 1.182 1.522-.387-.513-.822-.988-1.182-1.522m3.534 4.418c.492.53 1.038.998 1.56 1.498-.521-.499-1.07-.969-1.56-1.498m4.093 3.764c1.102.871 2.235 1.701 3.436 2.442-1.2-.74-2.334-1.571-3.436-2.442m5.42 3.602q1.395.743 2.86 1.366a39 39 0 0 1-2.533-1.212q-.163-.08-.327-.154m31.324 1.333c-.088.035-.172.077-.26.111zm-26.146.885c.415.144.82.305 1.242.433-.421-.128-.828-.29-1.242-.433m23.646.045c-.416.142-.826.296-1.248.424.422-.128.832-.282 1.248-.424m-20.114.978c.378.09.746.2 1.129.278-.383-.077-.751-.189-1.13-.278m16.64.018c-.383.09-.76.197-1.149.275.39-.078.765-.185 1.15-.275m-3.768.673c-.299.037-.59.099-.892.128.302-.03.593-.09.892-.128m-8.958.013c.256.03.504.085.761.11-.257-.025-.505-.08-.76-.11" opacity=".4"/><path d="M39.341 28.822c-5.702 0-10.324 4.623-10.324 10.324v110.36l7.43-7.43a7.74 7.74 0 0 1 7.48-2.005l3.662-3.662a41.4 41.4 0 0 1-5.4-9.508h-.266a2.58 2.58 0 0 1-2.582-2.581v-9.341a42 42 0 0 1 0-7.129V41.725a2.58 2.58 0 0 1 2.582-2.58h108.41a2.58 2.58 0 0 1 2.58 2.58v82.595a2.58 2.58 0 0 1-2.58 2.581h-31.24c-6.146 15.208-21.062 25.962-38.45 25.962-10.037 0-19.254-3.583-26.432-9.54l-4.548 4.547c-.302 2.798.14 5.604-2.26 7.736l-7.431 7.43h112.94c5.701 0 10.324-4.622 10.324-10.324V39.142c0-5.701-4.623-10.324-10.324-10.324H39.342zM50.53 131.681c.36.534.795 1.006 1.182 1.52-.387-.514-.823-.986-1.182-1.52m3.534 4.416c.495.533 1.044 1.005 1.57 1.507-.525-.501-1.076-.975-1.57-1.507m4.083 3.756c1.105.875 2.241 1.706 3.446 2.45-1.204-.743-2.342-1.576-3.446-2.45m36.796 4.922c-.118.047-.232.103-.35.15zm-27.623.401c.296.117.603.206.903.315-.3-.109-.608-.199-.903-.315m25.181.512c-.458.158-.91.329-1.376.469.466-.14.918-.311 1.376-.47m-3.44.998c-.436.103-.864.228-1.306.315.443-.088.87-.211 1.306-.315m-13.793.582c.409.06.812.132 1.225.18-.412-.048-.817-.12-1.225-.18m10.125.091c-.386.05-.764.126-1.154.164.39-.038.768-.114 1.154-.164"/><path d="M41.922 39.146a2.58 2.58 0 0 0-2.581 2.581v55.428l4.192-4.192c-.176.352-.313.724-.48 1.082C49.64 79.852 63.987 69.968 80.64 69.968c22.86 0 41.449 18.588 41.449 41.449q0-1.975-.182-3.902l19.39 19.389h9.033a2.58 2.58 0 0 0 2.581-2.581V41.728a2.58 2.58 0 0 0-2.58-2.582zm80.166 72.271c0 1.918-.175 3.792-.429 5.641.254-1.85.429-3.723.429-5.641m1.14-58.075c7.128 0 12.905 5.777 12.905 12.906s-5.777 12.906-12.906 12.906c-7.128 0-12.906-5.777-12.906-12.906s5.778-12.906 12.906-12.906M80.638 75.13c-15.728 0-29.048 9.977-34.094 23.943l5.626-5.628a10.3 10.3 0 0 1 7.305-3.03v.002c2.636 0 5.278 1.008 7.3 3.03l22.035 22.035 8.272-8.273a10.3 10.3 0 0 1 7.3-3.035v.005c2.642 0 5.278 1.009 7.3 3.035l5.228 5.225q.014-.51.015-1.023c0-20.07-16.216-36.287-36.287-36.287zM42.212 95.95c-.233.578-.437 1.169-.645 1.76.208-.59.412-1.183.645-1.76m-1.303 3.718c-.191.644-.344 1.302-.504 1.958.16-.656.313-1.314.504-1.958m4.386 3.617c-.095.417-.194.83-.275 1.253.08-.422.18-.837.275-1.253m-5.326.22c-.142.731-.237 1.478-.34 2.222.102-.744.198-1.492.34-2.223m4.706 3.309c-.048.379-.113.752-.149 1.134.036-.382.101-.755.149-1.134m-5.288.706c-.011.115-.036.227-.046.342v.568c.022-.302.018-.61.046-.91m80.636 16.708c-.3.917-.696 1.787-1.056 2.675h.12c.353-.872.642-1.775.936-2.675m-78.595.474c.25.736.472 1.484.76 2.2h.061a41 41 0 0 1-.821-2.2" opacity=".2"/><path d="M104.38 104.17a10.3 10.3 0 0 0-7.3 3.035l-8.272 8.273 19.469 19.469a36.14 36.14 0 0 0 8.63-22.511l-5.227-5.226a10.27 10.27 0 0 0-7.3-3.035zm3.897 30.78q-142.125-182.43 0 0" opacity=".7"/><path d="M59.476 90.416a10.3 10.3 0 0 0-7.305 3.03l-5.699 5.701a36.3 36.3 0 0 0-2.12 12.27c0 20.071 16.216 36.287 36.287 36.287 11.083 0 20.99-4.943 27.641-12.752v-.003L66.776 93.446a10.3 10.3 0 0 0-7.3-3.03" opacity=".6"/><path d="M123.23 53.343c-7.128 0-12.906 5.777-12.906 12.906s5.777 12.906 12.906 12.906c7.128 0 12.906-5.777 12.906-12.906s-5.777-12.906-12.906-12.906M43.525 92.975l-4.182 4.182v10.705q.172-1.993.527-3.927a41.1 41.1 0 0 1 3.655-10.96m78.383 14.542a42 42 0 0 1-.028 8.048c-.042.426-.128.838-.184 1.26-.122.937-.244 1.873-.428 2.788-.093.463-.227.91-.335 1.367-.203.851-.402 1.703-.656 2.533-.154.504-.347.989-.52 1.484-.22.637-.416 1.286-.667 1.909h22.207zm-82.566 7.461v9.346a2.58 2.58 0 0 0 2.581 2.581h.267c-.67-1.66-1.197-3.39-1.65-5.15a41 41 0 0 1-1.167-6.589c-.007-.063-.025-.124-.031-.188" opacity=".7"/><path d="M80.638 69.969c-22.861 0-41.449 18.588-41.449 41.449a41.24 41.24 0 0 0 8.399 24.994l-3.663 3.662a7.74 7.74 0 0 0-7.479 2.004L18.38 160.146c-3.173 3.188-3.173 10.343 0 13.53a7.744 7.744 0 0 0 10.95 0l18.068-18.068c2.401-2.132 1.958-4.937 2.26-7.735l4.548-4.547c7.178 5.956 16.395 9.54 26.433 9.54 22.86 0 41.449-18.588 41.449-41.449S103.5 69.968 80.638 69.968zm0 5.162c20.071 0 36.287 16.216 36.287 36.287s-16.216 36.287-36.287 36.287-36.287-16.216-36.287-36.287 16.216-36.287 36.287-36.287" opacity=".4"/></svg>