<svg xmlns="http://www.w3.org/2000/svg" width="192" height="192" viewBox="0 0 192 192"><path d="M67.108 115.15c1.58.98 25.453 5.833 31.286 6.8 2.02.427.587 2.506-2.2 3.913-6.287 1.674-36.779-10.713-29.086-10.713m37.646-88.425 23.366 23.733c2.22 2.267 2.187 6.653.947 7.913l-11.6-9.28-2.28 13.74-9.7-5.113-15.52 9.8-5.14-20.666-8.34 14.426H63.734c-5.2 0-5.806-6.6-1.086-11.32 8.246-8.9 17.713-17.973 22.86-23.233 5.173-5.287 14.18-5.133 19.246 0m-23.513-4.247-59.066 60.44c-19.953 24.712 13.586 21.84 27.959 28.952 5.16 5.274-19.766 9.167-14.606 14.44 5.153 5.274 31.186 10.16 36.353 15.426 5.153 5.274-10.56 10.866-5.4 16.133 5.153 5.28 17.086.28 19.32 12.453 1.587 8.694 21.493 3.734 31.226-3.386 5.16-5.273-9.866-4.78-4.707-10.053 12.82-13.113 24.767-4.76 29.154-17.906 2.166-6.493-18.88-10.006-13.713-15.28 14.84-8.667 66.125-14.306 41.786-38.64L108.335 22.48c-7.487-7.187-19.986-7.267-27.086 0zm67.845 116.5c0 3 22.093 4.967 22.093-.706-3.147-9.107-19.48-8.493-22.093.706m-99.518 15.933c5.227 4.527 13.313-1.126 15.733-7.44-5.067-6.733-24.046.247-15.733 7.44m96.745-9.773c-6.74 6.053.76 12.186 7.407 8.28 1.48-1.5-.04-6.773-7.4-8.28z"/></svg>