<svg xmlns="http://www.w3.org/2000/svg" width="192" height="192" viewBox="0 0 192 192"><path d="M31.672 156.02v8.555a11.404 11.404 0 0 0 11.429 11.429h91.429a11.404 11.404 0 0 0 11.429-11.43v-.089a15.6 15.6 0 0 1-3.331-.401 11.4 11.4 0 0 1-8.098 3.348H43.101a11.405 11.405 0 0 1-11.429-11.412" opacity=".4"/><path d="M37.386 50.302v2.84a5.7 5.7 0 0 0 5.714 5.715 8.575 8.575 0 0 1 8.452 7.131q.119-.7.12-1.417A8.57 8.57 0 0 0 43.1 56a5.7 5.7 0 0 1-5.714-5.698m102.86 0A5.7 5.7 0 0 1 134.532 56a8.57 8.57 0 0 0-8.452 9.988 8.574 8.574 0 0 1 8.452-7.131 5.7 5.7 0 0 0 5.714-5.715zm-102.84 55.661q-.018.732-.02 1.465c0 28.403 23.026 51.429 51.43 51.429a51.23 51.23 0 0 0 32.904-11.903l-1.584-1.585h-.003A51.2 51.2 0 0 1 88.816 156c-27.937 0-50.67-22.278-51.406-50.036zm102.82.006a51.3 51.3 0 0 1-2.6 14.855l.672.672a51.5 51.5 0 0 0 1.928-15.527m-108.55 46.52v3.51a11.404 11.404 0 0 0 11.429 11.429h91.429c3.17 0 6.03-1.278 8.097-3.348a16.6 16.6 0 0 1-2.757-.899 10.9 10.9 0 0 1-5.34 1.39H43.105c-6.331 0-11.429-5.388-11.429-12.081z" opacity=".6"/><path d="M43.101 16c-6.331 0-11.429 5.388-11.429 12.081v124.41c0 6.693 5.097 12.081 11.429 12.081h91.429c1.932 0 3.75-.502 5.343-1.39-2.12-.9-4.21-2.292-6.155-4.238l-11.998-11.989a51.22 51.22 0 0 1-32.905 11.903c-28.403 0-51.429-23.026-51.429-51.429q.001-.733.02-1.465-.02-.693-.02-1.392c.02-12.66 3.63-24.867 12.09-34.286a8.57 8.57 0 0 0 2.076-4.297 8.575 8.575 0 0 0-8.452-7.132 5.7 5.7 0 0 1-5.714-5.714V38.857a5.7 5.7 0 0 1 5.714-5.714 8.57 8.57 0 0 0 8.572-8.572 5.7 5.7 0 0 1 5.714-5.714h62.857a5.7 5.7 0 0 1 5.714 5.714 8.57 8.57 0 0 0 8.572 8.572 5.7 5.7 0 0 1 5.714 5.714v14.286a5.7 5.7 0 0 1-5.714 5.714 8.574 8.574 0 0 0-8.452 7.132 8.57 8.57 0 0 0 2.076 4.297c8.464 9.417 12.067 21.624 12.09 34.286q0 .701-.02 1.398.019.728.02 1.46a51.5 51.5 0 0 1-1.947 14.067l7.662 7.656V28.083c0-6.693-5.098-12.08-11.43-12.08zm0 8.571a2.857 2.857 0 0 1 2.857 2.857 2.857 2.857 0 0 1-2.857 2.858 2.857 2.857 0 0 1-2.857-2.858 2.857 2.857 0 0 1 2.857-2.857m91.429 0a2.857 2.857 0 0 1 2.857 2.857 2.857 2.857 0 0 1-2.857 2.858 2.857 2.857 0 0 1-2.857-2.858 2.857 2.857 0 0 1 2.857-2.857m-91.429 40a2.857 2.857 0 0 1 2.857 2.857 2.857 2.857 0 0 1-2.857 2.858 2.857 2.857 0 0 1-2.857-2.857A2.857 2.857 0 0 1 43.1 64.57m91.429 0a2.857 2.857 0 0 1 2.857 2.857 2.857 2.857 0 0 1-2.857 2.858 2.857 2.857 0 0 1-2.857-2.857 2.857 2.857 0 0 1 2.857-2.858M43.1 150.284a2.857 2.857 0 0 1 2.857 2.858A2.857 2.857 0 0 1 43.101 156a2.857 2.857 0 0 1-2.857-2.857 2.857 2.857 0 0 1 2.857-2.858"/><path d="M57.386 18.857a5.7 5.7 0 0 0-5.714 5.714 8.57 8.57 0 0 1-8.572 8.572 5.7 5.7 0 0 0-5.714 5.714v11.429A5.7 5.7 0 0 0 43.1 56a8.57 8.57 0 0 1 8.572 8.572 8.57 8.57 0 0 1-2.196 5.714c-8.46 9.418-12.07 21.626-12.09 34.286 0 28.403 23.026 51.429 51.429 51.429a51.2 51.2 0 0 0 31.317-10.631l-26.66-26.646c-2.611.783-5.387 1.4-8.373 1.4-16.982 0-30.819-13.793-30.819-30.741 0-3.66.836-7.089 1.909-10.156a2.89 2.89 0 0 1 4.766-1.091l15.212 15.17c2.042 2.036 5.1 2.036 7.143 0l5.733-5.72c2.043-2.037 2.043-5.061 0-7.098l-15.209-15.17a2.89 2.89 0 0 1 1.091-4.774c3.075-1.07 6.509-1.9 10.173-1.9 16.981 0 30.812 13.79 30.812 30.739 0 2.976-.616 5.744-1.4 8.348l23.114 23.094a51.4 51.4 0 0 0 2.62-16.253c-.023-12.661-3.627-24.87-12.09-34.286a8.57 8.57 0 0 1-2.196-5.715A8.57 8.57 0 0 1 134.529 56a5.7 5.7 0 0 0 5.714-5.714v-11.43a5.7 5.7 0 0 0-5.714-5.714 8.57 8.57 0 0 1-8.571-8.571 5.7 5.7 0 0 0-5.715-5.714z" opacity=".8"/><path d="M85.098 58.642c-3.665 0-7.098.831-10.173 1.9a2.89 2.89 0 0 0-1.091 4.774l15.209 15.17c2.043 2.037 2.043 5.061 0 7.098l-5.734 5.72c-2.042 2.037-5.1 2.037-7.143 0l-15.212-15.17a2.89 2.89 0 0 0-4.765 1.091c-1.073 3.068-1.909 6.498-1.909 10.156 0 16.95 13.836 30.742 30.818 30.742 2.986 0 5.763-.618 8.374-1.4l40.246 40.22c7.524 7.524 17.195 6.746 22.483 1.467 5.288-5.28 6.11-14.913-1.192-22.215L114.512 97.73c.784-2.603 1.4-5.372 1.4-8.348 0-16.95-13.832-30.74-30.814-30.74m0 2.885.003.003c15.425 0 27.93 12.469 27.93 27.852 0 3.214-.743 6.33-1.747 9.202l41.682 41.655c12.804 12.804-3.89 29.98-17.207 16.663l-41.434-41.406c-2.88 1.001-6.004 1.738-9.227 1.738-15.425 0-27.93-12.469-27.93-27.852 0-3.214.742-6.33 1.747-9.202l15.212 15.17a7.9 7.9 0 0 0 11.222 0l5.734-5.72a7.85 7.85 0 0 0 0-11.19L75.87 63.27c2.88-1.002 6.004-1.742 9.227-1.742z" opacity=".7"/><path d="M85.099 61.529c-3.223 0-6.346.74-9.227 1.741l15.211 15.17a7.85 7.85 0 0 1 0 11.191l-5.735 5.72a7.9 7.9 0 0 1-11.222 0L58.915 80.18c-1.005 2.872-1.746 5.987-1.746 9.201 0 15.383 12.505 27.853 27.93 27.853 3.223 0 6.347-.74 9.227-1.74l41.433 41.406c13.318 13.318 30.011-3.857 17.207-16.66l-41.681-41.657c1.004-2.872 1.746-5.987 1.746-9.201C113.03 74 100.526 61.53 85.1 61.53z" opacity=".5"/></svg>