<svg xmlns="http://www.w3.org/2000/svg" width="192" height="192" viewBox="0 0 192 192"><path d="M96 26.699A69.3 69.3 0 0 0 26.699 96 69.3 69.3 0 0 0 96 165.301 69.3 69.3 0 0 0 165.301 96 69.3 69.3 0 0 0 96 26.699m.037 66.73a2.57 2.57 0 0 1 2.57 2.57 2.57 2.57 0 0 1-2.57 2.57A2.57 2.57 0 0 1 93.465 96a2.57 2.57 0 0 1 2.572-2.57" opacity=".4"/><path d="M73.035 67.768a2.57 2.57 0 0 0-2.047 4.285l18.244 20.271a7.73 7.73 0 0 1 3.82-3.44L74.81 68.615a2.57 2.57 0 0 0-1.775-.846" opacity=".3"/><path d="m92.049 102.61-15.215 39.125a1.285 1.285 0 1 0 2.397.932l15.215-39.123a7.7 7.7 0 0 1-2.397-.934" opacity=".6"/><path d="M96 19c-42.526 0-77 34.474-77 77s34.474 77 77 77 77-34.474 77-77-34.474-77-77-77m0 7.7c38.274-.001 69.301 31.026 69.301 69.3S134.274 165.301 96 165.301s-69.301-31.027-69.301-69.3c0-38.275 31.027-69.302 69.301-69.302m33.318 32.083c-.34.012-.662.16-.895.408l-28.2 30.371A7.7 7.7 0 0 0 88.3 96a7.7 7.7 0 1 0 13.806-4.688l28.201-30.37a1.285 1.285 0 0 0-.99-2.159M96.037 93.43a2.583 2.583 0 0 1 2.57 2.57 2.57 2.57 0 1 1-2.57-2.57"/></svg>