<svg xmlns="http://www.w3.org/2000/svg" width="192" height="192" viewBox="0 0 192 192"><path d="M46.5 151v11c0 6.075 4.925 11 11 11h77c6.075 0 11-4.925 11-11v-11c0 6.075-4.925 11-11 11h-77c-6.075 0-11-4.925-11-11" opacity=".6"/><path d="M57.5 19c-6.075 0-11 4.925-11 11v121c0 6.075 4.925 11 11 11h77c6.075 0 11-4.925 11-11V30c0-6.075-4.925-11-11-11zm31.625 5.5a1.375 1.375 0 0 1 1.375 1.375V30h11v-4.125a1.375 1.375 0 0 1 1.375-1.375 1.375 1.375 0 0 1 1.375 1.375V30H129c2.997 0 5.5 2.503 5.5 5.5V85c0 2.997-2.503 5.5-5.5 5.5h-5.5V96a2.75 2.75 0 0 1-2.75 2.75A2.75 2.75 0 0 1 118 96h-2.75a2.75 2.75 0 0 1-2.75 2.75 2.75 2.75 0 0 1-2.75-2.75H107a2.75 2.75 0 0 1-2.75 2.75A2.75 2.75 0 0 1 101.5 96h-2.75A2.75 2.75 0 0 1 96 98.75 2.75 2.75 0 0 1 93.25 96H90.5a2.75 2.75 0 0 1-2.75 2.75A2.75 2.75 0 0 1 85 96h-2.75a2.75 2.75 0 0 1-2.75 2.75A2.75 2.75 0 0 1 76.75 96H74a2.75 2.75 0 0 1-2.75 2.75A2.75 2.75 0 0 1 68.5 96v-5.5H63c-2.997 0-5.5-2.503-5.5-5.5V35.5c0-2.997 2.503-5.5 5.5-5.5h24.75v-4.125a1.375 1.375 0 0 1 1.375-1.375M63 35.5V85h5.5v-5.5a2.75 2.75 0 0 1 2.75-2.75A2.75 2.75 0 0 1 74 79.5h2.75a2.75 2.75 0 0 1 2.75-2.75 2.75 2.75 0 0 1 2.75 2.75H85a2.75 2.75 0 0 1 2.75-2.75 2.75 2.75 0 0 1 2.75 2.75h2.75A2.75 2.75 0 0 1 96 76.75a2.75 2.75 0 0 1 2.75 2.75h2.75a2.75 2.75 0 0 1 2.75-2.75A2.75 2.75 0 0 1 107 79.5h2.75a2.75 2.75 0 0 1 2.75-2.75 2.75 2.75 0 0 1 2.75 2.75H118a2.75 2.75 0 0 1 2.75-2.75 2.75 2.75 0 0 1 2.75 2.75V85h5.5V35.5h-24.75v4.125c0 2.261-1.864 4.125-4.125 4.125h-8.25c-2.261 0-4.125-1.864-4.125-4.125V35.5zm27.5 0v4.125c0 .79.586 1.375 1.375 1.375h8.25c.79 0 1.375-.586 1.375-1.375V35.5zm-11 71.5h33c3.04 0 5.5 2.46 5.5 5.5v33c0 3.04-2.46 5.5-5.5 5.5h-33c-3.04 0-5.5-2.46-5.5-5.5v-33c0-3.04 2.46-5.5 5.5-5.5"/><path d="M74 129v16.5c0 3.04 2.46 5.5 5.5 5.5h9.625a4.126 4.126 0 0 1 8.25 0H112.5c3.04 0 5.5-2.46 5.5-5.5V129c0 3.04-2.46 5.5-5.5 5.5H87.75a4.12 4.12 0 0 1-2.062 3.572 4.13 4.13 0 0 1-4.126 0A4.12 4.12 0 0 1 79.5 134.5c-3.04 0-5.5-2.46-5.5-5.5m33 8.25c3.04 0 5.5 2.46 5.5 5.5s-2.46 5.5-5.5 5.5-5.5-2.46-5.5-5.5 2.46-5.5 5.5-5.5m-24.75 6.875a2.063 2.063 0 1 1-.001 4.126 2.063 2.063 0 0 1 .001-4.126" opacity=".6"/><path d="M79.5 107c-3.04 0-5.5 2.46-5.5 5.5V129c0 3.04 2.46 5.5 5.5 5.5a4.12 4.12 0 0 1 4.125-4.123 4.12 4.12 0 0 1 4.125 4.123h24.75c3.04 0 5.5-2.46 5.5-5.5v-16.5c0-3.04-2.46-5.5-5.5-5.5H97.375c0 3.04-2.46 5.5-5.5 5.5s-5.5-2.46-5.5-5.5zm31.625 4.125a4.126 4.126 0 0 1 0 8.25 4.126 4.126 0 0 1 0-8.25m-31.625 5.5a2.063 2.063 0 1 1-.001 4.126 2.063 2.063 0 0 1 .001-4.126m17.875 5.5c1.52 0 2.75 1.23 2.75 2.75s-1.23 2.75-2.75 2.75-2.75-1.23-2.75-2.75 1.23-2.75 2.75-2.75" opacity=".7"/><path d="M79.5 134.5a4.12 4.12 0 0 0 2.063 3.572 4.13 4.13 0 0 0 4.124 0 4.12 4.12 0 0 0 2.063-3.572zm27.5 2.75c-3.04 0-5.5 2.46-5.5 5.5s2.46 5.5 5.5 5.5 5.5-2.46 5.5-5.5-2.46-5.5-5.5-5.5m-24.75 6.875a2.063 2.063 0 1 0 .001 4.126 2.063 2.063 0 0 0-.001-4.126m11 2.75A4.126 4.126 0 0 0 89.125 151h8.25a4.126 4.126 0 0 0-4.125-4.125" opacity=".4"/><path d="M86.375 107c0 3.04 2.46 5.5 5.5 5.5s5.5-2.46 5.5-5.5zm24.75 4.125a4.126 4.126 0 0 0 0 8.25 4.126 4.126 0 0 0 0-8.25m-31.625 5.5a2.063 2.063 0 1 0 .001 4.126 2.063 2.063 0 0 0-.001-4.126m17.875 5.5c-1.52 0-2.75 1.23-2.75 2.75s1.23 2.75 2.75 2.75 2.75-1.23 2.75-2.75-1.23-2.75-2.75-2.75m-13.75 8.253A4.12 4.12 0 0 0 79.5 134.5h8.25a4.12 4.12 0 0 0-4.125-4.122m-11-50.878h46.75c.757 0 1.375.618 1.375 1.375v13.75c0 .757-.618 1.375-1.375 1.375h-46.75a1.38 1.38 0 0 1-1.375-1.375v-13.75c0-.757.618-1.375 1.375-1.375" opacity=".5"/></svg>