<svg xmlns="http://www.w3.org/2000/svg" width="192" height="192" viewBox="0 0 192 192"><path d="M74.09 16.004c-2.285.09-4.01 1.88-4.01 4.35v24.892C50.824 46.97 34.431 60.073 28.777 78.632c-5.754 18.89.758 39.37 16.369 51.461 15.358 11.896 36.344 13.114 53.065 3.352l34.167 41.097.01.01c1.554 1.736 4.235 1.942 6.026.453 1.79-1.49 2.081-4.16.658-6.004l-.01-.011-33.726-40.573c7.672-6.604 13.074-15.415 15.361-25.283l41.91-17.479a4.35 4.35 0 0 0 2.683-4.01V35.9c0-2.652-2.196-5.17-4.905-5.624l-85.288-14.2a5 5 0 0 0-1.007-.072M92.958 27.88l58.393 9.696-19.166 17.356zm-14.179.771 51.307 35.411a4.35 4.35 0 0 0 5.398-.37l21.11-19.094v34.157l-34.59 14.415c.011-.24.031-.448.031-.7v-.01c-.038-24.594-18.87-44.888-43.246-47.163zm0 25.273a39 39 0 0 1 4.082.668v7.064l-4.082.062zm-8.698.124v63.657a4.35 4.35 0 0 0 4.35 4.35 4.5 4.5 0 0 0 1.675-.33l33.633-14.014c-7.209 16.662-24.795 26.496-42.866 22.929-19.041-3.759-32.383-20.96-31.288-40.336 1.072-18.97 15.735-34.125 34.496-36.254zm21.489 3.68c1.536.76 3.06 1.544 4.483 2.499v1.265l-4.483.061zm14.498 12.319c1.715 2.416 3.032 5.074 4.154 7.814l-5.48.062v-7.866zm-10.014.133v7.835l-4.483.062v-7.835zm-13.161.185v7.804l-4.092.041v-7.794zm29.9 16.153c.316 1.971.555 3.956.565 5.954 0 .605-.05 1.236-.092 1.86l-8.483.093v-7.814zm-16.72.196v7.804l-4.482.04v-7.793zm-13.16.144v7.793l-4.082.042v-7.794zm13.16 16.359v.76l-4.482 1.882v-2.58zm-13.16.133v5.625c.003.158.072.306.092.462l-4.174 1.738v-7.794z"/></svg>