<svg xmlns="http://www.w3.org/2000/svg" width="192" height="192"><path d="M89.667 173.44q-2.556-2.556-2.556-6.333V131.55q0-3.778 2.556-6.334T96 122.662t6.334 2.555 2.555 6.334v8.889h62.222q3.778 0 6.334 2.555T176 149.33t-2.555 6.333-6.334 2.555H104.89v8.89q0 3.777-2.555 6.333T96 175.995t-6.333-2.555zm-64.778-15.222q-3.778 0-6.333-2.556T16 149.33t2.556-6.333 6.333-2.556h35.556q3.778 0 6.333 2.556t2.556 6.333-2.556 6.333-6.333 2.556zm29.222-38.111q-2.556-2.556-2.556-6.333v-8.89H24.888q-3.777 0-6.333-2.555T16 95.996t2.556-6.333q2.556-2.556 6.333-2.556h26.667v-8.889q0-3.778 2.556-6.333t6.333-2.556 6.334 2.556 2.555 6.333v35.556q0 3.778-2.555 6.333t-6.334 2.556-6.333-2.556zM96 104.885q-3.778 0-6.333-2.556t-2.556-6.333 2.556-6.333T96 87.107h71.111q3.778 0 6.333 2.556T176 95.996t-2.556 6.333-6.333 2.556zm29.222-38.111q-2.556-2.556-2.556-6.333V24.885q0-3.778 2.556-6.334t6.333-2.555 6.334 2.555 2.555 6.334v8.889h26.667q3.778 0 6.334 2.555T176 42.663t-2.555 6.333-6.334 2.555h-26.667v8.89q0 3.777-2.555 6.333t-6.334 2.555-6.333-2.555zM24.892 51.552q-3.778 0-6.333-2.556t-2.556-6.333 2.556-6.333 6.333-2.556h71.111q3.778 0 6.333 2.556t2.556 6.333-2.556 6.333-6.333 2.556z"/></svg>