<svg xmlns="http://www.w3.org/2000/svg" width="192" height="192" viewBox="0 0 192 192"><path d="M55.575 126.8h57.75q2.454 0 4.116-1.661 1.659-1.66 1.659-4.114v-26.95q0-2.454-1.66-4.116-1.66-1.659-4.115-1.659h-57.75q-2.454 0-4.114 1.66-1.661 1.66-1.661 4.115v26.95q0 2.454 1.661 4.114 1.66 1.661 4.114 1.661m18.48-55.055Q75.21 72.9 76.75 72.9h53.9q1.54 0 2.695 1.155t1.155 2.695V96q0 1.54 1.155 2.695t2.695 1.155 2.695-1.155T142.2 96V76.75q0-4.764-3.392-8.158-3.394-3.392-8.158-3.392h-53.9q-1.54 0-2.695 1.155T72.9 69.05t1.155 2.695M30.55 157.6q-4.62 0-8.085-3.465T19 146.05V45.95q0-4.62 3.465-8.085T30.55 34.4h130.9q4.62 0 8.085 3.465T173 45.95v100.1q0 4.62-3.465 8.085t-8.085 3.465zm0-11.55h130.9V45.95H30.55zm0 0V45.95z"/></svg>