<svg xmlns="http://www.w3.org/2000/svg" width="192" height="192" viewBox="0 0 192 192"><path d="M86.111 174.08q-1.889-1.916-1.889-4.749v-36.667q0-2.833 1.929-4.751 1.927-1.916 4.778-1.916 2.849 0 4.738 1.916 1.888 1.918 1.888 4.751v11.778h71.779q2.833 0 4.75 1.929 1.916 1.927 1.916 4.778 0 2.849-1.915 4.738-1.918 1.889-4.751 1.889H97.556v11.556q0 2.833-1.93 4.748-1.926 1.918-4.777 1.918t-4.738-1.918m-63.444-16.304q-2.833 0-4.749-1.929Q16 153.92 16 151.07t1.918-4.737q1.916-1.89 4.749-1.89h41.556q2.833 0 4.751 1.93 1.916 1.926 1.916 4.777t-1.916 4.738q-1.918 1.889-4.751 1.889zm36.778-38.807q-1.889-1.916-1.889-4.749v-11.556H22.667q-2.833 0-4.749-1.929Q16 98.81 16 95.957q0-2.848 1.918-4.737 1.916-1.89 4.75-1.89h34.888v-12q0-2.833 1.929-4.75 1.927-1.916 4.778-1.916 2.849 0 4.738 1.916 1.888 1.917 1.888 4.75v36.89q0 2.833-1.928 4.749-1.927 1.917-4.778 1.917t-4.738-1.917m31.444-16.304q-2.833 0-4.749-1.929-1.918-1.927-1.918-4.778 0-2.849 1.918-4.737 1.916-1.89 4.749-1.89h78.444q2.833 0 4.751 1.93Q176 93.187 176 96.038t-1.916 4.738q-1.918 1.889-4.751 1.889zM123 64.081q-1.889-1.916-1.889-4.749V22.665q0-2.833 1.929-4.751 1.927-1.916 4.778-1.916 2.849 0 4.738 1.916 1.888 1.918 1.888 4.751v11.556h34.89q2.833 0 4.75 1.929Q176 38.077 176 40.928q0 2.849-1.915 4.738-1.918 1.889-4.751 1.889h-34.89v11.777q0 2.834-1.928 4.75-1.927 1.917-4.778 1.917T123 64.081M22.67 47.554q-2.833 0-4.749-1.929-1.918-1.927-1.918-4.778 0-2.849 1.918-4.737 1.916-1.89 4.749-1.89h78.444q2.833 0 4.751 1.93 1.916 1.926 1.916 4.777t-1.916 4.738q-1.918 1.889-4.751 1.889z"/></svg>