<svg xmlns="http://www.w3.org/2000/svg" width="192" height="192" viewBox="0 0 192 192"><path d="M23.895 28.264h144.21A4.885 4.885 0 0 1 173 33.159V147.7a4.885 4.885 0 0 1-4.895 4.896H23.895A4.885 4.885 0 0 1 19 147.699V33.16a4.885 4.885 0 0 1 4.895-4.895" opacity=".7"/><path d="M48.487 48.22h97.809a7.66 7.66 0 0 1 7.679 7.679v67.671a7.66 7.66 0 0 1-7.679 7.679H48.487a7.66 7.66 0 0 1-7.679-7.679V55.899a7.66 7.66 0 0 1 7.679-7.679"/><path d="M28.005 151.67v12.066h19.481V151.67zm113.91 0v12.066h19.492V151.67z" opacity=".5"/></svg>