<svg xmlns="http://www.w3.org/2000/svg" width="192" height="192" viewBox="0 0 192 192"><path d="M158.6 53.222c-8.978.077-22.892 1.303-39.583 6.51-10.683 3.324-26.107 18.28-54.831 46.056-3.798 2.135-17.801-5.942-25.872-9.74 0 0 13.286 21.132 18.034 27.304 7.122 9.734 20.182 15.43 20.182 15.43-1.187-1.187-10.201-10.686-12.813-16.146-1.662-2.61.228-6.415 13.047-15.91 11.632-8.547 52.944-43.434 92.826-52.93 0 0-4.007-.633-10.99-.573zm17.396 14.583c-13.769 1.424-27.067 5.459-39.649 11.393-25.163 11.869-67.656 42.253-67.656 42.253 1.9 1.187 3.804 2.37 5.703 3.32 20.416 9.02 50.566 14.477 56.263 12.578 15.905-5.222 33.707-38.684 39.167-54.115 0 0-16.622 6.645-33.477 14.479-14.006 6.647-29.427 14.245-29.427 14.245l39.167-11.875s-10.45 24.691-24.219 27.539-37.982-6.888-37.982-6.888c1.9-1.662 27.535-20.419 87.357-44.87 2.611-1.9 4.278-4.974 4.753-8.06zm-160 23.489c2.374 6.41 5.463 12.35 9.023 18.047 4.273 5.46 21.832 9.968 24.206 10.443-10.92-7.597-33.229-28.49-33.229-28.49"/></svg>