<svg width="192" height="192" version="1.1" viewBox="0 0 192 192" xmlns="http://www.w3.org/2000/svg"><path d="m158.6 53.222c-8.978 0.07667-22.892 1.3027-39.583 6.5105-10.683 3.3234-26.107 18.28-54.831 46.055-3.7982 2.136-17.801-5.9413-25.872-9.74 0 0 13.286 21.133 18.034 27.305 7.1217 9.7333 20.182 15.43 20.182 15.43-1.1869-1.1873-10.201-10.686-12.813-16.146-1.6617-2.6113 0.22787-6.416 13.047-15.911 11.632-8.546 52.944-43.434 92.826-52.93 0 0-4.0067-0.63253-10.99-0.57287zm17.396 14.583c-13.769 1.4244-27.067 5.4585-39.649 11.393-25.163 11.869-67.656 42.253-67.656 42.253 1.8991 1.1867 3.804 2.3707 5.7031 3.32 20.416 9.0207 50.566 14.477 56.263 12.578 15.905-5.222 33.707-38.684 39.167-54.115 0 0-16.622 6.6453-33.477 14.479-14.006 6.6473-29.427 14.245-29.427 14.245l39.167-11.875s-10.451 24.691-24.219 27.539c-13.769 2.8487-37.982-6.888-37.982-6.888 1.8993-1.662 27.535-20.419 87.357-44.87 2.6113-1.8991 4.278-4.9739 4.7527-8.0599zm-160 23.489c2.3739 6.41 5.4627 12.35 9.0235 18.047 4.2729 5.46 21.832 9.968 24.206 10.443-10.92-7.5967-33.229-28.49-33.229-28.49z"/></svg>
