<svg xmlns="http://www.w3.org/2000/svg" width="192" height="192" viewBox="0 0 192 192"><path d="m57.711 146-8.281 16.438c-1.594 3.05-1.887 4.91-.719 7.563 1.115 2.531 3.99 4 6.984 4h80.61c2.994 0 5.87-1.469 6.984-4 1.168-2.653.874-4.514-.719-7.563L134.29 146z" opacity=".6"/><path d="M16 130v8c0 4.432 3.568 8 8 8h144c4.432 0 8-3.568 8-8v-8z" opacity=".8"/><path d="M24 18c-4.432 0-8 3.568-8 8v104h160V26c0-4.432-3.568-8-8-8zm40 76a8 8 0 0 1 8 8 8 8 0 0 1-8 8 8 8 0 0 1-8-8 8 8 0 0 1 8-8m64 0a8 8 0 0 1 8 8 8 8 0 0 1-8 8 8 8 0 0 1-8-8 8 8 0 0 1 8-8" opacity=".4"/><path d="M45.586 54.008a6 6 0 0 0-2.937 1.016 6 6 0 0 0-1.626 8.328L53.54 81.954c-11.926 10.456-19.934 25.244-21.53 41.89-.294 6.16 6.21 6.157 6.21 6.157h115.41s6.692-.001 6.368-6.469c-1.667-16.527-9.653-31.203-21.516-41.594l12.5-18.586a6 6 0 0 0-1.625-8.328 6 6 0 0 0-4.5-.914 6 6 0 0 0-3.828 2.539l-12.281 18.25c-9.589-5.654-20.783-8.898-32.735-8.898-11.958 0-23.152 3.253-32.742 8.914l-12.29-18.266a6 6 0 0 0-3.828-2.54 6 6 0 0 0-.78-.1 6 6 0 0 0-.782 0zM64 94a8 8 0 0 1 8 8 8 8 0 0 1-8 8 8 8 0 0 1-8-8 8 8 0 0 1 8-8m64 0a8 8 0 0 1 8 8 8 8 0 0 1-8 8 8 8 0 0 1-8-8 8 8 0 0 1 8-8"/></svg>