<svg xmlns="http://www.w3.org/2000/svg" width="192" height="192" viewBox="0 0 192 192"><path d="M24.917 173q-2.465 0-4.191-1.726T19 167.084v-59.168q0-2.465 1.726-4.19T24.917 102h59.167q2.465 0 4.191 1.725t1.726 4.191v59.167q0 2.466-1.726 4.191Q86.549 173 84.084 173z" opacity=".4"/><path d="M24.917 90q-2.465 0-4.191-1.726T19 84.084V24.915q0-2.465 1.726-4.19T24.917 19h59.167q2.465 0 4.191 1.725t1.726 4.191v59.167q0 2.466-1.726 4.191Q86.549 90 84.084 90z" opacity=".8"/><path d="M107.92 90q-2.465 0-4.191-1.726t-1.726-4.19V24.915q0-2.465 1.726-4.19T107.92 19h59.167q2.465 0 4.191 1.725t1.726 4.191v59.167q0 2.466-1.726 4.191Q169.552 90 167.087 90z" opacity=".6"/><path d="M136.28 154.47q-.555-.222-1.11-.777l-16.751-16.752q-.999-1.028-.943-2.4.055-1.371 1.01-2.37 1.042-.998 2.429-.998t2.385.998l10.872 10.983v-37.83q0-1.414.963-2.372.962-.956 2.385-.956t2.365.956q.943.958.943 2.372v37.83l10.983-10.983q.976-.998 2.319-.943t2.384 1.054q.955.999.955 2.385 0 1.387-.999 2.385l-16.64 16.641q-.555.555-1.124.777t-1.22.222-1.207-.222zm-27.623 18.527q-2.662 0-4.66-1.997-1.996-1.997-1.996-4.66v-12.535q0-1.415.963-2.372.961-.956 2.385-.956 1.422 0 2.365.956.943.957.943 2.372v12.536h57.688v-12.536q0-1.415.963-2.372.962-.956 2.385-.956t2.365.956q.943.957.943 2.372v12.536q0 2.662-1.997 4.66-1.996 1.996-4.659 1.996z"/></svg>