<svg xmlns="http://www.w3.org/2000/svg" width="192" height="192" viewBox="0 0 192 192"><path d="m93.242 68.414 22.063 55.172h16.559l5.514-13.236-8.28-19.863-5.343 12.823-13.964-34.895zm44.136 0 22.072 55.172H176l-22.072-55.172zM84.963 90.486 71.17 123.585h16.55l5.514-13.245z" opacity=".5"/><path d="m76.693 68.414-22.072 55.172h16.55l13.793-33.099 13.793 33.099h16.55L93.244 68.414zm44.136 0-5.523 13.793 8.45 21.102 5.343-12.823 13.793 33.099h16.56l-22.073-55.172z" opacity=".75"/><path d="m16 68.414 22.069 55.172h16.552L76.69 68.414H60.138l-13.795 33.103-13.791-33.103h-16.55z"/></svg>