<svg xmlns="http://www.w3.org/2000/svg" width="192" height="192" viewBox="0 0 192 192"><path d="M136.04 132.28V59.712L88.088 95.996m-70.17-21.898c-2.398-2.557-2.478-6.553-.16-9.19l9.59-8.872c1.6-1.439 5.515-2.078 8.392 0l27.333 20.859 63.377-57.942c2.558-2.557 6.953-3.596 11.988-.959l31.968 15.265c2.877 1.678 5.595 4.316 5.595 9.19v107.89c0 3.198-2.318 6.634-4.796 7.993l-35.165 16.783c-2.557 1.039-7.352.08-9.03-1.599l-64.097-58.342-27.173 20.78c-3.037 2.077-6.793 1.518-8.391 0l-9.59-8.792c-2.558-2.637-2.238-6.953.399-9.59l23.976-21.58"/></svg>