<svg width="192" height="192" version="1.1" viewBox="0 0 192 192" xmlns="http://www.w3.org/2000/svg"><path d="m136.04 132.28v-72.568l-47.952 36.284m-70.17-21.898c-2.3976-2.5575-2.4775-6.5535-0.15984-9.1908l9.5905-8.8712c1.5984-1.4386 5.5145-2.0779 8.3916 0l27.333 20.859 63.377-57.942c2.5574-2.5575 6.9531-3.5964 11.988-0.95904l31.968 15.265c2.8771 1.6783 5.5944 4.3157 5.5944 9.1908v107.89c0 3.1968-2.3177 6.6334-4.7952 7.992l-35.165 16.783c-2.5575 1.039-7.3527 0.0799-9.031-1.5984l-64.096-58.342-27.173 20.779c-3.037 2.0779-6.7932 1.5185-8.3916 0l-9.5905-8.7912c-2.5575-2.6374-2.2378-6.9531 0.3996-9.5904l23.976-21.579"/></svg>
