<svg xmlns="http://www.w3.org/2000/svg" width="192" height="192" viewBox="0 0 192 192"><path d="M51.753 127.15c-1.264 3.704 0 7.84 3.32 9.904C67.537 144.846 81.392 149.19 96 149.19s28.463-4.344 40.927-12.136c3.32-2.072 4.584-6.2 3.328-9.904l-3.92-11.488h13.208a8.94 8.94 0 0 1 8.616 6.552l11.792 42.463a8.936 8.936 0 0 1-8.608 11.328H30.663a8.936 8.936 0 0 1-8.608-11.328l11.792-42.463a8.96 8.96 0 0 1 8.616-6.552h13.2zm30.343-89.11 5.44-15.976c2.752-8.08 14.176-8.08 16.928 0l5.44 15.976A26.7 26.7 0 0 1 96 41.92a26.8 26.8 0 0 1-13.904-3.88m49.255 62.974C120.887 108.926 108.83 113.43 96 113.43c-12.832 0-24.887-4.504-35.351-12.416l11.416-33.503c6.96 5.736 15.16 9.04 23.935 9.04 8.776 0 16.976-3.304 23.935-9.04z"/></svg>