<svg xmlns="http://www.w3.org/2000/svg" width="192" height="192" viewBox="0 0 192 192"><path d="M126.06 128.3c.983-3.379.605-6.471-1.035-8.77-1.498-2.109-4.03-3.326-7.077-3.47l-57.728-.748a1.04 1.04 0 0 1-.889-.475c-.188-.28-.234-.658-.14-1.036.186-.56.749-.989 1.358-1.04l58.239-.75c6.9-.326 14.4-5.912 17.025-12.757l3.326-8.675c.144-.374.196-.752.098-1.12-3.75-16.975-18.9-29.635-36.999-29.635-16.693 0-30.856 10.785-35.917 25.743a17.23 17.23 0 0 0-11.96-3.327c-8.017.794-14.443 7.22-15.24 15.237-.19 2.067-.047 4.086.423 5.96-13.087.372-23.542 11.068-23.542 24.245 0 1.166.094 2.344.234 3.516.094.553.563.983 1.126.983h106.54c.606 0 1.172-.43 1.355-1.035l.8-2.846zm18.379-37.089c-.514 0-1.074 0-1.589.075-.377 0-.702.276-.846.65l-2.252 7.83c-.984 3.378-.612 6.47 1.028 8.776 1.504 2.109 4.037 3.32 7.084 3.463l12.29.755c.372 0 .704.176.887.469.188.287.234.716.142 1.041-.188.56-.754.99-1.36 1.036l-12.807.748c-6.94.326-14.388 5.912-17.018 12.76l-.937 2.39c-.189.476.143.944.657.944h43.985c.514 0 .983-.326 1.127-.84a32.2 32.2 0 0 0 1.171-8.535c0-17.35-14.167-31.513-31.563-31.513"/></svg>